<svg xmlns="http://www.w3.org/2000/svg" width="151.91" height="80.145" viewBox="0 0 151.91 80.145">
  <path id="Trazado_719624" data-name="Trazado 719624" d="M161.055,449.887c-.27,3.416.328,17.318,5.915,17.25,3.889-.049,1.2-16.437,1.642-19.6,2.453-17.7,17.06-31.842,32.371-39.694,15.387-7.891,31.883-10.1,48.734-5.958,8.809,2.167,16.686,5.844,23.205,12.287.528.519,12.161,14.11,8.963,15.418-4.457,1.82-14.46-4.77-20.418-1.882-6.774,3.281-5.16,7.443-.319,11.563,6.919,5.893,33.089,13.414,39.341,4.9,2.763-3.76,4.761-12.993,6.348-17.613a125.334,125.334,0,0,0,5.645-22.855c3.094-24.135-17.585,12.493-17.834,12.477-1.739-.11-4.441-3.933-7.06-7.727a39.491,39.491,0,0,0-3.917-5.18c-6.216-5.78-13.711-9.623-21.71-12.266a81.982,81.982,0,0,0-45.431-1.5c-29.283,7.735-55.474,27.263-55.474,60.385C160.674,454.731,161.055,445.814,161.055,449.887Z" transform="translate(-160.886 -386.992)" fill="#ffa031"/>
</svg>
