<svg xmlns="http://www.w3.org/2000/svg" width="264.313" height="216.308" viewBox="0 0 264.313 216.308">
  <g id="Grupo_1006527" data-name="Grupo 1006527" transform="translate(-3389.196 -300.045)">
    <g id="Grupo_1006388" data-name="Grupo 1006388" transform="translate(3389.196 300.045)">
      <g id="Grupo_1006299" data-name="Grupo 1006299" transform="translate(0 12.767)">
        <g id="Grupo_1006294" data-name="Grupo 1006294" transform="translate(4.6 5.866)">
          <g id="Grupo_1006293" data-name="Grupo 1006293">
            <path id="Trazado_720386" data-name="Trazado 720386" d="M3543.658,411.01V589.038a6.89,6.89,0,0,1-6.89,6.89H3421.776a6.89,6.89,0,0,1-6.889-6.89V411.01a6.89,6.89,0,0,1,6.889-6.892h114.992A6.891,6.891,0,0,1,3543.658,411.01Z" transform="translate(-3414.887 -404.118)" fill="#fff"/>
          </g>
        </g>
        <g id="Grupo_1006296" data-name="Grupo 1006296">
          <g id="Grupo_1006295" data-name="Grupo 1006295">
            <path id="Trazado_720387" data-name="Trazado 720387" d="M3518.89,371.355H3397.469a8.283,8.283,0,0,0-8.273,8.276V566.623a8.282,8.282,0,0,0,8.273,8.273H3518.89a8.284,8.284,0,0,0,8.276-8.273V379.631A8.285,8.285,0,0,0,3518.89,371.355Zm6.279,195.268a6.284,6.284,0,0,1-6.279,6.276H3397.469a6.284,6.284,0,0,1-6.279-6.276V379.631a6.285,6.285,0,0,1,6.279-6.279H3518.89a6.285,6.285,0,0,1,6.279,6.279Z" transform="translate(-3389.196 -371.355)" fill="#155bcd"/>
          </g>
        </g>
        <g id="Grupo_1006298" data-name="Grupo 1006298" transform="translate(1.994 1.997)">
          <g id="Grupo_1006297" data-name="Grupo 1006297">
            <path id="Trazado_720388" data-name="Trazado 720388" d="M3534.314,388.788V575.78a6.284,6.284,0,0,1-6.279,6.276H3406.615a6.284,6.284,0,0,1-6.279-6.276V388.788a6.285,6.285,0,0,1,6.279-6.279h21.661v3.869h-18.445a6.89,6.89,0,0,0-6.889,6.892V571.3a6.89,6.89,0,0,0,6.889,6.89h114.992a6.89,6.89,0,0,0,6.89-6.89V393.27a6.891,6.891,0,0,0-6.89-6.892h-15.851v-3.869h19.064A6.285,6.285,0,0,1,3534.314,388.788Z" transform="translate(-3400.336 -382.509)" fill="#155bcd"/>
          </g>
        </g>
      </g>
      <g id="Grupo_1006301" data-name="Grupo 1006301" transform="translate(29.934 11.126)">
        <g id="Grupo_1006300" data-name="Grupo 1006300">
          <path id="Trazado_720389" data-name="Trazado 720389" d="M3637.088,367.671v3.969h-80.7v-3.969a5.477,5.477,0,0,1,5.478-5.481h69.74a5.478,5.478,0,0,1,5.478,5.481Z" transform="translate(-3556.393 -362.19)" fill="#ffa031"/>
        </g>
      </g>
      <g id="Grupo_1006303" data-name="Grupo 1006303" transform="translate(59.992 0)">
        <g id="Grupo_1006302" data-name="Grupo 1006302">
          <path id="Trazado_720390" data-name="Trazado 720390" d="M3734.572,300.045a10.288,10.288,0,1,0,10.289,10.288A10.288,10.288,0,0,0,3734.572,300.045Zm0,15.27a4.982,4.982,0,1,1,4.982-4.982A4.981,4.981,0,0,1,3734.572,315.315Z" transform="translate(-3724.283 -300.045)" fill="#ffa031"/>
        </g>
      </g>
      <g id="Grupo_1006305" data-name="Grupo 1006305" transform="translate(62.798 43.339)">
        <g id="Grupo_1006304" data-name="Grupo 1006304">
          <rect id="Rectángulo_347888" data-name="Rectángulo 347888" width="62.051" height="1.79" fill="#e5e6eb"/>
        </g>
      </g>
      <g id="Grupo_1006307" data-name="Grupo 1006307" transform="translate(62.798 51.279)">
        <g id="Grupo_1006306" data-name="Grupo 1006306">
          <rect id="Rectángulo_347889" data-name="Rectángulo 347889" width="62.051" height="1.79" fill="#e5e6eb"/>
        </g>
      </g>
      <g id="Grupo_1006309" data-name="Grupo 1006309" transform="translate(62.798 35.399)">
        <g id="Grupo_1006308" data-name="Grupo 1006308">
          <rect id="Rectángulo_347890" data-name="Rectángulo 347890" width="62.051" height="1.79" fill="#e5e6eb"/>
        </g>
      </g>
      <g id="Grupo_1006311" data-name="Grupo 1006311" transform="translate(62.798 27.46)">
        <g id="Grupo_1006310" data-name="Grupo 1006310">
          <rect id="Rectángulo_347891" data-name="Rectángulo 347891" width="62.051" height="1.79" fill="#e5e6eb"/>
        </g>
      </g>
      <g id="Grupo_1006313" data-name="Grupo 1006313" transform="translate(62.798 59.219)">
        <g id="Grupo_1006312" data-name="Grupo 1006312">
          <rect id="Rectángulo_347892" data-name="Rectángulo 347892" width="62.051" height="1.79" fill="#e5e6eb"/>
        </g>
      </g>
      <g id="Grupo_1006315" data-name="Grupo 1006315" transform="translate(62.798 67.158)">
        <g id="Grupo_1006314" data-name="Grupo 1006314">
          <rect id="Rectángulo_347893" data-name="Rectángulo 347893" width="42.339" height="1.79" fill="#e5e6eb"/>
        </g>
      </g>
      <g id="Grupo_1006331" data-name="Grupo 1006331" transform="translate(13.121 77.441)">
        <g id="Grupo_1006322" data-name="Grupo 1006322">
          <g id="Grupo_1006318" data-name="Grupo 1006318" transform="translate(0 0.762)">
            <g id="Grupo_1006317" data-name="Grupo 1006317">
              <g id="Grupo_1006316" data-name="Grupo 1006316">
                <path id="Trazado_720391" data-name="Trazado 720391" d="M3480.282,755.619h-17.8V736.848h17.8Zm-14.958-3h12.117V739.844h-12.117Z" transform="translate(-3462.483 -736.848)" fill="#e5e6eb"/>
              </g>
            </g>
          </g>
          <g id="Grupo_1006321" data-name="Grupo 1006321" transform="translate(0.43)">
            <g id="Grupo_1006320" data-name="Grupo 1006320">
              <g id="Grupo_1006319" data-name="Grupo 1006319">
                <path id="Trazado_720392" data-name="Trazado 720392" d="M3474.211,751l-8.881-6.468a1.09,1.09,0,0,1,1.283-1.762l6.8,4.952,7.265-14.529a1.09,1.09,0,0,1,1.949.975Z" transform="translate(-3464.882 -732.589)" fill="#ffa031"/>
              </g>
            </g>
          </g>
        </g>
        <g id="Grupo_1006324" data-name="Grupo 1006324" transform="translate(23.021 1.098)">
          <g id="Grupo_1006323" data-name="Grupo 1006323">
            <rect id="Rectángulo_347894" data-name="Rectángulo 347894" width="45.746" height="1.79" fill="#84a9ff"/>
          </g>
        </g>
        <g id="Grupo_1006326" data-name="Grupo 1006326" transform="translate(23.021 9.038)">
          <g id="Grupo_1006325" data-name="Grupo 1006325">
            <rect id="Rectángulo_347895" data-name="Rectángulo 347895" width="88.707" height="1.79" fill="#e5e6eb"/>
          </g>
        </g>
        <g id="Grupo_1006328" data-name="Grupo 1006328" transform="translate(23.021 16.977)">
          <g id="Grupo_1006327" data-name="Grupo 1006327">
            <rect id="Rectángulo_347896" data-name="Rectángulo 347896" width="88.707" height="1.79" fill="#e5e6eb"/>
          </g>
        </g>
        <g id="Grupo_1006330" data-name="Grupo 1006330" transform="translate(23.021 24.917)">
          <g id="Grupo_1006329" data-name="Grupo 1006329">
            <rect id="Rectángulo_347897" data-name="Rectángulo 347897" width="66.39" height="1.79" fill="#e5e6eb"/>
          </g>
        </g>
      </g>
      <g id="Grupo_1006347" data-name="Grupo 1006347" transform="translate(13.121 111.547)">
        <g id="Grupo_1006338" data-name="Grupo 1006338">
          <g id="Grupo_1006334" data-name="Grupo 1006334" transform="translate(0 0.763)">
            <g id="Grupo_1006333" data-name="Grupo 1006333">
              <g id="Grupo_1006332" data-name="Grupo 1006332">
                <path id="Trazado_720393" data-name="Trazado 720393" d="M3480.282,946.121h-17.8V927.35h17.8Zm-14.958-3h12.117V930.346h-12.117Z" transform="translate(-3462.483 -927.35)" fill="#e5e6eb"/>
              </g>
            </g>
          </g>
          <g id="Grupo_1006337" data-name="Grupo 1006337" transform="translate(0.43)">
            <g id="Grupo_1006336" data-name="Grupo 1006336">
              <g id="Grupo_1006335" data-name="Grupo 1006335">
                <path id="Trazado_720394" data-name="Trazado 720394" d="M3474.211,941.5l-8.881-6.468a1.09,1.09,0,0,1,1.283-1.762l6.8,4.952,7.265-14.529a1.09,1.09,0,0,1,1.949.975Z" transform="translate(-3464.882 -923.091)" fill="#ffa031"/>
              </g>
            </g>
          </g>
        </g>
        <g id="Grupo_1006340" data-name="Grupo 1006340" transform="translate(23.021 1.098)">
          <g id="Grupo_1006339" data-name="Grupo 1006339">
            <rect id="Rectángulo_347898" data-name="Rectángulo 347898" width="78.014" height="1.79" fill="#84a9ff"/>
          </g>
        </g>
        <g id="Grupo_1006342" data-name="Grupo 1006342" transform="translate(23.021 9.038)">
          <g id="Grupo_1006341" data-name="Grupo 1006341">
            <rect id="Rectángulo_347899" data-name="Rectángulo 347899" width="88.707" height="1.79" fill="#e5e6eb"/>
          </g>
        </g>
        <g id="Grupo_1006344" data-name="Grupo 1006344" transform="translate(23.021 16.977)">
          <g id="Grupo_1006343" data-name="Grupo 1006343">
            <rect id="Rectángulo_347900" data-name="Rectángulo 347900" width="88.707" height="1.79" fill="#e5e6eb"/>
          </g>
        </g>
        <g id="Grupo_1006346" data-name="Grupo 1006346" transform="translate(23.021 24.917)">
          <g id="Grupo_1006345" data-name="Grupo 1006345">
            <rect id="Rectángulo_347901" data-name="Rectángulo 347901" width="48.953" height="1.79" fill="#e5e6eb"/>
          </g>
        </g>
      </g>
      <g id="Grupo_1006363" data-name="Grupo 1006363" transform="translate(13.121 145.654)">
        <g id="Grupo_1006354" data-name="Grupo 1006354">
          <g id="Grupo_1006350" data-name="Grupo 1006350" transform="translate(0 0.763)">
            <g id="Grupo_1006349" data-name="Grupo 1006349">
              <g id="Grupo_1006348" data-name="Grupo 1006348">
                <path id="Trazado_720395" data-name="Trazado 720395" d="M3480.282,1136.623h-17.8v-18.771h17.8Zm-14.958-3h12.117v-12.778h-12.117Z" transform="translate(-3462.483 -1117.852)" fill="#e5e6eb"/>
              </g>
            </g>
          </g>
          <g id="Grupo_1006353" data-name="Grupo 1006353" transform="translate(0.43)">
            <g id="Grupo_1006352" data-name="Grupo 1006352">
              <g id="Grupo_1006351" data-name="Grupo 1006351">
                <path id="Trazado_720396" data-name="Trazado 720396" d="M3474.211,1132l-8.881-6.468a1.09,1.09,0,0,1,1.283-1.762l6.8,4.953,7.265-14.529a1.09,1.09,0,1,1,1.949.975Z" transform="translate(-3464.882 -1113.593)" fill="#ffa031"/>
              </g>
            </g>
          </g>
        </g>
        <g id="Grupo_1006356" data-name="Grupo 1006356" transform="translate(23.021 1.098)">
          <g id="Grupo_1006355" data-name="Grupo 1006355">
            <rect id="Rectángulo_347902" data-name="Rectángulo 347902" width="78.014" height="1.79" fill="#84a9ff"/>
          </g>
        </g>
        <g id="Grupo_1006358" data-name="Grupo 1006358" transform="translate(23.021 9.038)">
          <g id="Grupo_1006357" data-name="Grupo 1006357">
            <rect id="Rectángulo_347903" data-name="Rectángulo 347903" width="88.707" height="1.79" fill="#e5e6eb"/>
          </g>
        </g>
        <g id="Grupo_1006360" data-name="Grupo 1006360" transform="translate(23.021 16.977)">
          <g id="Grupo_1006359" data-name="Grupo 1006359">
            <rect id="Rectángulo_347904" data-name="Rectángulo 347904" width="88.707" height="1.79" fill="#e5e6eb"/>
          </g>
        </g>
        <g id="Grupo_1006362" data-name="Grupo 1006362" transform="translate(23.021 24.917)">
          <g id="Grupo_1006361" data-name="Grupo 1006361">
            <rect id="Rectángulo_347905" data-name="Rectángulo 347905" width="48.953" height="1.79" fill="#e5e6eb"/>
          </g>
        </g>
      </g>
      <g id="Grupo_1006379" data-name="Grupo 1006379" transform="translate(13.121 179.761)">
        <g id="Grupo_1006370" data-name="Grupo 1006370">
          <g id="Grupo_1006366" data-name="Grupo 1006366" transform="translate(0 0.762)">
            <g id="Grupo_1006365" data-name="Grupo 1006365">
              <g id="Grupo_1006364" data-name="Grupo 1006364">
                <path id="Trazado_720397" data-name="Trazado 720397" d="M3480.282,1327.124h-17.8v-18.771h17.8Zm-14.958-3h12.117V1311.35h-12.117Z" transform="translate(-3462.483 -1308.353)" fill="#e5e6eb"/>
              </g>
            </g>
          </g>
          <g id="Grupo_1006369" data-name="Grupo 1006369" transform="translate(0.43)">
            <g id="Grupo_1006368" data-name="Grupo 1006368">
              <g id="Grupo_1006367" data-name="Grupo 1006367">
                <path id="Trazado_720398" data-name="Trazado 720398" d="M3474.211,1322.5l-8.881-6.468a1.09,1.09,0,0,1,1.283-1.762l6.8,4.953,7.265-14.529a1.09,1.09,0,1,1,1.949.975Z" transform="translate(-3464.882 -1304.095)" fill="#ffa031"/>
              </g>
            </g>
          </g>
        </g>
        <g id="Grupo_1006372" data-name="Grupo 1006372" transform="translate(23.021 1.098)">
          <g id="Grupo_1006371" data-name="Grupo 1006371">
            <rect id="Rectángulo_347906" data-name="Rectángulo 347906" width="78.014" height="1.79" fill="#84a9ff"/>
          </g>
        </g>
        <g id="Grupo_1006374" data-name="Grupo 1006374" transform="translate(23.021 9.038)">
          <g id="Grupo_1006373" data-name="Grupo 1006373">
            <rect id="Rectángulo_347907" data-name="Rectángulo 347907" width="88.707" height="1.79" fill="#e5e6eb"/>
          </g>
        </g>
        <g id="Grupo_1006376" data-name="Grupo 1006376" transform="translate(23.021 16.977)">
          <g id="Grupo_1006375" data-name="Grupo 1006375">
            <rect id="Rectángulo_347908" data-name="Rectángulo 347908" width="88.707" height="1.79" fill="#e5e6eb"/>
          </g>
        </g>
        <g id="Grupo_1006378" data-name="Grupo 1006378" transform="translate(23.021 24.917)">
          <g id="Grupo_1006377" data-name="Grupo 1006377">
            <rect id="Rectángulo_347909" data-name="Rectángulo 347909" width="48.953" height="1.79" fill="#e5e6eb"/>
          </g>
        </g>
      </g>
      <g id="Grupo_1006387" data-name="Grupo 1006387" transform="translate(6.759 19.839)">
        <g id="Grupo_1006381" data-name="Grupo 1006381">
          <g id="Grupo_1006380" data-name="Grupo 1006380">
            <circle id="Elipse_8598" data-name="Elipse 8598" cx="19.682" cy="19.682" r="19.682" transform="translate(0 27.835) rotate(-45)" fill="#ffa031"/>
          </g>
        </g>
        <g id="Grupo_1006386" data-name="Grupo 1006386" transform="translate(18.354 18.354)">
          <g id="Grupo_1006383" data-name="Grupo 1006383" transform="translate(5.869)">
            <g id="Grupo_1006382" data-name="Grupo 1006382">
              <rect id="Rectángulo_347910" data-name="Rectángulo 347910" width="7.223" height="18.961" fill="#fff"/>
            </g>
          </g>
          <g id="Grupo_1006385" data-name="Grupo 1006385" transform="translate(0 5.869)">
            <g id="Grupo_1006384" data-name="Grupo 1006384">
              <rect id="Rectángulo_347911" data-name="Rectángulo 347911" width="7.223" height="18.961" transform="translate(18.961) rotate(90)" fill="#fff"/>
            </g>
          </g>
        </g>
      </g>
    </g>
    <g id="Grupo_1006441" data-name="Grupo 1006441" transform="translate(3432.098 339.743)">
      <g id="Grupo_1006391" data-name="Grupo 1006391" transform="translate(37.023 171.462)">
        <g id="Grupo_1006390" data-name="Grupo 1006390">
          <g id="Grupo_1006389" data-name="Grupo 1006389">
            <path id="Trazado_720399" data-name="Trazado 720399" d="M3835.642,1484.625H3852.6a2.611,2.611,0,0,0-.477-1.59,2.686,2.686,0,0,0-1.7-.905,16.312,16.312,0,0,0-1.969-.114,10.421,10.421,0,0,1-4.6-1.333,15.584,15.584,0,0,0-2.21-1.206l-4.623.121a5.3,5.3,0,0,0-1.235,2.493A9.317,9.317,0,0,0,3835.642,1484.625Z" transform="translate(-3835.617 -1479.478)" fill="#050f64"/>
          </g>
        </g>
      </g>
      <g id="Grupo_1006393" data-name="Grupo 1006393" transform="translate(3.065 121.148)">
        <g id="Grupo_1006392" data-name="Grupo 1006392">
          <path id="Trazado_720400" data-name="Trazado 720400" d="M3645.945,1199.054l3.9,49.842,5.721-.15,6.191-50.3Z" transform="translate(-3645.945 -1198.447)" fill="#155bcc"/>
        </g>
      </g>
      <g id="Grupo_1006395" data-name="Grupo 1006395" transform="translate(28.767 120.172)">
        <g id="Grupo_1006394" data-name="Grupo 1006394">
          <path id="Trazado_720401" data-name="Trazado 720401" d="M3789.5,1193.6l9.338,50.692h5.521l.746-51.29h0Z" transform="translate(-3789.502 -1192.999)" fill="#155bcc"/>
        </g>
      </g>
      <g id="Grupo_1006398" data-name="Grupo 1006398" transform="translate(6.09 171.462)">
        <g id="Grupo_1006397" data-name="Grupo 1006397">
          <g id="Grupo_1006396" data-name="Grupo 1006396">
            <path id="Trazado_720402" data-name="Trazado 720402" d="M3662.869,1484.623h16.961a2.614,2.614,0,0,0-.477-1.59,2.686,2.686,0,0,0-1.7-.9,16.284,16.284,0,0,0-1.969-.114,10.42,10.42,0,0,1-4.6-1.333,15.6,15.6,0,0,0-2.21-1.205l-4.623.121a5.3,5.3,0,0,0-1.235,2.493A9.346,9.346,0,0,0,3662.869,1484.623Z" transform="translate(-3662.844 -1479.476)" fill="#050f64"/>
          </g>
        </g>
      </g>
      <g id="Grupo_1006406" data-name="Grupo 1006406" transform="translate(23.876 7.944)">
        <g id="Grupo_1006402" data-name="Grupo 1006402" transform="translate(0.2)">
          <g id="Grupo_1006401" data-name="Grupo 1006401">
            <g id="Grupo_1006400" data-name="Grupo 1006400">
              <g id="Grupo_1006399" data-name="Grupo 1006399">
                <path id="Trazado_720403" data-name="Trazado 720403" d="M3821.659,566.289a1.7,1.7,0,0,1,.919,2.159c-.45,1.272-.955,2.531-1.445,3.8l-.783,1.887c-.254.632-.552,1.251-.826,1.879a60.617,60.617,0,0,1-3.912,7.379,34.833,34.833,0,0,1-5.5,6.792,27.2,27.2,0,0,1-7.6,5.092,35.1,35.1,0,0,1-8.7,2.518,60.185,60.185,0,0,1-8.66.707c-2.849.053-5.637-.068-8.407-.231s-5.5-.422-8.219-.691a5.924,5.924,0,0,1-5.119-6.981h0a6,6,0,0,1,7.11-4.789c2.535.6,5.073,1.187,7.59,1.674s5.032.937,7.508,1.221c4.952.58,9.813.666,14.152-.6a19.99,19.99,0,0,0,6.1-2.994,28.683,28.683,0,0,0,5.252-4.975,55.615,55.615,0,0,0,4.447-6.231c.337-.556.695-1.1,1.016-1.667l.986-1.7c.631-1.151,1.279-2.3,1.881-3.471A1.724,1.724,0,0,1,3821.659,566.289Z" transform="translate(-3763.301 -566.148)" fill="#ea8096"/>
              </g>
            </g>
          </g>
        </g>
        <g id="Grupo_1006405" data-name="Grupo 1006405" transform="translate(0 16.668)">
          <g id="Grupo_1006404" data-name="Grupo 1006404">
            <g id="Grupo_1006403" data-name="Grupo 1006403">
              <path id="Trazado_720404" data-name="Trazado 720404" d="M3785.558,678.232l-15.6-1.838a8.446,8.446,0,0,1-7.712-9.24h0a9.009,9.009,0,0,1,9.725-7.852l15.6,1.838Z" transform="translate(-3762.185 -659.247)" fill="#fff"/>
            </g>
          </g>
        </g>
      </g>
      <g id="Grupo_1006408" data-name="Grupo 1006408" transform="translate(0.52 22.978)">
        <g id="Grupo_1006407" data-name="Grupo 1006407">
          <path id="Trazado_720405" data-name="Trazado 720405" d="M3631.729,709.407l.687,39.633,1.924-.073,15.816-.607,4.9-.186.452-.018,4.532-.173,15.6-.6h0l1.146-.043-7.412-37.157.211-18.362.175-15.058.048-4.261v0l.043-3.572v0l0-.189,0-.452.02-1.8c.009-.318.009-.632,0-.946v0a15.9,15.9,0,0,0-12.328-15.015c-.061-.014-.123-.027-.184-.039a15.767,15.767,0,0,0-3.345-.357c-.291,0-.586.009-.882.025h-.014a19.692,19.692,0,0,0-2.954.391,19.478,19.478,0,0,0-15.411,17.876Z" transform="translate(-3631.729 -650.121)" fill="#fff"/>
        </g>
      </g>
      <g id="Grupo_1006411" data-name="Grupo 1006411" transform="translate(0 22.453)">
        <g id="Grupo_1006410" data-name="Grupo 1006410">
          <g id="Grupo_1006409" data-name="Grupo 1006409">
            <path id="Trazado_720406" data-name="Trazado 720406" d="M3641.268,650.173l.321.332a19.322,19.322,0,0,1,6.141-2.447,19.685,19.685,0,0,1,2.953-.391h.014c.3-.016.591-.025.882-.025a15.634,15.634,0,0,1,2.708.234c.041-.146.086-.293.129-.436a15.913,15.913,0,0,0-2.837-.252c-.282,0-.582.009-.894.027h-.027a19.969,19.969,0,0,0-3.022.4A19.729,19.729,0,0,0,3641.268,650.173Zm25.8,45.594.455.089.075-6.505.175-15.059.048-4.261.043-3.5-.455-.1v.018l-.043,3.572v0l-.048,4.261-.175,15.059ZM3629.106,723l.416,24.033,2.385-.091,15.818-.607,4.9-.186.452-.018,14.518-.555-.043-.455-9.961.382-4.531.173-.452.018-4.9.186-15.816.607-1.923.073-.409-23.624Zm-.28-16.084.084,4.814.452-.071-.082-4.732,1.516-20.461-.455-.034Zm3.038-41.01-.85,11.475h.457l.848-11.448a19.409,19.409,0,0,1,4.472-11.277l-.448-.157A19.893,19.893,0,0,0,3631.864,665.907Zm35.067,41.8,6.323,31.7.43-.171-6.3-31.57.062-5.28-.455-.1Zm-7.305-57.868a15.919,15.919,0,0,1,7.631,11.248h.459a16.361,16.361,0,0,0-5.652-10.077,16.033,16.033,0,0,0-2.3-1.612Z" transform="translate(-3628.827 -647.188)" fill="#84a9ff"/>
          </g>
        </g>
      </g>
      <g id="Grupo_1006414" data-name="Grupo 1006414" transform="translate(18.535 29.156)">
        <g id="Grupo_1006413" data-name="Grupo 1006413">
          <g id="Grupo_1006412" data-name="Grupo 1006412">
            <path id="Trazado_720407" data-name="Trazado 720407" d="M3739.621,685.08a14.279,14.279,0,0,1-2,11.7s-5.812-5.16-5.224-12.146A6.8,6.8,0,0,0,3739.621,685.08Z" transform="translate(-3732.355 -684.63)" fill="#155bcc"/>
          </g>
        </g>
      </g>
      <g id="Grupo_1006417" data-name="Grupo 1006417" transform="translate(21.4 39.825)">
        <g id="Grupo_1006416" data-name="Grupo 1006416">
          <g id="Grupo_1006415" data-name="Grupo 1006415">
            <path id="Trazado_720408" data-name="Trazado 720408" d="M3748.793,801.177l1.946,24.178.452-.018-1.946-24.2a135.275,135.275,0,0,1-.084-20.565l1.823-36.334-.455-.023-1.821,36.327A135.577,135.577,0,0,0,3748.793,801.177Z" transform="translate(-3748.356 -744.219)" fill="#155bcc"/>
          </g>
        </g>
      </g>
      <g id="Grupo_1006419" data-name="Grupo 1006419" transform="translate(35.941 41.268)">
        <g id="Grupo_1006418" data-name="Grupo 1006418">
          <path id="Trazado_720409" data-name="Trazado 720409" d="M3829.576,788.346h27.846l11.454-36.069H3841.03Z" transform="translate(-3829.576 -752.277)" fill="#155bcd"/>
        </g>
      </g>
      <g id="Grupo_1006428" data-name="Grupo 1006428" transform="translate(4.314 31.964)">
        <g id="Grupo_1006423" data-name="Grupo 1006423" transform="translate(0.791 1.883)">
          <g id="Grupo_1006422" data-name="Grupo 1006422">
            <g id="Grupo_1006421" data-name="Grupo 1006421">
              <g id="Grupo_1006420" data-name="Grupo 1006420">
                <path id="Trazado_720410" data-name="Trazado 720410" d="M3717.8,745.906a1.605,1.605,0,0,1-1.542,1.782,38.275,38.275,0,0,1-8.122-.5,60.613,60.613,0,0,1-7.836-1.846c-.637-.2-1.285-.388-1.915-.61l-1.9-.66-1.875-.715c-.628-.235-1.236-.507-1.855-.76l-.927-.387-.912-.411c-.607-.277-1.22-.547-1.824-.832-1.194-.591-2.41-1.156-3.581-1.791a145.024,145.024,0,0,1-26.254-18.057,5.87,5.87,0,0,1-.839-.9,5.52,5.52,0,0,1-.592-1.038,5.8,5.8,0,0,1-.486-2.274,5.9,5.9,0,0,1,1.819-4.293h0a6.271,6.271,0,0,1,4.316-1.786,5.624,5.624,0,0,1,2.2.424,5.5,5.5,0,0,1,.99.541,5.182,5.182,0,0,1,.885.746,135.419,135.419,0,0,0,21.956,20.083c1,.738,2.036,1.4,3.061,2.1.518.338,1.043.662,1.565.994l.785.5.8.47c.534.309,1.061.64,1.6.933l1.624.893,1.647.843c.549.285,1.111.53,1.667.8a55.7,55.7,0,0,0,6.875,2.666,34.53,34.53,0,0,0,7.123,1.449,1.8,1.8,0,0,1,1.541,1.64Z" transform="translate(-3657.342 -710.826)" fill="#f4bcc7"/>
              </g>
            </g>
          </g>
        </g>
        <g id="Grupo_1006425" data-name="Grupo 1006425" transform="translate(0.454 0.455)">
          <g id="Grupo_1006424" data-name="Grupo 1006424">
            <path id="Trazado_720411" data-name="Trazado 720411" d="M3670.8,728.064l-12.057-10.073a8.446,8.446,0,0,1-1.4-11.954h0a9.009,9.009,0,0,1,12.436-1.253l12.057,10.073Z" transform="translate(-3655.462 -702.85)" fill="#fff"/>
          </g>
        </g>
        <g id="Grupo_1006427" data-name="Grupo 1006427">
          <g id="Grupo_1006426" data-name="Grupo 1006426">
            <path id="Trazado_720412" data-name="Trazado 720412" d="M3671.776,706.113l6.433,5.375.293-.35-6.45-5.389Zm-18.781,4.1a9.353,9.353,0,0,0,2.81,5.536l.364-.28a8.568,8.568,0,0,1-2.185-9.422l-.4-.232A8.433,8.433,0,0,0,3653,710.213Zm9.218-9.9a9.738,9.738,0,0,0-5.689,1.842l.3.343a9.092,9.092,0,0,1,9.679-.618l.316-.341A9.113,9.113,0,0,0,3662.213,700.311Zm-1.9,18.653-.264.373,8.72,7.283,3.92-4.691-.4-.225-3.574,4.277Zm18.792-5.425-4.236,5.073.448.171,4.131-4.943C3679.338,713.744,3679.225,713.642,3679.106,713.539Z" transform="translate(-3652.924 -700.311)" fill="#84a9ff"/>
          </g>
        </g>
      </g>
      <g id="Grupo_1006440" data-name="Grupo 1006440" transform="translate(15.378 0)">
        <g id="Grupo_1006437" data-name="Grupo 1006437">
          <g id="Grupo_1006430" data-name="Grupo 1006430" transform="translate(3.199 18.069)">
            <g id="Grupo_1006429" data-name="Grupo 1006429">
              <path id="Trazado_720413" data-name="Trazado 720413" d="M3740.5,623.152l-.691,11.087a6.159,6.159,0,0,1-7.224-.45l.691-11.087Z" transform="translate(-3732.588 -622.702)" fill="#f5bdc8"/>
            </g>
          </g>
          <g id="Grupo_1006432" data-name="Grupo 1006432" transform="translate(3.704 18.069)">
            <g id="Grupo_1006431" data-name="Grupo 1006431">
              <path id="Trazado_720414" data-name="Trazado 720414" d="M3742.822,623.152l-.312,5.015a5.864,5.864,0,0,1-1.641.27q-.274,0-.547-.012a6.51,6.51,0,0,1-4.909-2.748l.185-2.976Z" transform="translate(-3735.412 -622.702)" fill="#ea8096"/>
            </g>
          </g>
          <g id="Grupo_1006434" data-name="Grupo 1006434" transform="translate(1.823 5.146)">
            <g id="Grupo_1006433" data-name="Grupo 1006433">
              <path id="Trazado_720415" data-name="Trazado 720415" d="M3737.9,557.316l-.466,4.622-.188,1.87a5.156,5.156,0,0,1-5.021,4.641,5.779,5.779,0,0,1-2.457-.489c-.176-.077-.347-.164-.513-.257-.1-.058-.2-.117-.3-.182a5.662,5.662,0,0,1-2.168-2.612c-.378-.924-.725-1.938-1.05-3.007-.187-.611-.367-1.239-.542-1.877a7.843,7.843,0,0,1,2.161-7.845,6.324,6.324,0,0,1,10.545,5.135Z" transform="translate(-3724.904 -550.52)" fill="#f5bdc8"/>
            </g>
          </g>
          <g id="Grupo_1006436" data-name="Grupo 1006436">
            <g id="Grupo_1006435" data-name="Grupo 1006435">
              <path id="Trazado_720416" data-name="Trazado 720416" d="M3720.322,536.058l.8-.443s-1.586-3.27-1.067-4.383c.739-1.583,4.753-2,6.789-1.534a1.706,1.706,0,0,1,1.384.974,14.577,14.577,0,0,1,.964,6.51s2.547-7.9-.092-11.96c-1.729-2.66-3.28-4.513-6.82-2.754-5.621,2.794-8.543,7.539-7.26,14.26l3.7-1.6Z" transform="translate(-3714.722 -521.778)" fill="#050f64"/>
            </g>
          </g>
        </g>
        <g id="Grupo_1006439" data-name="Grupo 1006439" transform="translate(0.116 12.011)">
          <g id="Grupo_1006438" data-name="Grupo 1006438">
            <ellipse id="Elipse_8599" data-name="Elipse 8599" cx="2.413" cy="2.712" rx="2.413" ry="2.712" transform="translate(0 4.818) rotate(-86.433)" fill="#f5bdc8"/>
          </g>
        </g>
      </g>
    </g>
    <g id="Grupo_1006466" data-name="Grupo 1006466" transform="translate(3576.645 340.123)">
      <g id="Grupo_1006442" data-name="Grupo 1006442" transform="translate(23.37 171.064)">
        <path id="Trazado_720417" data-name="Trazado 720417" d="M4583.738,1484.542h-17.021a2.621,2.621,0,0,1,.479-1.6,2.7,2.7,0,0,1,1.706-.908,16.4,16.4,0,0,1,1.976-.114,10.46,10.46,0,0,0,4.618-1.338,15.621,15.621,0,0,1,2.218-1.21l4.639.121a5.313,5.313,0,0,1,1.239,2.5A9.354,9.354,0,0,1,4583.738,1484.542Z" transform="translate(-4566.717 -1479.377)" fill="#050f64"/>
      </g>
      <g id="Grupo_1006443" data-name="Grupo 1006443" transform="translate(34.365 165.674)">
        <path id="Trazado_720418" data-name="Trazado 720418" d="M4634.074,1449.767l-1.3,5.015-4.639-.121.272-5.39Z" transform="translate(-4628.132 -1449.27)" fill="#f5bdc8"/>
      </g>
      <g id="Grupo_1006444" data-name="Grupo 1006444" transform="translate(33.063 76.274)">
        <path id="Trazado_720419" data-name="Trazado 720419" d="M4620.875,996.924a42.282,42.282,0,0,1,.861-9.639c2.257-10.927,6.318-31.974,6.318-31.977.629-4.534,4.4-5.862,8.934-5.233,2.636.366,27.39,5.49,27.368,5.723l-5.4,83.883-6.885-.236-7.379-66.08-11.32,20.754-.007.025-4.792,45.716-6.614-.453Z" transform="translate(-4620.861 -949.928)" fill="#155bcd"/>
      </g>
      <g id="Grupo_1006445" data-name="Grupo 1006445" transform="translate(54.411 171.064)">
        <path id="Trazado_720420" data-name="Trazado 720420" d="M4757.117,1484.54H4740.1a2.624,2.624,0,0,1,.479-1.6,2.7,2.7,0,0,1,1.706-.908,16.356,16.356,0,0,1,1.976-.114,10.456,10.456,0,0,0,4.618-1.338,15.646,15.646,0,0,1,2.218-1.21l4.639.122a5.314,5.314,0,0,1,1.24,2.5A9.373,9.373,0,0,1,4757.117,1484.54Z" transform="translate(-4740.096 -1479.375)" fill="#050f64"/>
      </g>
      <g id="Grupo_1006446" data-name="Grupo 1006446" transform="translate(64.687 165.805)">
        <path id="Trazado_720421" data-name="Trazado 720421" d="M4803.405,1450.2l-.554,5.178-4.639-.122-.72-5.259Z" transform="translate(-4797.493 -1450.002)" fill="#f5bdc8"/>
      </g>
      <g id="Grupo_1006450" data-name="Grupo 1006450" transform="translate(0 22.391)">
        <g id="Grupo_1006448" data-name="Grupo 1006448" transform="translate(0 1.359)">
          <g id="Grupo_1006447" data-name="Grupo 1006447">
            <path id="Trazado_720422" data-name="Trazado 720422" d="M4437.332,658.409a1.7,1.7,0,0,1,2.13.8,41.254,41.254,0,0,0,3.591,6.25,22.161,22.161,0,0,0,4.649,4.927,13.291,13.291,0,0,0,5.584,2.529,13.936,13.936,0,0,0,3,.213,17.112,17.112,0,0,0,3.071-.411,27.442,27.442,0,0,0,6.14-2.252,49,49,0,0,0,5.921-3.526c1.927-1.326,3.808-2.766,5.645-4.292s3.634-3.121,5.394-4.777a5.3,5.3,0,0,1,4.128-1.279,6.353,6.353,0,0,1,4.128,2.161h0a6.007,6.007,0,0,1,1.5,4.428,5.49,5.49,0,0,1-2.225,4c-2.148,1.512-4.348,2.974-6.614,4.363s-4.6,2.706-7.022,3.909a58.042,58.042,0,0,1-7.6,3.157,35.4,35.4,0,0,1-8.375,1.744,24.411,24.411,0,0,1-4.457-.064,20.784,20.784,0,0,1-4.437-.986,19.474,19.474,0,0,1-7.485-4.755,27.214,27.214,0,0,1-4.8-6.766,45.113,45.113,0,0,1-2.939-7.337A1.653,1.653,0,0,1,4437.332,658.409Z" transform="translate(-4436.187 -656.557)" fill="#ea8096"/>
          </g>
        </g>
        <g id="Grupo_1006449" data-name="Grupo 1006449" transform="translate(29.833)">
          <path id="Trazado_720423" data-name="Trazado 720423" d="M4613.25,673.941l12.566-9.521a8.475,8.475,0,0,0,1.976-11.915h0a9.04,9.04,0,0,0-12.405-1.85l-12.567,9.521Z" transform="translate(-4602.821 -648.967)" fill="#ffa031"/>
        </g>
      </g>
      <g id="Grupo_1006451" data-name="Grupo 1006451" transform="translate(40.256 21.92)">
        <path id="Trazado_720424" data-name="Trazado 720424" d="M4678.6,646.4h0a15.936,15.936,0,0,0-17.347,15.807l-.212,43.862c14.845,7.2,23.224,4.793,36.3.491l-.936-41.211A19.543,19.543,0,0,0,4678.6,646.4Z" transform="translate(-4661.037 -646.337)" fill="#ffa031"/>
      </g>
      <g id="Grupo_1006452" data-name="Grupo 1006452" transform="translate(39.954 21.619)">
        <path id="Trazado_720425" data-name="Trazado 720425" d="M4659.487,676.84h.3l.077-16.013a15.938,15.938,0,0,1,15.912-15.87q.71,0,1.435.063c.269.024.536.053.8.089-.022-.106-.044-.21-.063-.312-.235-.03-.471-.056-.709-.077-.486-.044-.978-.065-1.462-.065a16.258,16.258,0,0,0-16.214,16.171Zm11.838,31.9-.1.285a31.765,31.765,0,0,0,5.881.557c.872,0,1.738-.036,2.6-.107l.021-.3A31.28,31.28,0,0,1,4671.325,708.736Zm18.368-58.1c-.069.071-.142.14-.216.213a19.493,19.493,0,0,1,5.542,13.122l.226,9.989h.3l-.226-10A19.8,19.8,0,0,0,4689.693,650.634Zm6.261,54.546c-1.572.517-3.076,1.006-4.531,1.454,0,.1,0,.207,0,.311,1.474-.45,3.007-.947,4.621-1.478l.211-.07-.216-9.491-.3.042Zm-36.6-.3.17.083q1.525.74,2.987,1.356l.074-.3q-1.424-.6-2.93-1.331l.075-15.625h-.3Z" transform="translate(-4659.351 -644.655)" fill="#da5544"/>
      </g>
      <g id="Grupo_1006456" data-name="Grupo 1006456" transform="translate(49.646 3.426)">
        <g id="Grupo_1006453" data-name="Grupo 1006453" transform="translate(3.577 13.335)">
          <path id="Trazado_720426" data-name="Trazado 720426" d="M4733.463,617.74l.337,11.335a6.288,6.288,0,0,0,7.386-.219l-.337-11.335Z" transform="translate(-4733.463 -617.52)" fill="#f5bdc8"/>
        </g>
        <g id="Grupo_1006454" data-name="Grupo 1006454" transform="translate(3.577 13.335)">
          <path id="Trazado_720427" data-name="Trazado 720427" d="M4733.463,617.74l.152,5.127a5.992,5.992,0,0,0,1.665.33q.28.014.559.006a6.645,6.645,0,0,0,5.1-2.641l-.09-3.042Z" transform="translate(-4733.463 -617.52)" fill="#ea8096"/>
        </g>
        <g id="Grupo_1006455" data-name="Grupo 1006455">
          <path id="Trazado_720428" data-name="Trazado 720428" d="M4713.5,549.759l.451,6.645a5.265,5.265,0,0,0,4.97,4.9h0a5.856,5.856,0,0,0,5.668-3.43,44.726,44.726,0,0,0,1.787-4.93,8.014,8.014,0,0,0-1.945-8.077,6.455,6.455,0,0,0-10.93,4.89Z" transform="translate(-4713.481 -543.037)" fill="#f5bdc8"/>
        </g>
      </g>
      <g id="Grupo_1006461" data-name="Grupo 1006461" transform="translate(55.916 29.454)">
        <g id="Grupo_1006458" data-name="Grupo 1006458" transform="translate(1.582 0.464)">
          <g id="Grupo_1006457" data-name="Grupo 1006457">
            <path id="Trazado_720429" data-name="Trazado 720429" d="M4758.022,758.552a1.8,1.8,0,0,1-.482-2.206,34.648,34.648,0,0,0,2.844-6.718,55.913,55.913,0,0,0,1.7-7.2c.094-.613.209-1.217.285-1.833l.238-1.841.183-1.85c.065-.615.09-1.238.138-1.855l.063-.927.036-.931c.021-.621.052-1.239.065-1.859,0-1.245.04-2.481,0-3.727a135.872,135.872,0,0,0-4.158-29.569,5.221,5.221,0,0,1-.115-1.156,5.514,5.514,0,0,1,.114-1.126,5.647,5.647,0,0,1,.9-2.063,6.3,6.3,0,0,1,3.928-2.558h0a5.919,5.919,0,0,1,4.585.932,5.822,5.822,0,0,1,1.606,1.693,5.531,5.531,0,0,1,.523,1.079,5.907,5.907,0,0,1,.272,1.207,145.517,145.517,0,0,1,.041,31.976c-.139,1.329-.361,2.656-.55,3.979-.107.662-.231,1.322-.347,1.982l-.178.989-.206.986c-.143.656-.263,1.314-.425,1.967l-.472,1.957-.531,1.945c-.174.647-.389,1.289-.582,1.931a60.835,60.835,0,0,1-2.92,7.533,38.405,38.405,0,0,1-4.2,7A1.611,1.611,0,0,1,4758.022,758.552Z" transform="translate(-4757.339 -691.007)" fill="#f5bdc8"/>
          </g>
        </g>
        <g id="Grupo_1006459" data-name="Grupo 1006459" transform="translate(0 0.302)">
          <path id="Trazado_720430" data-name="Trazado 720430" d="M4767.226,713.782l-1.493-15.7a8.476,8.476,0,0,0-9.1-7.945h0a9.04,9.04,0,0,0-8.1,9.58l1.493,15.7Z" transform="translate(-4748.504 -690.104)" fill="#ffa031"/>
        </g>
        <g id="Grupo_1006460" data-name="Grupo 1006460" transform="translate(0.047)">
          <path id="Trazado_720431" data-name="Trazado 720431" d="M4750.738,691.609l.252.17a9.05,9.05,0,0,1,5.861-3.023,8.119,8.119,0,0,1,7.5,3.533l.255-.158a8.466,8.466,0,0,0-6.959-3.716c-.272,0-.548.014-.821.039A9.41,9.41,0,0,0,4750.738,691.609Zm-1.972,10.024.751,7.9h.3l-.756-7.946Zm1.367,11.17-.3.051.143,1.506,9.615-.914-.02-.3-9.322.887Zm16.261-11.428.866,9.115.3-.039-.863-9.076Z" transform="translate(-4748.766 -688.415)" fill="#da5544"/>
        </g>
      </g>
      <g id="Grupo_1006464" data-name="Grupo 1006464" transform="translate(46.874 0)">
        <g id="Grupo_1006462" data-name="Grupo 1006462" transform="translate(2.589 5.558)">
          <path id="Trazado_720432" data-name="Trazado 720432" d="M4714,555.982a12.437,12.437,0,0,0-1.161,6.283,20.021,20.021,0,0,1-.045-7.317Z" transform="translate(-4712.461 -554.947)" fill="#050f64"/>
        </g>
        <g id="Grupo_1006463" data-name="Grupo 1006463">
          <path id="Trazado_720433" data-name="Trazado 720433" d="M4716.044,537.231s3.688-5.282.033-9.485c-3.94-4.529-6.612-4.118-9.49-3.4-3.64.9-5.617,2.117-6.994,1.788-.736-.176-1.376-.818-1.505-.4a5.325,5.325,0,0,0,1.663,4.813c2.044,1.907,4.771,1.69,7.476.363s3.961-1.124,5.042.552c1.147,1.778-.549,4.928-.549,4.928l.814.317S4715.684,534.962,4716.044,537.231Z" transform="translate(-4698.003 -523.901)" fill="#050f64"/>
        </g>
      </g>
      <g id="Grupo_1006465" data-name="Grupo 1006465" transform="translate(59.622 10.196)">
        <ellipse id="Elipse_8600" data-name="Elipse 8600" cx="2.768" cy="2.464" rx="2.768" ry="2.464" transform="translate(0 0.165) rotate(-1.703)" fill="#f5bdc8"/>
      </g>
    </g>
    <g id="Grupo_1006491" data-name="Grupo 1006491" transform="translate(3535.969 340.564)">
      <g id="Grupo_1006467" data-name="Grupo 1006467" transform="translate(40.731 0)">
        <path id="Trazado_720434" data-name="Trazado 720434" d="M4438.933,534.161a12.7,12.7,0,1,1,24.844,5.09,6.486,6.486,0,0,1-.1,11.964c.063.2.117.4.162.6a6.487,6.487,0,0,1-10.185,6.607c-.083.021-.166.043-.25.061a6.488,6.488,0,0,0-5.93,1.294,20.9,20.9,0,0,1-8.927-10.477,6.465,6.465,0,0,1,.777-4.722,6.486,6.486,0,0,1-.388-10.418Z" transform="translate(-4436.497 -526.364)" fill="#050f64"/>
      </g>
      <g id="Grupo_1006471" data-name="Grupo 1006471" transform="translate(0 29.228)">
        <g id="Grupo_1006469" data-name="Grupo 1006469" transform="translate(0 0.348)">
          <g id="Grupo_1006468" data-name="Grupo 1006468">
            <path id="Trazado_720435" data-name="Trazado 720435" d="M4209.185,727.217a1.752,1.752,0,0,1,2.071-.92,29.717,29.717,0,0,0,14.076,1.4,20.811,20.811,0,0,0,6.366-2.1,20.8,20.8,0,0,0,5.231-3.934,23.726,23.726,0,0,0,2.142-2.525l.25-.332.237-.346c.157-.232.318-.458.473-.691.294-.482.608-.941.879-1.441a38.824,38.824,0,0,0,2.872-6.238,67,67,0,0,0,3.238-13.831,5.313,5.313,0,0,1,.809-2.054,5.379,5.379,0,0,1,.706-.848,5.962,5.962,0,0,1,.857-.713,6.381,6.381,0,0,1,4.55-1.012,5.839,5.839,0,0,1,3.972,2.469,5.659,5.659,0,0,1,.563,1.035,5.816,5.816,0,0,1,.328,1.142,5.583,5.583,0,0,1-.1,2.464c-.735,2.619-1.57,5.226-2.559,7.8a68.137,68.137,0,0,1-3.425,7.6,47.956,47.956,0,0,1-4.607,7.151c-.429.572-.914,1.115-1.374,1.666-.239.271-.488.536-.732.8l-.368.4-.386.387a31.558,31.558,0,0,1-3.276,2.906,27.843,27.843,0,0,1-7.695,4.235,26.94,26.94,0,0,1-8.488,1.54,31.8,31.8,0,0,1-8.278-.959,36.341,36.341,0,0,1-7.619-2.835A1.63,1.63,0,0,1,4209.185,727.217Z" transform="translate(-4208.992 -691.56)" fill="#ea8096"/>
          </g>
        </g>
        <g id="Grupo_1006470" data-name="Grupo 1006470" transform="translate(32.234)">
          <path id="Trazado_720436" data-name="Trazado 720436" d="M4389.036,708.477l3.541-13.161a7.328,7.328,0,0,1,8.9-5.457h0a7.815,7.815,0,0,1,5.515,9.336l-3.542,13.161Z" transform="translate(-4389.036 -689.614)" fill="#84a9ff"/>
        </g>
      </g>
      <g id="Grupo_1006472" data-name="Grupo 1006472" transform="translate(53.888 171.301)">
        <path id="Trazado_720437" data-name="Trazado 720437" d="M4510.333,1485.769a1.969,1.969,0,0,1,1.246-.663,11.975,11.975,0,0,1,1.443-.084,7.638,7.638,0,0,0,3.373-.977,11.421,11.421,0,0,1,1.62-.884l3.388.089a3.882,3.882,0,0,1,.905,1.827,6.836,6.836,0,0,1,.107,1.857v.707h-12.43v-.707h0A1.918,1.918,0,0,1,4510.333,1485.769Z" transform="translate(-4509.984 -1483.162)" fill="#050f64"/>
      </g>
      <g id="Grupo_1006473" data-name="Grupo 1006473" transform="translate(61.632 167.69)">
        <path id="Trazado_720438" data-name="Trazado 720438" d="M4557.332,1463l-.418,3.7-3.388-.089-.288-3.542Z" transform="translate(-4553.238 -1462.995)" fill="#f5bdc8"/>
      </g>
      <g id="Grupo_1006474" data-name="Grupo 1006474" transform="translate(17.002 70.022)">
        <path id="Trazado_720439" data-name="Trazado 720439" d="M4338.334,942.256a79.887,79.887,0,0,1-12.42,21.728l-5.219,52.044-16.738-.951,7.8-50.945a45.3,45.3,0,0,1,1.568-6.741l12-37.33c1.271-4.88,27.63-1.362,27.63-1.362,7.281,10.109,2.7,42.276,2.7,42.276l3.9,54.051-17.816.3.075-53.609Z" transform="translate(-4303.957 -917.472)" fill="#050f64"/>
      </g>
      <g id="Grupo_1006475" data-name="Grupo 1006475" transform="translate(22.852 167.988)">
        <path id="Trazado_720440" data-name="Trazado 720440" d="M4341.053,1464.88l-1.035,3.174-3.389-.085.505-3.312Z" transform="translate(-4336.63 -1464.658)" fill="#f5bdc8"/>
      </g>
      <g id="Grupo_1006476" data-name="Grupo 1006476" transform="translate(14.825 171.3)">
        <path id="Trazado_720441" data-name="Trazado 720441" d="M4292.145,1485.772a1.97,1.97,0,0,1,1.245-.665,12,12,0,0,1,1.443-.085,7.639,7.639,0,0,0,3.372-.981,11.417,11.417,0,0,1,1.619-.885l3.389.084a3.884,3.884,0,0,1,.907,1.826,6.836,6.836,0,0,1,.11,1.857v.707l-12.43.016v-.707h0A1.916,1.916,0,0,1,4292.145,1485.772Z" transform="translate(-4291.797 -1483.155)" fill="#050f64"/>
      </g>
      <g id="Grupo_1006477" data-name="Grupo 1006477" transform="translate(37.306 27.303)">
        <path id="Trazado_720442" data-name="Trazado 720442" d="M4439.8,678.865l.017.319a14.074,14.074,0,0,1,8.083,8.06l.307-.024a14.3,14.3,0,0,0-8.406-8.355Zm-19.3,46.425a30.811,30.811,0,0,0,10.337,1.843,28.743,28.743,0,0,0,6.558-.764l-.032-.3a29.217,29.217,0,0,1-16.827-1.087Zm-3.061-28.534.06,2.372.3-.03-.06-2.36a16.972,16.972,0,0,1,10.662-17.3l-.054-.292a17.286,17.286,0,0,0-6.459,4.432A17.07,17.07,0,0,0,4417.436,696.756Zm.676,14.725h-.3l.226,8.9h.3Zm25.137,12.633v.325q1.449-.607,2.951-1.36l.15-.075.611-6.612-.289-.16-.606,6.578C4445.145,723.271,4444.206,723.71,4443.249,724.115Z" transform="translate(-4417.365 -678.865)" fill="#155bcd"/>
      </g>
      <g id="Grupo_1006478" data-name="Grupo 1006478" transform="translate(29.735 26.695)">
        <path id="Trazado_720443" data-name="Trazado 720443" d="M4379.91,702.993a9.2,9.2,0,0,0,3.159-7.12l-.049-1.923a16.962,16.962,0,0,1,17.9-18.451h0a14.033,14.033,0,0,1,13.063,15.943l-2.638,28.579a39.457,39.457,0,0,1-8.722,3.263,13.274,13.274,0,0,0-4.6,2.01,14.652,14.652,0,0,1-8.406,2.628,14.422,14.422,0,0,1-14.547-14.293A14.142,14.142,0,0,1,4379.91,702.993Z" transform="translate(-4375.076 -675.469)" fill="#84a9ff"/>
      </g>
      <g id="Grupo_1006479" data-name="Grupo 1006479" transform="translate(29.376 27.535)">
        <path id="Trazado_720444" data-name="Trazado 720444" d="M4409.833,722.445l.362-.025,1.509-16.348-.354-.054Zm-36.764-4.963a14.564,14.564,0,0,0,6.184,11.875l.172-.312a14.122,14.122,0,0,1-2.762-20.546l-.366-.113A14.5,14.5,0,0,0,4373.069,717.482Zm7.994-17.746a8.479,8.479,0,0,1-.213,2.12l.353.07a8.98,8.98,0,0,0,.219-2.2l-.05-1.923a16.962,16.962,0,0,1,10.1-17.069l-.111-.335a17.362,17.362,0,0,0-5.886,4.2,17.127,17.127,0,0,0-4.463,13.222Zm23.025-19.225a14.059,14.059,0,0,1,8.263,10.977l.352-.022a14.358,14.358,0,0,0-8.536-11.3Z" transform="translate(-4373.069 -680.161)" fill="#155bcd"/>
      </g>
      <g id="Grupo_1006484" data-name="Grupo 1006484" transform="translate(53.846 31.501)">
        <g id="Grupo_1006481" data-name="Grupo 1006481" transform="translate(1.572 0.377)">
          <g id="Grupo_1006480" data-name="Grupo 1006480">
            <path id="Trazado_720445" data-name="Trazado 720445" d="M4522.5,770.135a1.743,1.743,0,0,1-.821-2.083c.444-1.089.832-2.223,1.177-3.367.178-.57.33-1.152.489-1.728s.3-1.162.424-1.748a62.818,62.818,0,0,0,1.162-7.1,77.217,77.217,0,0,0,.146-14.347l-.066-.893-.093-.893-.187-1.782-.239-1.777c-.082-.592-.152-1.183-.259-1.772-.2-1.179-.376-2.356-.626-3.527l-.348-1.755c-.127-.583-.267-1.165-.4-1.747a117.847,117.847,0,0,0-4.083-13.715,5.273,5.273,0,0,1,.464-4.243,6.456,6.456,0,0,1,3.618-2.928h0a5.937,5.937,0,0,1,4.634.351,5.366,5.366,0,0,1,2.789,3.595,128.765,128.765,0,0,1,2.283,15.453c.052.649.112,1.3.158,1.946l.1,1.952c.085,1.3.1,2.6.128,3.9.022.649.008,1.3.005,1.952l-.019,1.951-.074,1.951-.039.974-.066.974a83.818,83.818,0,0,1-2.368,15.378,67.884,67.884,0,0,1-2.333,7.413c-.228.606-.479,1.206-.723,1.805-.26.6-.511,1.192-.792,1.78-.548,1.179-1.139,2.338-1.806,3.476A1.607,1.607,0,0,1,4522.5,770.135Z" transform="translate(-4518.524 -704.418)" fill="#f5bdc8"/>
          </g>
        </g>
        <g id="Grupo_1006482" data-name="Grupo 1006482" transform="translate(0.303 0.298)">
          <path id="Trazado_720446" data-name="Trazado 720446" d="M4529.458,723l-3.331-13.216a7.327,7.327,0,0,0-8.813-5.6h0a7.815,7.815,0,0,0-5.663,9.246l3.331,13.216Z" transform="translate(-4511.438 -703.973)" fill="#84a9ff"/>
        </g>
        <g id="Grupo_1006483" data-name="Grupo 1006483">
          <path id="Trazado_720447" data-name="Trazado 720447" d="M4511.59,718.578l1.784,7.076,2.5-.63-.032-.3-2.245.566-1.706-6.771Zm-1.813-7.568.307.027a7.871,7.871,0,0,1,5.841-8.211,7.036,7.036,0,0,1,1.439-.21l.043-.3a7.388,7.388,0,0,0-1.556.223,8.179,8.179,0,0,0-4.891,3.635A7.827,7.827,0,0,0,4509.777,711.009Zm13.263-6.324-.17.26a7.983,7.983,0,0,1,1.87,3.478l1.151,4.567.3-.03-1.163-4.611A8.269,8.269,0,0,0,4523.04,704.686Zm5.03,16.954-8.3,2.093.1.284,8.565-2.158-.95-3.768-.291.075Z" transform="translate(-4509.746 -702.311)" fill="#155bcd"/>
        </g>
      </g>
      <g id="Grupo_1006490" data-name="Grupo 1006490" transform="translate(45.48 7.195)">
        <g id="Grupo_1006485" data-name="Grupo 1006485" transform="translate(4.951 13.708)">
          <path id="Trazado_720448" data-name="Trazado 720448" d="M4490.676,643.142l.036,10.405a5.77,5.77,0,0,0,6.78-.024l-.037-10.406Z" transform="translate(-4490.676 -643.118)" fill="#f5bdc8"/>
        </g>
        <g id="Grupo_1006486" data-name="Grupo 1006486" transform="translate(4.954 14.651)">
          <path id="Trazado_720449" data-name="Trazado 720449" d="M4490.69,648.408l.009,2.581a7.4,7.4,0,0,0,3.447,1.026c.071,0,.142,0,.212,0a4.51,4.51,0,0,0,3.121-1.253l-.009-2.381Z" transform="translate(-4490.69 -648.384)" fill="#ea8096"/>
        </g>
        <g id="Grupo_1006487" data-name="Grupo 1006487" transform="translate(2.106 1.42)">
          <path id="Trazado_720450" data-name="Trazado 720450" d="M4474.783,577.009l.166,6.059.038,1.345a6.448,6.448,0,0,0,6.158,6.2,3.637,3.637,0,0,0,1.013-.1c.128-.032.256-.068.384-.114.026-.008.053-.018.079-.029a3.516,3.516,0,0,0,1.3-.858,10.875,10.875,0,0,0,1.81-2.739,18.683,18.683,0,0,0,1.08-2.524,8.346,8.346,0,0,0,.441-3.167l-.2-5.317-10.28-1.287Z" transform="translate(-4474.783 -574.484)" fill="#f5bdc8"/>
        </g>
        <g id="Grupo_1006488" data-name="Grupo 1006488">
          <path id="Trazado_720451" data-name="Trazado 720451" d="M4463.029,572.136a11.253,11.253,0,0,1,.638-2.216,3.942,3.942,0,0,1,1.263-1.1,1.89,1.89,0,0,1,.847-.158,4.162,4.162,0,0,1,1.224-.984,9.863,9.863,0,0,1,7.424-.675c1.228.53,3.587.776,3.127,1.266.826-.021.291,1.042.86,3.2.508,1.925.4,5.159-.583,5.781s-2.411.384-1.518-1.974c0,0,.014-.1.026-.261a1.811,1.811,0,0,1-1.011-.663,3.659,3.659,0,0,1-.624-1.692,12.553,12.553,0,0,0-.319-1.793,3.991,3.991,0,0,0-1.36-1.916q-.131-.057-.265-.109a4.794,4.794,0,0,0-.581.328,10.153,10.153,0,0,0-1.635,2.09,8.058,8.058,0,0,1-4.182,2.915,3.615,3.615,0,0,1-1.144.149c0,.1.011.2.021.3,0,0-1.359-.081-1.768-.729A2.613,2.613,0,0,1,4463.029,572.136Z" transform="translate(-4463.022 -566.553)" fill="#050f64"/>
        </g>
        <g id="Grupo_1006489" data-name="Grupo 1006489" transform="translate(11.225 5.735)">
          <circle id="Elipse_8601" data-name="Elipse 8601" cx="2.467" cy="2.467" r="2.467" transform="translate(0 3.489) rotate(-45)" fill="#f5bdc8"/>
        </g>
      </g>
    </g>
    <g id="Grupo_1006526" data-name="Grupo 1006526" transform="translate(3525.927 400.804)">
      <g id="Grupo_1006525" data-name="Grupo 1006525">
        <g id="Grupo_1006498" data-name="Grupo 1006498" transform="translate(0 21.613)">
          <g id="Grupo_1006495" data-name="Grupo 1006495" transform="translate(0 0.222)">
            <g id="Grupo_1006494" data-name="Grupo 1006494">
              <g id="Grupo_1006492" data-name="Grupo 1006492" transform="translate(0.117 0.117)">
                <path id="Trazado_720452" data-name="Trazado 720452" d="M4153.855,1024.551a1.087,1.087,0,0,0,1.479.248l1.07-.806c.352-.277.7-.565,1.046-.848l.523-.427c.175-.142.351-.283.517-.437l1.012-.9c.168-.152.34-.3.505-.456l.486-.477.974-.958c.313-.33.62-.667.93-1s.625-.668.912-1.019l.882-1.043.221-.262.209-.267.418-.535c.277-.357.561-.713.834-1.073l.8-1.088c.542-.724,1.044-1.457,1.557-2.189s1.007-1.467,1.506-2.2c1.981-2.939,3.9-5.879,5.836-8.8l2.911-4.363,1.465-2.17.732-1.085.74-1.08a4.04,4.04,0,0,0-6.949-4.075l-.592,1.184-.585,1.188-1.168,2.375-2.308,4.755c-1.528,3.171-3.03,6.343-4.562,9.463a88.7,88.7,0,0,1-4.932,9c-.22.363-.466.7-.707,1.049s-.48.693-.727,1.037l-.774,1-.387.5c-.133.165-.274.323-.41.486l-.827.971c-.135.165-.282.32-.428.476l-.437.469c-.293.312-.581.629-.879.939l-.917.91A1.125,1.125,0,0,0,4153.855,1024.551Z" transform="translate(-4153.555 -985.445)" fill="#ea8096"/>
              </g>
              <g id="Grupo_1006493" data-name="Grupo 1006493">
                <path id="Trazado_720453" data-name="Trazado 720453" d="M4153.229,1024.087h0a1.244,1.244,0,0,1-.018-1.662l.916-.909c.191-.2.381-.4.565-.6l.313-.336.482-.517c.128-.136.26-.277.38-.424l.827-.971q.073-.087.147-.173c.088-.1.176-.205.259-.309l1.159-1.5c.157-.218.31-.438.463-.659l.263-.377.128-.182c.194-.277.4-.564.577-.863a89.51,89.51,0,0,0,4.925-8.99c1.025-2.088,2.056-4.239,3.052-6.318q.752-1.57,1.51-3.144l2.308-4.756,1.753-3.563.593-1.186a3.437,3.437,0,0,1,2.146-1.708,4.344,4.344,0,0,1,3.383.491,4.408,4.408,0,0,1,2.07,2.758,3.393,3.393,0,0,1-.448,2.655l-.74,1.079-2.2,3.255-2.91,4.363q-.959,1.446-1.917,2.9c-1.275,1.932-2.594,3.93-3.92,5.9l-.4.583c-.359.532-.73,1.081-1.112,1.62l-.287.41c-.409.586-.832,1.192-1.272,1.782l-.8,1.089c-.182.238-.367.475-.552.711l-.284.363-.63.805-1.1,1.3c-.243.3-.509.586-.767.864l-.149.161-.311.336c-.206.223-.412.446-.624.669l-1.462,1.437c-.107.1-.218.2-.329.3l-.178.159-1.011.9c-.153.142-.316.274-.474.4l-.571.466-.362.3c-.223.183-.454.372-.687.555l-1.07.806a1.107,1.107,0,0,1-.938.179A1.33,1.33,0,0,1,4153.229,1024.087Zm22.812-38.922a3.2,3.2,0,0,0-2,1.589l-.592,1.183L4171.7,991.5l-2.308,4.755q-.757,1.572-1.509,3.143c-1,2.08-2.028,4.231-3.054,6.321a89.615,89.615,0,0,1-4.937,9.011c-.184.3-.387.593-.584.873l-.127.182-.263.376c-.154.221-.308.442-.467.665l-1.163,1.507c-.086.107-.176.212-.265.317-.049.057-.1.114-.146.172l-.825.969c-.124.151-.259.3-.389.435l-.482.516-.312.336c-.185.2-.375.4-.569.606l-.918.91a1.009,1.009,0,0,0,.033,1.344.972.972,0,0,0,1.318.229l1.069-.8c.229-.18.458-.368.681-.55l.363-.3.571-.466c.155-.126.315-.256.465-.394l1.012-.9.179-.16c.109-.1.218-.194.323-.293l1.458-1.433c.208-.219.413-.441.618-.663l.311-.336.149-.161c.255-.276.52-.56.759-.854l1.1-1.3.627-.8.284-.364c.185-.235.369-.471.549-.707l.8-1.089c.439-.588.861-1.192,1.269-1.776l.287-.411c.38-.537.751-1.086,1.11-1.616l.395-.583c1.326-1.968,2.645-3.965,3.919-5.9q.959-1.452,1.917-2.9l2.911-4.363,2.2-3.256.739-1.078a3.158,3.158,0,0,0,.414-2.471,4.17,4.17,0,0,0-1.962-2.608,4.35,4.35,0,0,0-1.187-.489A3.936,3.936,0,0,0,4176.041,985.165Z" transform="translate(-4152.902 -984.789)" fill="#ea8096"/>
              </g>
            </g>
          </g>
          <g id="Grupo_1006497" data-name="Grupo 1006497" transform="translate(14.488)">
            <g id="Grupo_1006496" data-name="Grupo 1006496">
              <path id="Trazado_720454" data-name="Trazado 720454" d="M4242.018,998.724l5.067-7.479a4.856,4.856,0,0,0-1.12-6.829h0a5.18,5.18,0,0,0-7.072,1.279l-5.067,7.479Z" transform="translate(-4233.826 -983.55)" fill="#fff"/>
            </g>
          </g>
        </g>
        <g id="Grupo_1006500" data-name="Grupo 1006500" transform="translate(8.453 112.062)">
          <g id="Grupo_1006499" data-name="Grupo 1006499">
            <path id="Trazado_720455" data-name="Trazado 720455" d="M4211.608,1492.242h-11.49a1.768,1.768,0,0,1,.323-1.077,1.819,1.819,0,0,1,1.151-.613,11.045,11.045,0,0,1,1.334-.077,7.061,7.061,0,0,0,3.117-.9,10.537,10.537,0,0,1,1.5-.817l3.131.082a3.585,3.585,0,0,1,.837,1.688A6.313,6.313,0,0,1,4211.608,1492.242Z" transform="translate(-4200.118 -1488.755)" fill="#050f64"/>
          </g>
        </g>
        <g id="Grupo_1006502" data-name="Grupo 1006502" transform="translate(34.561 112.062)">
          <g id="Grupo_1006501" data-name="Grupo 1006501">
            <path id="Trazado_720456" data-name="Trazado 720456" d="M4357.433,1492.242h-11.49a1.771,1.771,0,0,1,.323-1.077,1.821,1.821,0,0,1,1.152-.613,11.043,11.043,0,0,1,1.333-.077,7.063,7.063,0,0,0,3.118-.9,10.537,10.537,0,0,1,1.5-.817l3.131.082a3.585,3.585,0,0,1,.837,1.688A6.313,6.313,0,0,1,4357.433,1492.242Z" transform="translate(-4345.943 -1488.755)" fill="#050f64"/>
          </g>
        </g>
        <g id="Grupo_1006503" data-name="Grupo 1006503" transform="translate(15.649 56.464)">
          <path id="Trazado_720457" data-name="Trazado 720457" d="M4243.981,1233.9l-3.67-.091.658-30.381,2.527-21.412V1182c.215-3.165,8.9-3.9,12.072-3.779s13.426.609,13.3,3.779v.005l1.328,51.919-4.062-.118-10.882-40.977-5.771,12.553Z" transform="translate(-4240.311 -1178.213)" fill="#155bcd"/>
        </g>
        <g id="Grupo_1006504" data-name="Grupo 1006504" transform="translate(19.041 19.952)">
          <path id="Trazado_720458" data-name="Trazado 720458" d="M4259.256,1013.593c10.157,4.914,16.16,3.194,25.1.245l-.7-23.334-.045-1.619-.034-1.28-.009-.337a13.353,13.353,0,0,0-12.188-12.949,10.9,10.9,0,0,0-11.8,9.8c-.033.336-.05.677-.051,1.022l-.021,2.466-.013,1.28-.031,3.488Z" transform="translate(-4259.256 -974.276)" fill="#fff"/>
        </g>
        <g id="Grupo_1006505" data-name="Grupo 1006505" transform="translate(18.804 19.716)">
          <path id="Trazado_720459" data-name="Trazado 720459" d="M4258.048,1001.1l.235-.052.1-9.755.01-1.035h-.235l-.01,1.032Zm6.294-26.955.119.2a10.828,10.828,0,0,1,5.839-1.111q.341.03.676.078l.042-.232c-.23-.033-.462-.06-.7-.08-.331-.03-.665-.045-.993-.045A11.064,11.064,0,0,0,4264.343,974.144Zm10.758.45a13.385,13.385,0,0,1,5.8,5.619l.191-.139a13.7,13.7,0,0,0-5.89-5.686Zm-7.435,41.112a21.928,21.928,0,0,0,2.447.137c4.226,0,8.151-1.186,13.234-2.863l.167-.055-.1-3.206h-.236l.09,3.038c-5.78,1.906-10.333,3.3-15.573,2.716Zm15.255-14.758.238.046-.311-10.4h-.235Zm-24.734-14.12.235-.027,0-.277.022-2.466c0-.345.019-.686.051-1.022a10.863,10.863,0,0,1,3.961-7.388l-.2-.145c-.138.113-.272.231-.405.351a11.1,11.1,0,0,0-3.593,7.159c-.033.34-.05.692-.052,1.044l-.022,2.465Zm-.252,25.83.134.065a37.738,37.738,0,0,0,3.766,1.592v-.248a38.354,38.354,0,0,1-3.664-1.556l.05-4.952-.236.007Z" transform="translate(-4257.934 -972.959)" fill="#84a9ff"/>
        </g>
        <g id="Grupo_1006520" data-name="Grupo 1006520" transform="translate(24.07)">
          <g id="Grupo_1006512" data-name="Grupo 1006512" transform="translate(1.885 3.862)">
            <g id="Grupo_1006507" data-name="Grupo 1006507" transform="translate(1.801 10.981)">
              <g id="Grupo_1006506" data-name="Grupo 1006506">
                <path id="Trazado_720460" data-name="Trazado 720460" d="M4308.7,945.735l-.765,9.424a5.242,5.242,0,0,0,6.141.5l.765-9.424Z" transform="translate(-4307.932 -945.735)" fill="#f5bdc8"/>
              </g>
            </g>
            <g id="Grupo_1006509" data-name="Grupo 1006509" transform="translate(2.219 10.981)">
              <g id="Grupo_1006508" data-name="Grupo 1006508">
                <path id="Trazado_720461" data-name="Trazado 720461" d="M4310.618,945.735l-.346,4.263a4.986,4.986,0,0,0,1.349.427q.23.037.462.056a5.541,5.541,0,0,0,4.47-1.718l.205-2.529Z" transform="translate(-4310.272 -945.735)" fill="#ea8096"/>
              </g>
            </g>
            <g id="Grupo_1006511" data-name="Grupo 1006511">
              <g id="Grupo_1006510" data-name="Grupo 1006510">
                <path id="Trazado_720462" data-name="Trazado 720462" d="M4298.118,889.393l-.169,3.95-.069,1.6a4.388,4.388,0,0,0,3.666,4.52,4.924,4.924,0,0,0,2.129-.114c.157-.044.313-.1.463-.155.094-.036.187-.074.278-.116a4.817,4.817,0,0,0,2.144-1.937c.431-.732.846-1.545,1.25-2.406.232-.491.46-1,.684-1.515a6.675,6.675,0,0,0-.868-6.871,5.382,5.382,0,0,0-9.507,3.045Z" transform="translate(-4297.875 -884.403)" fill="#f5bdc8"/>
              </g>
            </g>
          </g>
          <g id="Grupo_1006517" data-name="Grupo 1006517">
            <g id="Grupo_1006514" data-name="Grupo 1006514">
              <g id="Grupo_1006513" data-name="Grupo 1006513">
                <path id="Trazado_720463" data-name="Trazado 720463" d="M4289.235,870.812a2.585,2.585,0,0,0,.342-2.142,1.522,1.522,0,0,1,.464-2.005,2.6,2.6,0,0,1-2.7-1.453s1.35.6,3.709-.588c0,0-1.447.405-1.318-1.791a4.991,4.991,0,0,0,3.591.86c2-.355,2.687-.377,3.34.308,0,0,3.787-.116,4.505,3.243,0,0,3.244,2.4-.125,8.074l-3.5-.381-.379-.7s3.4-2.811.131-4.78a4.533,4.533,0,0,0-5.871,1.018l.191-1.607Z" transform="translate(-4287.346 -862.833)" fill="#050f64"/>
              </g>
            </g>
            <g id="Grupo_1006516" data-name="Grupo 1006516" transform="translate(2.052 4.94)">
              <g id="Grupo_1006515" data-name="Grupo 1006515">
                <path id="Trazado_720464" data-name="Trazado 720464" d="M4300.477,891.365a9.467,9.467,0,0,0-1.666,4.7,16.656,16.656,0,0,1,.883-5.635Z" transform="translate(-4298.809 -890.426)" fill="#050f64"/>
              </g>
            </g>
          </g>
          <g id="Grupo_1006519" data-name="Grupo 1006519" transform="translate(9.319 10.286)">
            <g id="Grupo_1006518" data-name="Grupo 1006518">
              <ellipse id="Elipse_8602" data-name="Elipse 8602" cx="2.054" cy="2.308" rx="2.054" ry="2.308" transform="translate(0 4.095) rotate(-85.359)" fill="#f5bdc8"/>
            </g>
          </g>
        </g>
        <g id="Grupo_1006524" data-name="Grupo 1006524" transform="translate(31.351 25.524)">
          <g id="Grupo_1006521" data-name="Grupo 1006521" transform="translate(1.016 0.33)">
            <path id="Trazado_720465" data-name="Trazado 720465" d="M4334.748,1008.442a4.383,4.383,0,0,1,2.95-1.2,4.529,4.529,0,0,1,3.032.994,3.241,3.241,0,0,1,1.252,2.565l-.021.629-.056,3.151c-.01.506-.014.895-.014,1.26l-.01,2.526.013,2.535.052,5.122c.019,2,0,3.673-.052,5.251l-.01.335-.062,1.005q-.015.226-.028.451c-.018.29-.036.591-.061.89l-.216,2.007c-.015.148-.039.3-.062.438-.013.077-.025.155-.037.234-.034.209-.067.418-.1.626-.1.666-.211,1.354-.365,2.018l-.275,1.3c-.034.178-.08.354-.125.524l-.532,2.04c-.046.19-.1.378-.159.559l-.594,1.954c-.023.073-.045.147-.067.221-.041.135-.082.271-.126.4l-1.049,3.069-.9,2.419a1.139,1.139,0,0,1-1.1.7,1.427,1.427,0,0,1-.416-.063,1.229,1.229,0,0,1-.924-1.363l.54-2.477.592-3.1c.025-.131.045-.263.065-.395.011-.074.022-.148.035-.222l.3-1.94c.027-.173.055-.352.072-.528l.227-1.975c.019-.157.038-.32.045-.48l.083-1.227c.055-.6.063-1.21.071-1.8,0-.209.006-.419.011-.625,0-.073,0-.146,0-.219,0-.126.006-.255,0-.383l-.061-1.814c-.015-.257-.037-.519-.057-.772-.012-.147-.024-.295-.035-.441l-.071-.905-.035-.308c-.159-1.487-.366-3.056-.651-4.939l-.767-5.055-.375-2.555-.353-2.566c-.053-.373-.1-.77-.167-1.288l-.4-3.222-.07-.647A3.38,3.38,0,0,1,4334.748,1008.442Z" transform="translate(-4333.687 -1007.236)" fill="#f5bdc8"/>
          </g>
          <g id="Grupo_1006522" data-name="Grupo 1006522" transform="translate(0.235 0.236)">
            <path id="Trazado_720466" data-name="Trazado 720466" d="M4339.583,1020.57l-.367-9.026a4.856,4.856,0,0,0-4.958-4.828h0a5.18,5.18,0,0,0-4.929,5.23l.367,9.026Z" transform="translate(-4329.325 -1006.712)" fill="#fff"/>
          </g>
          <g id="Grupo_1006523" data-name="Grupo 1006523">
            <path id="Trazado_720467" data-name="Trazado 720467" d="M4328.015,1010.874l.185,4.547.235,0-.185-4.552a4.755,4.755,0,0,1,.482-2.278c-.07-.039-.139-.078-.207-.118A4.982,4.982,0,0,0,4328.015,1010.874Zm.479,6.012-.233.027.131,3.223,1.162-.047-.028-.234-.909.036Zm4.676-11.486a5.4,5.4,0,0,0-3.071,1.145l.207.135a5.131,5.131,0,0,1,2.873-1.045,4.84,4.84,0,0,1,4.946,4.622l.232-.054a5.109,5.109,0,0,0-4.981-4.808C4333.308,1005.4,4333.238,1005.4,4333.17,1005.4Zm4.684,14.116-5.356.218.032.234,5.339-.218Zm.656-5.675h-.235l.13,3.22h.235Z" transform="translate(-4328.011 -1005.395)" fill="#84a9ff"/>
          </g>
        </g>
      </g>
    </g>
  </g>
</svg>
