<svg xmlns="http://www.w3.org/2000/svg" width="351.87" height="270.536" viewBox="0 0 351.87 270.536">
  <g id="Grupo_1006065" data-name="Grupo 1006065" transform="translate(-112.536 -300.045)">
    <g id="Grupo_1006165" data-name="Grupo 1006165" transform="translate(291.848 300.045)">
      <g id="Grupo_1006071" data-name="Grupo 1006071" transform="translate(0 15.968)">
        <g id="Grupo_1006066" data-name="Grupo 1006066" transform="translate(5.752 7.336)">
          <g id="Grupo_1006065-2" data-name="Grupo 1006065">
            <path id="Trazado_720319" data-name="Trazado 720319" d="M1100.068,412.738V635.4a8.617,8.617,0,0,1-8.616,8.617H947.632a8.617,8.617,0,0,1-8.617-8.617V412.738a8.618,8.618,0,0,1,8.617-8.62h143.82A8.618,8.618,0,0,1,1100.068,412.738Z" transform="translate(-939.015 -404.118)" fill="#fff"/>
          </g>
        </g>
        <g id="Grupo_1006068" data-name="Grupo 1006068">
          <g id="Grupo_1006067" data-name="Grupo 1006067">
            <path id="Trazado_720320" data-name="Trazado 720320" d="M1075.533,371.355H923.672a10.359,10.359,0,0,0-10.347,10.35V615.576a10.359,10.359,0,0,0,10.347,10.347h151.861a10.361,10.361,0,0,0,10.35-10.347V381.705A10.362,10.362,0,0,0,1075.533,371.355Zm7.853,244.221a7.859,7.859,0,0,1-7.853,7.849H923.672a7.859,7.859,0,0,1-7.852-7.849V381.705a7.86,7.86,0,0,1,7.852-7.853h151.861a7.86,7.86,0,0,1,7.853,7.853Z" transform="translate(-913.325 -371.355)" fill="#155bcd"/>
          </g>
        </g>
        <g id="Grupo_1006070" data-name="Grupo 1006070" transform="translate(2.494 2.498)">
          <g id="Grupo_1006069" data-name="Grupo 1006069">
            <path id="Trazado_720321" data-name="Trazado 720321" d="M1092.031,390.362V624.233a7.859,7.859,0,0,1-7.853,7.849H932.317a7.859,7.859,0,0,1-7.852-7.849V390.362a7.86,7.86,0,0,1,7.852-7.853h27.092v4.839H936.34a8.618,8.618,0,0,0-8.617,8.62V618.627a8.617,8.617,0,0,0,8.617,8.617h143.82a8.617,8.617,0,0,0,8.616-8.617V395.968a8.618,8.618,0,0,0-8.616-8.62h-19.825v-4.839h23.844A7.86,7.86,0,0,1,1092.031,390.362Z" transform="translate(-924.465 -382.509)" fill="#3076b6"/>
          </g>
        </g>
      </g>
      <g id="Grupo_1006073" data-name="Grupo 1006073" transform="translate(37.439 13.915)">
        <g id="Grupo_1006072" data-name="Grupo 1006072">
          <path id="Trazado_720322" data-name="Trazado 720322" d="M1181.448,369.045v4.964H1080.522v-4.964a6.85,6.85,0,0,1,6.851-6.855H1174.6a6.85,6.85,0,0,1,6.852,6.855Z" transform="translate(-1080.522 -362.19)" fill="#ffa031"/>
        </g>
      </g>
      <g id="Grupo_1006075" data-name="Grupo 1006075" transform="translate(75.033)">
        <g id="Grupo_1006074" data-name="Grupo 1006074">
          <path id="Trazado_720323" data-name="Trazado 720323" d="M1261.281,300.045a12.868,12.868,0,1,0,12.868,12.867A12.868,12.868,0,0,0,1261.281,300.045Zm0,19.1a6.231,6.231,0,1,1,6.23-6.231A6.23,6.23,0,0,1,1261.281,319.143Z" transform="translate(-1248.413 -300.045)" fill="#ffa031"/>
        </g>
      </g>
      <path id="Trazado_720324" data-name="Trazado 720324" d="M986.612,446.393V500.1h53.711V446.393Zm51.472,51.472H988.851V448.632h49.233Z" transform="translate(-970.202 -413.623)" fill="#e5e6eb"/>
      <g id="Grupo_1006077" data-name="Grupo 1006077" transform="translate(78.541 54.204)">
        <g id="Grupo_1006076" data-name="Grupo 1006076">
          <rect id="Rectángulo_347866" data-name="Rectángulo 347866" width="77.607" height="2.239" fill="#e5e6eb"/>
        </g>
      </g>
      <g id="Grupo_1006079" data-name="Grupo 1006079" transform="translate(78.541 64.134)">
        <g id="Grupo_1006078" data-name="Grupo 1006078">
          <rect id="Rectángulo_347867" data-name="Rectángulo 347867" width="77.607" height="2.239" fill="#e5e6eb"/>
        </g>
      </g>
      <g id="Grupo_1006081" data-name="Grupo 1006081" transform="translate(78.541 44.274)">
        <g id="Grupo_1006080" data-name="Grupo 1006080">
          <rect id="Rectángulo_347868" data-name="Rectángulo 347868" width="77.607" height="2.239" fill="#e5e6eb"/>
        </g>
      </g>
      <g id="Grupo_1006083" data-name="Grupo 1006083" transform="translate(78.541 34.344)">
        <g id="Grupo_1006082" data-name="Grupo 1006082">
          <rect id="Rectángulo_347869" data-name="Rectángulo 347869" width="77.607" height="2.239" fill="#e5e6eb"/>
        </g>
      </g>
      <g id="Grupo_1006085" data-name="Grupo 1006085" transform="translate(78.541 74.064)">
        <g id="Grupo_1006084" data-name="Grupo 1006084">
          <rect id="Rectángulo_347870" data-name="Rectángulo 347870" width="77.607" height="2.239" fill="#e5e6eb"/>
        </g>
      </g>
      <g id="Grupo_1006087" data-name="Grupo 1006087" transform="translate(78.541 83.995)">
        <g id="Grupo_1006086" data-name="Grupo 1006086">
          <rect id="Rectángulo_347871" data-name="Rectángulo 347871" width="52.953" height="2.239" fill="#e5e6eb"/>
        </g>
      </g>
      <g id="Grupo_1006103" data-name="Grupo 1006103" transform="translate(16.41 96.855)">
        <g id="Grupo_1006094" data-name="Grupo 1006094">
          <g id="Grupo_1006090" data-name="Grupo 1006090" transform="translate(0 0.954)">
            <g id="Grupo_1006089" data-name="Grupo 1006089">
              <g id="Grupo_1006088" data-name="Grupo 1006088">
                <path id="Trazado_720325" data-name="Trazado 720325" d="M1008.874,760.325H986.612V736.848h22.262Zm-18.708-3.748h15.154V740.6H990.166Z" transform="translate(-986.612 -736.848)" fill="#e5e6eb"/>
              </g>
            </g>
          </g>
          <g id="Grupo_1006093" data-name="Grupo 1006093" transform="translate(0.537)">
            <g id="Grupo_1006092" data-name="Grupo 1006092">
              <g id="Grupo_1006091" data-name="Grupo 1006091">
                <path id="Trazado_720326" data-name="Trazado 720326" d="M1000.679,755.613l-11.107-8.09a1.363,1.363,0,1,1,1.6-2.2l8.5,6.194,9.086-18.172a1.363,1.363,0,0,1,2.438,1.219Z" transform="translate(-989.011 -732.589)" fill="#ffa031"/>
              </g>
            </g>
          </g>
        </g>
        <g id="Grupo_1006096" data-name="Grupo 1006096" transform="translate(28.792 1.373)">
          <g id="Grupo_1006095" data-name="Grupo 1006095">
            <rect id="Rectángulo_347872" data-name="Rectángulo 347872" width="57.215" height="2.239" fill="#84a9ff"/>
          </g>
        </g>
        <g id="Grupo_1006098" data-name="Grupo 1006098" transform="translate(28.792 11.303)">
          <g id="Grupo_1006097" data-name="Grupo 1006097">
            <rect id="Rectángulo_347873" data-name="Rectángulo 347873" width="110.946" height="2.239" fill="#e5e6eb"/>
          </g>
        </g>
        <g id="Grupo_1006100" data-name="Grupo 1006100" transform="translate(28.792 21.234)">
          <g id="Grupo_1006099" data-name="Grupo 1006099">
            <rect id="Rectángulo_347874" data-name="Rectángulo 347874" width="110.946" height="2.239" fill="#e5e6eb"/>
          </g>
        </g>
        <g id="Grupo_1006102" data-name="Grupo 1006102" transform="translate(28.792 31.164)">
          <g id="Grupo_1006101" data-name="Grupo 1006101">
            <rect id="Rectángulo_347875" data-name="Rectángulo 347875" width="83.033" height="2.239" fill="#e5e6eb"/>
          </g>
        </g>
      </g>
      <g id="Grupo_1006119" data-name="Grupo 1006119" transform="translate(16.41 139.512)">
        <g id="Grupo_1006110" data-name="Grupo 1006110">
          <g id="Grupo_1006106" data-name="Grupo 1006106" transform="translate(0 0.954)">
            <g id="Grupo_1006105" data-name="Grupo 1006105">
              <g id="Grupo_1006104" data-name="Grupo 1006104">
                <path id="Trazado_720327" data-name="Trazado 720327" d="M1008.874,950.827H986.612V927.35h22.262Zm-18.708-3.747h15.154V931.1H990.166Z" transform="translate(-986.612 -927.35)" fill="#e5e6eb"/>
              </g>
            </g>
          </g>
          <g id="Grupo_1006109" data-name="Grupo 1006109" transform="translate(0.537)">
            <g id="Grupo_1006108" data-name="Grupo 1006108">
              <g id="Grupo_1006107" data-name="Grupo 1006107">
                <path id="Trazado_720328" data-name="Trazado 720328" d="M1000.679,946.115l-11.107-8.089a1.363,1.363,0,1,1,1.6-2.2l8.5,6.194,9.086-18.172a1.363,1.363,0,0,1,2.438,1.219Z" transform="translate(-989.011 -923.091)" fill="#ffa031"/>
              </g>
            </g>
          </g>
        </g>
        <g id="Grupo_1006112" data-name="Grupo 1006112" transform="translate(28.792 1.373)">
          <g id="Grupo_1006111" data-name="Grupo 1006111">
            <rect id="Rectángulo_347876" data-name="Rectángulo 347876" width="97.572" height="2.239" fill="#84a9ff"/>
          </g>
        </g>
        <g id="Grupo_1006114" data-name="Grupo 1006114" transform="translate(28.792 11.303)">
          <g id="Grupo_1006113" data-name="Grupo 1006113">
            <rect id="Rectángulo_347877" data-name="Rectángulo 347877" width="110.946" height="2.239" fill="#e5e6eb"/>
          </g>
        </g>
        <g id="Grupo_1006116" data-name="Grupo 1006116" transform="translate(28.792 21.234)">
          <g id="Grupo_1006115" data-name="Grupo 1006115">
            <rect id="Rectángulo_347878" data-name="Rectángulo 347878" width="110.946" height="2.239" fill="#e5e6eb"/>
          </g>
        </g>
        <g id="Grupo_1006118" data-name="Grupo 1006118" transform="translate(28.792 31.164)">
          <g id="Grupo_1006117" data-name="Grupo 1006117">
            <rect id="Rectángulo_347879" data-name="Rectángulo 347879" width="61.225" height="2.239" fill="#e5e6eb"/>
          </g>
        </g>
      </g>
      <g id="Grupo_1006135" data-name="Grupo 1006135" transform="translate(16.41 182.169)">
        <g id="Grupo_1006126" data-name="Grupo 1006126">
          <g id="Grupo_1006122" data-name="Grupo 1006122" transform="translate(0 0.954)">
            <g id="Grupo_1006121" data-name="Grupo 1006121">
              <g id="Grupo_1006120" data-name="Grupo 1006120">
                <path id="Trazado_720329" data-name="Trazado 720329" d="M1008.874,1141.329H986.612v-23.477h22.262Zm-18.708-3.747h15.154V1121.6H990.166Z" transform="translate(-986.612 -1117.852)" fill="#e5e6eb"/>
              </g>
            </g>
          </g>
          <g id="Grupo_1006125" data-name="Grupo 1006125" transform="translate(0.537)">
            <g id="Grupo_1006124" data-name="Grupo 1006124">
              <g id="Grupo_1006123" data-name="Grupo 1006123">
                <path id="Trazado_720330" data-name="Trazado 720330" d="M1000.679,1136.617l-11.107-8.089a1.363,1.363,0,1,1,1.6-2.2l8.5,6.194,9.086-18.172a1.363,1.363,0,0,1,2.438,1.219Z" transform="translate(-989.011 -1113.593)" fill="#ffa031"/>
              </g>
            </g>
          </g>
        </g>
        <g id="Grupo_1006128" data-name="Grupo 1006128" transform="translate(28.792 1.373)">
          <g id="Grupo_1006127" data-name="Grupo 1006127">
            <rect id="Rectángulo_347880" data-name="Rectángulo 347880" width="97.572" height="2.239" fill="#84a9ff"/>
          </g>
        </g>
        <g id="Grupo_1006130" data-name="Grupo 1006130" transform="translate(28.792 11.303)">
          <g id="Grupo_1006129" data-name="Grupo 1006129">
            <rect id="Rectángulo_347881" data-name="Rectángulo 347881" width="110.946" height="2.239" fill="#e5e6eb"/>
          </g>
        </g>
        <g id="Grupo_1006132" data-name="Grupo 1006132" transform="translate(28.792 21.234)">
          <g id="Grupo_1006131" data-name="Grupo 1006131">
            <rect id="Rectángulo_347882" data-name="Rectángulo 347882" width="110.946" height="2.239" fill="#e5e6eb"/>
          </g>
        </g>
        <g id="Grupo_1006134" data-name="Grupo 1006134" transform="translate(28.792 31.164)">
          <g id="Grupo_1006133" data-name="Grupo 1006133">
            <rect id="Rectángulo_347883" data-name="Rectángulo 347883" width="61.225" height="2.239" fill="#e5e6eb"/>
          </g>
        </g>
      </g>
      <g id="Grupo_1006151" data-name="Grupo 1006151" transform="translate(16.41 224.826)">
        <g id="Grupo_1006142" data-name="Grupo 1006142">
          <g id="Grupo_1006138" data-name="Grupo 1006138" transform="translate(0 0.954)">
            <g id="Grupo_1006137" data-name="Grupo 1006137">
              <g id="Grupo_1006136" data-name="Grupo 1006136">
                <path id="Trazado_720331" data-name="Trazado 720331" d="M1008.874,1331.83H986.612v-23.477h22.262Zm-18.708-3.747h15.154V1312.1H990.166Z" transform="translate(-986.612 -1308.353)" fill="#e5e6eb"/>
              </g>
            </g>
          </g>
          <g id="Grupo_1006141" data-name="Grupo 1006141" transform="translate(0.537)">
            <g id="Grupo_1006140" data-name="Grupo 1006140">
              <g id="Grupo_1006139" data-name="Grupo 1006139">
                <path id="Trazado_720332" data-name="Trazado 720332" d="M1000.679,1327.119l-11.107-8.089a1.363,1.363,0,1,1,1.6-2.2l8.5,6.194,9.086-18.172a1.363,1.363,0,1,1,2.438,1.219Z" transform="translate(-989.011 -1304.095)" fill="#ffa031"/>
              </g>
            </g>
          </g>
        </g>
        <g id="Grupo_1006144" data-name="Grupo 1006144" transform="translate(28.792 1.373)">
          <g id="Grupo_1006143" data-name="Grupo 1006143">
            <rect id="Rectángulo_347884" data-name="Rectángulo 347884" width="97.572" height="2.239" fill="#84a9ff"/>
          </g>
        </g>
        <g id="Grupo_1006146" data-name="Grupo 1006146" transform="translate(28.792 11.303)">
          <g id="Grupo_1006145" data-name="Grupo 1006145">
            <rect id="Rectángulo_347885" data-name="Rectángulo 347885" width="110.946" height="2.239" fill="#e5e6eb"/>
          </g>
        </g>
        <g id="Grupo_1006148" data-name="Grupo 1006148" transform="translate(28.792 21.234)">
          <g id="Grupo_1006147" data-name="Grupo 1006147">
            <rect id="Rectángulo_347886" data-name="Rectángulo 347886" width="110.946" height="2.239" fill="#e5e6eb"/>
          </g>
        </g>
        <g id="Grupo_1006150" data-name="Grupo 1006150" transform="translate(28.792 31.164)">
          <g id="Grupo_1006149" data-name="Grupo 1006149">
            <rect id="Rectángulo_347887" data-name="Rectángulo 347887" width="61.225" height="2.239" fill="#e5e6eb"/>
          </g>
        </g>
      </g>
      <g id="Grupo_1006160" data-name="Grupo 1006160" transform="translate(25.176 38.765)">
        <g id="Grupo_1006153" data-name="Grupo 1006153" transform="translate(0 18.489)">
          <g id="Grupo_1006152" data-name="Grupo 1006152">
            <path id="Trazado_720333" data-name="Trazado 720333" d="M1061.939,582.723H1025.76V563.37l17.4-7.635,18.784,7.635Z" transform="translate(-1025.76 -555.735)" fill="#155bcd"/>
          </g>
        </g>
        <g id="Grupo_1006155" data-name="Grupo 1006155" transform="translate(8.767)">
          <g id="Grupo_1006154" data-name="Grupo 1006154">
            <ellipse id="Elipse_8596" data-name="Elipse 8596" cx="9.322" cy="10.653" rx="9.322" ry="10.653" fill="#050f64"/>
          </g>
        </g>
        <g id="Grupo_1006157" data-name="Grupo 1006157" transform="translate(10.374 5.13)">
          <g id="Grupo_1006156" data-name="Grupo 1006156">
            <path id="Trazado_720334" data-name="Trazado 720334" d="M1086.418,498.121v-2.047h-13.227v2.047a1.1,1.1,0,0,0-1.1,1.1v4.094a1.1,1.1,0,0,0,1.1,1.1v1.1a6.58,6.58,0,0,0,1.417,4.082v4.683a5.2,5.2,0,0,0,10.393,0V509.6a6.579,6.579,0,0,0,1.417-4.082v-1.1a1.1,1.1,0,0,0,1.1-1.1v-4.094A1.1,1.1,0,0,0,1086.418,498.121Z" transform="translate(-1072.089 -496.074)" fill="#f5bdc8"/>
          </g>
        </g>
        <g id="Grupo_1006159" data-name="Grupo 1006159" transform="translate(9.43 0.438)">
          <g id="Grupo_1006158" data-name="Grupo 1006158">
            <path id="Trazado_720335" data-name="Trazado 720335" d="M1076.533,475.12a7.785,7.785,0,0,0-3.614.928l-.025.012-.048.026-.019.01c-1.654.873-3.036,1.956-3.2,4.454-.007.1-.006.2-.01.3a2.441,2.441,0,0,0-.695.721,6.58,6.58,0,0,0-.569,6.028,7.672,7.672,0,0,1,.432,1.107,1.446,1.446,0,0,1-.141,1.147,4.135,4.135,0,0,0,2.125-2.981,5.951,5.951,0,0,1,.418,2.1,4.717,4.717,0,0,1-1.089,2.721,14.049,14.049,0,0,1-2.146,2.062,8.521,8.521,0,0,0,5.054-4.927,17.771,17.771,0,0,0,.848-4.329,21.779,21.779,0,0,1,.455-2.785,16.637,16.637,0,0,0,2.222.146,12.786,12.786,0,0,0,5.122-.923,3.245,3.245,0,0,0,1.491.925l.765-2.283C1083.913,479.553,1080.186,475.12,1076.533,475.12Z" transform="translate(-1067.874 -475.12)" fill="#050f64"/>
          </g>
        </g>
      </g>
      <g id="Grupo_1006162" data-name="Grupo 1006162" transform="translate(61.355 64.889)">
        <g id="Grupo_1006161" data-name="Grupo 1006161">
          <path id="Trazado_720336" data-name="Trazado 720336" d="M1187.332,589.832s6.212,11.9,6.527,19.353h-6.527Z" transform="translate(-1187.332 -589.832)" fill="#155bcd"/>
        </g>
      </g>
      <g id="Grupo_1006164" data-name="Grupo 1006164" transform="translate(18.65 64.889)">
        <g id="Grupo_1006163" data-name="Grupo 1006163">
          <path id="Trazado_720337" data-name="Trazado 720337" d="M1003.139,589.832s-6.212,11.9-6.527,19.353h6.527Z" transform="translate(-996.612 -589.832)" fill="#155bcd"/>
        </g>
      </g>
    </g>
    <g id="Grupo_1006266" data-name="Grupo 1006266" transform="translate(112.536 350.969)">
      <g id="Grupo_1006168" data-name="Grupo 1006168" transform="translate(46.304 213.174)">
        <g id="Grupo_1006167" data-name="Grupo 1006167">
          <g id="Grupo_1006166" data-name="Grupo 1006166">
            <path id="Trazado_720338" data-name="Trazado 720338" d="M319.357,1485.915h21.214a3.266,3.266,0,0,0-.6-1.988,3.36,3.36,0,0,0-2.126-1.132,20.342,20.342,0,0,0-2.462-.143,13.033,13.033,0,0,1-5.755-1.667,19.481,19.481,0,0,0-2.764-1.508l-5.782.151a6.625,6.625,0,0,0-1.545,3.117A11.668,11.668,0,0,0,319.357,1485.915Z" transform="translate(-319.326 -1479.478)" fill="#050f64"/>
          </g>
        </g>
      </g>
      <g id="Grupo_1006170" data-name="Grupo 1006170" transform="translate(3.833 150.246)">
        <g id="Grupo_1006169" data-name="Grupo 1006169" transform="translate(0 0)">
          <path id="Trazado_720339" data-name="Trazado 720339" d="M129.654,1199.207l4.883,62.337,7.155-.188,7.743-62.908Z" transform="translate(-129.654 -1198.447)" fill="#3076b6"/>
        </g>
      </g>
      <g id="Grupo_1006172" data-name="Grupo 1006172" transform="translate(35.978 149.026)">
        <g id="Grupo_1006171" data-name="Grupo 1006171" transform="translate(0 0)">
          <path id="Trazado_720340" data-name="Trazado 720340" d="M273.211,1193.747l11.679,63.4h6.9l.933-64.148h0Z" transform="translate(-273.211 -1192.999)" fill="#3076b6"/>
        </g>
      </g>
      <g id="Grupo_1006175" data-name="Grupo 1006175" transform="translate(7.617 213.173)">
        <g id="Grupo_1006174" data-name="Grupo 1006174">
          <g id="Grupo_1006173" data-name="Grupo 1006173">
            <path id="Trazado_720341" data-name="Trazado 720341" d="M146.584,1485.913H167.8a3.265,3.265,0,0,0-.6-1.988,3.359,3.359,0,0,0-2.126-1.132,20.345,20.345,0,0,0-2.462-.143,13.033,13.033,0,0,1-5.755-1.667,19.519,19.519,0,0,0-2.764-1.508l-5.782.152a6.621,6.621,0,0,0-1.545,3.117A11.668,11.668,0,0,0,146.584,1485.913Z" transform="translate(-146.553 -1479.476)" fill="#050f64"/>
          </g>
        </g>
      </g>
      <g id="Grupo_1006183" data-name="Grupo 1006183" transform="translate(29.621 32.081)">
        <g id="Grupo_1006179" data-name="Grupo 1006179" transform="translate(1.107 0.949)">
          <g id="Grupo_1006178" data-name="Grupo 1006178">
            <g id="Grupo_1006177" data-name="Grupo 1006177">
              <g id="Grupo_1006176" data-name="Grupo 1006176">
                <path id="Trazado_720342" data-name="Trazado 720342" d="M323.6,712.355a2.123,2.123,0,0,1-1.335,2.613c-1.582.588-3.195,1.113-4.8,1.658l-2.439.762c-.81.263-1.643.474-2.466.714a75.828,75.828,0,0,1-10.219,2.163,43.554,43.554,0,0,1-10.931.165,34.031,34.031,0,0,1-10.981-3.209,43.893,43.893,0,0,1-9.393-6.329,75.287,75.287,0,0,1-7.624-7.745c-2.336-2.692-4.456-5.465-6.52-8.254s-4-5.614-5.928-8.442a7.409,7.409,0,0,1,2.595-10.511h0a7.5,7.5,0,0,1,10.3,2.983c1.46,2.912,2.929,5.82,4.48,8.626s3.136,5.581,4.849,8.185c3.415,5.218,7.231,9.951,11.926,13.1a25,25,0,0,0,7.765,3.453,35.891,35.891,0,0,0,8.987,1.051,69.545,69.545,0,0,0,9.546-.73c.8-.123,1.61-.214,2.415-.362l2.419-.415c1.611-.318,3.228-.614,4.84-.979A2.156,2.156,0,0,1,323.6,712.355Z" transform="translate(-249.762 -674.975)" fill="#ea8096"/>
              </g>
            </g>
          </g>
        </g>
        <g id="Grupo_1006182" data-name="Grupo 1006182">
          <g id="Grupo_1006181" data-name="Grupo 1006181">
            <g id="Grupo_1006180" data-name="Grupo 1006180">
              <path id="Trazado_720343" data-name="Trazado 720343" d="M257.463,703.778l-10.75-16.449c-3.252-4.975-2.293-11.561,2.683-14.812h0a11.267,11.267,0,0,1,15.335,3.037L275.48,692Z" transform="translate(-244.818 -670.737)" fill="#fff"/>
            </g>
          </g>
        </g>
      </g>
      <g id="Grupo_1006185" data-name="Grupo 1006185" transform="translate(0.569 27.378)">
        <g id="Grupo_1006184" data-name="Grupo 1006184">
          <path id="Trazado_720344" data-name="Trazado 720344" d="M115.075,723.883l.859,49.568,2.406-.091,19.781-.759,6.131-.233.566-.023,5.667-.216L170,771.382h0l1.433-.054-9.27-46.472.264-22.966.219-18.834.06-5.329v-.006l.054-4.467v-.006l0-.236.006-.566.026-2.252c.011-.4.011-.791,0-1.183v0a19.882,19.882,0,0,0-15.419-18.78c-.077-.017-.153-.034-.23-.048a19.724,19.724,0,0,0-4.183-.446c-.364,0-.734.011-1.1.031h-.017a24.616,24.616,0,0,0-3.694.489,24.362,24.362,0,0,0-19.275,22.357Z" transform="translate(-115.075 -649.734)" fill="#fff"/>
        </g>
      </g>
      <g id="Grupo_1006188" data-name="Grupo 1006188" transform="translate(0 26.808)">
        <g id="Grupo_1006187" data-name="Grupo 1006187">
          <g id="Grupo_1006186" data-name="Grupo 1006186">
            <path id="Trazado_720345" data-name="Trazado 720345" d="M128.1,650.922l.4.415a24.166,24.166,0,0,1,7.681-3.06,24.623,24.623,0,0,1,3.694-.489h.017c.37-.02.739-.031,1.1-.031a19.557,19.557,0,0,1,3.387.293c.051-.182.108-.367.162-.546a19.918,19.918,0,0,0-3.549-.316c-.352,0-.728.011-1.118.034h-.034a24.994,24.994,0,0,0-3.779.5A24.676,24.676,0,0,0,128.1,650.922Zm32.267,57.025.569.111.094-8.136.219-18.834.06-5.329.054-4.376-.569-.128v.023l-.054,4.467v.006l-.06,5.329-.219,18.834Zm-47.478,34.062.52,30.058,2.983-.114,19.784-.759,6.131-.233.566-.023,18.157-.694-.054-.569-12.458.478-5.667.216-.566.023-6.131.233-19.781.759-2.406.091-.512-29.546Zm-.35-20.116.105,6.02.566-.088-.1-5.918,1.9-25.59-.569-.043Zm3.8-51.292-1.064,14.352h.572l1.061-14.318a24.275,24.275,0,0,1,5.594-14.1l-.56-.2A24.879,24.879,0,0,0,116.335,670.6Zm43.858,52.278,7.908,39.647.537-.213-7.877-39.485.077-6.6-.569-.131ZM151.057,650.5a19.913,19.913,0,0,1,9.543,14.068h.575a20.464,20.464,0,0,0-7.069-12.6,20.082,20.082,0,0,0-2.872-2.016Z" transform="translate(-112.536 -647.188)" fill="#84a9ff"/>
          </g>
        </g>
      </g>
      <g id="Grupo_1006191" data-name="Grupo 1006191" transform="translate(23.143 34.889)">
        <g id="Grupo_1006190" data-name="Grupo 1006190">
          <g id="Grupo_1006189" data-name="Grupo 1006189">
            <path id="Trazado_720346" data-name="Trazado 720346" d="M225.131,683.866a18.839,18.839,0,0,1-2.617,14.906s-7.309-6.756-6.573-15.494C215.941,683.278,220.885,686.986,225.131,683.866Z" transform="translate(-215.889 -683.278)" fill="#155bcc"/>
          </g>
        </g>
      </g>
      <g id="Grupo_1006194" data-name="Grupo 1006194" transform="translate(26.765 48.535)">
        <g id="Grupo_1006193" data-name="Grupo 1006193">
          <g id="Grupo_1006192" data-name="Grupo 1006192">
            <path id="Trazado_720347" data-name="Trazado 720347" d="M232.612,815.456l2.434,30.24.566-.023-2.434-30.262a169.208,169.208,0,0,1-.105-25.721l2.281-45.442-.569-.029-2.278,45.434A169.533,169.533,0,0,0,232.612,815.456Z" transform="translate(-232.066 -744.219)" fill="#155bcc"/>
          </g>
        </g>
      </g>
      <g id="Grupo_1006230" data-name="Grupo 1006230" transform="translate(21.141 30.412)">
        <g id="Grupo_1006221" data-name="Grupo 1006221" transform="translate(10.489 10.889)">
          <g id="Grupo_1006199" data-name="Grupo 1006199">
            <g id="Grupo_1006198" data-name="Grupo 1006198">
              <g id="Grupo_1006197" data-name="Grupo 1006197">
                <g id="Grupo_1006196" data-name="Grupo 1006196">
                  <g id="Grupo_1006195" data-name="Grupo 1006195">
                    <path id="Trazado_720348" data-name="Trazado 720348" d="M263.171,711.944a8.689,8.689,0,0,0-9.382,7.913l2.2.187a6.472,6.472,0,1,1,12.9,1.1l2.2.187A8.689,8.689,0,0,0,263.171,711.944Z" transform="translate(-253.789 -711.912)" fill="#83a8ff"/>
                  </g>
                </g>
              </g>
            </g>
          </g>
          <g id="Grupo_1006210" data-name="Grupo 1006210" transform="translate(0.587 7.586)">
            <g id="Grupo_1006204" data-name="Grupo 1006204">
              <g id="Grupo_1006203" data-name="Grupo 1006203">
                <g id="Grupo_1006202" data-name="Grupo 1006202">
                  <g id="Grupo_1006201" data-name="Grupo 1006201">
                    <g id="Grupo_1006200" data-name="Grupo 1006200">
                      <path id="Trazado_720349" data-name="Trazado 720349" d="M256.41,745.893c.053.458,1.358,11.256,6.562,14.961a6.413,6.413,0,0,0,5.308,1.053l-.191-.862a5.564,5.564,0,0,1-4.605-.91c-4.887-3.48-6.184-14.235-6.2-14.344Z" transform="translate(-256.41 -745.792)" fill="#050f64"/>
                    </g>
                  </g>
                </g>
              </g>
            </g>
            <g id="Grupo_1006209" data-name="Grupo 1006209" transform="translate(10.45 14.36)">
              <g id="Grupo_1006208" data-name="Grupo 1006208">
                <g id="Grupo_1006207" data-name="Grupo 1006207">
                  <g id="Grupo_1006206" data-name="Grupo 1006206">
                    <g id="Grupo_1006205" data-name="Grupo 1006205">
                      <path id="Trazado_720350" data-name="Trazado 720350" d="M305.7,810.961a1.324,1.324,0,1,0-1.007,1.579A1.324,1.324,0,0,0,305.7,810.961Z" transform="translate(-303.078 -809.923)" fill="#050f64"/>
                    </g>
                  </g>
                </g>
              </g>
            </g>
          </g>
          <g id="Grupo_1006215" data-name="Grupo 1006215" transform="translate(3.717 8.65)">
            <g id="Grupo_1006214" data-name="Grupo 1006214">
              <g id="Grupo_1006213" data-name="Grupo 1006213">
                <g id="Grupo_1006212" data-name="Grupo 1006212">
                  <g id="Grupo_1006211" data-name="Grupo 1006211">
                    <path id="Trazado_720351" data-name="Trazado 720351" d="M283.467,750.713c-.089.452-2.228,11.116-7.7,14.407a6.413,6.413,0,0,1-5.373.638l.257-.844a5.566,5.566,0,0,0,4.662-.55c5.142-3.091,7.27-13.713,7.291-13.82Z" transform="translate(-270.39 -750.544)" fill="#050f64"/>
                  </g>
                </g>
              </g>
            </g>
          </g>
          <g id="Grupo_1006220" data-name="Grupo 1006220" transform="translate(2.471 22.713)">
            <g id="Grupo_1006219" data-name="Grupo 1006219">
              <g id="Grupo_1006218" data-name="Grupo 1006218">
                <g id="Grupo_1006217" data-name="Grupo 1006217">
                  <g id="Grupo_1006216" data-name="Grupo 1006216">
                    <path id="Trazado_720352" data-name="Trazado 720352" d="M264.881,814.283a1.324,1.324,0,1,1,.881,1.652A1.324,1.324,0,0,1,264.881,814.283Z" transform="translate(-264.823 -813.344)" fill="#050f64"/>
                  </g>
                </g>
              </g>
            </g>
          </g>
        </g>
        <g id="Grupo_1006224" data-name="Grupo 1006224">
          <g id="Grupo_1006223" data-name="Grupo 1006223">
            <g id="Grupo_1006222" data-name="Grupo 1006222">
              <path id="Trazado_720353" data-name="Trazado 720353" d="M218.531,708.542a53.372,53.372,0,0,0,.364-9.949,56.144,56.144,0,0,0-4.634-20.972,23.192,23.192,0,0,0-1.8-2.88c-2.59-3.776-4.745-7.29-2.695-8.8,2.031-1.5,6.95-.209,9.574,1.257a11.633,11.633,0,0,1,5.776,8.627l1.976-.238a13.656,13.656,0,0,0-6.781-10.127c-2.46-1.374-8.564-3.456-11.727-1.121-3.767,2.782-.154,8.047,2.236,11.531a22.9,22.9,0,0,1,1.639,2.589,54.183,54.183,0,0,1,4.452,20.229,51.449,51.449,0,0,1-.346,9.579Z" transform="translate(-206.948 -663.284)" fill="#83a8ff"/>
            </g>
          </g>
        </g>
        <g id="Grupo_1006229" data-name="Grupo 1006229" transform="translate(7.634 42.156)">
          <g id="Grupo_1006226" data-name="Grupo 1006226" transform="translate(0 0)">
            <g id="Grupo_1006225" data-name="Grupo 1006225">
              <circle id="Elipse_8597" data-name="Elipse 8597" cx="2.209" cy="2.209" r="2.209" transform="matrix(0.894, -0.448, 0.448, 0.894, 0, 1.977)" fill="#83a8ff"/>
            </g>
          </g>
          <g id="Grupo_1006228" data-name="Grupo 1006228" transform="translate(0.328 0.327)">
            <g id="Grupo_1006227" data-name="Grupo 1006227">
              <path id="Trazado_720354" data-name="Trazado 720354" d="M242.563,856.181h0a2.633,2.633,0,1,1,2.58,2.1A2.639,2.639,0,0,1,242.563,856.181Zm2.219-2.28a1.784,1.784,0,0,0-1.383,2.107h0a1.786,1.786,0,1,0,1.383-2.107Z" transform="translate(-242.507 -853.009)" fill="#050f64"/>
            </g>
          </g>
        </g>
      </g>
      <g id="Grupo_1006254" data-name="Grupo 1006254" transform="translate(17.47)">
        <g id="Grupo_1006240" data-name="Grupo 1006240" transform="translate(4.009 4.353)">
          <g id="Grupo_1006233" data-name="Grupo 1006233" transform="translate(1.715 16.432)">
            <g id="Grupo_1006232" data-name="Grupo 1006232">
              <g id="Grupo_1006231" data-name="Grupo 1006231">
                <path id="Trazado_720355" data-name="Trazado 720355" d="M226.214,620.877l-.9,14.1a7.836,7.836,0,0,1-9.19-.588l.9-14.1Z" transform="translate(-216.121 -620.289)" fill="#f4bcc7"/>
              </g>
            </g>
          </g>
          <g id="Grupo_1006236" data-name="Grupo 1006236" transform="translate(2.375 16.432)">
            <g id="Grupo_1006235" data-name="Grupo 1006235">
              <g id="Grupo_1006234" data-name="Grupo 1006234">
                <path id="Trazado_720356" data-name="Trazado 720356" d="M228.5,620.877l-.408,6.38a7.469,7.469,0,0,1-2.088.34q-.349.005-.7-.017a8.282,8.282,0,0,1-6.24-3.506l.242-3.785Z" transform="translate(-219.069 -620.289)" fill="#ea8096"/>
              </g>
            </g>
          </g>
          <g id="Grupo_1006239" data-name="Grupo 1006239">
            <g id="Grupo_1006238" data-name="Grupo 1006238">
              <g id="Grupo_1006237" data-name="Grupo 1006237">
                <path id="Trazado_720357" data-name="Trazado 720357" d="M225,555.565l-.844,8.258a6.562,6.562,0,0,1-6.4,5.893h0a7.3,7.3,0,0,1-6.914-4.514,55.793,55.793,0,0,1-2.015-6.216,9.988,9.988,0,0,1,2.767-9.978A8.046,8.046,0,0,1,225,555.565Z" transform="translate(-208.46 -546.904)" fill="#f4bcc7"/>
              </g>
            </g>
          </g>
        </g>
        <g id="Grupo_1006250" data-name="Grupo 1006250">
          <g id="Grupo_1006243" data-name="Grupo 1006243" transform="translate(19.021 7.291)">
            <g id="Grupo_1006242" data-name="Grupo 1006242">
              <g id="Grupo_1006241" data-name="Grupo 1006241">
                <path id="Trazado_720358" data-name="Trazado 720358" d="M275.5,561.262s1.517,2.8,1.178,7.875c0,0,1.206-5.077.368-9.113Z" transform="translate(-275.504 -560.025)" fill="#050f64"/>
              </g>
            </g>
          </g>
          <g id="Grupo_1006246" data-name="Grupo 1006246">
            <g id="Grupo_1006245" data-name="Grupo 1006245">
              <g id="Grupo_1006244" data-name="Grupo 1006244">
                <path id="Trazado_720359" data-name="Trazado 720359" d="M193.845,545.435s-6.249-8.378-1.516-13.457c5.1-5.474,8.411-4.847,11.965-3.837,4.5,1.278,6.906,2.876,8.635,2.525.925-.188,1.748-.96,1.892-.432a6.639,6.639,0,0,1-2.277,5.924c-2.628,2.288-6.015,1.9-9.326.133s-4.887-1.569-6.3.473c-1.5,2.166.474,6.162.474,6.162l-1.028.36S194.391,542.624,193.845,545.435Z" transform="translate(-190.557 -527.466)" fill="#050f64"/>
              </g>
            </g>
          </g>
          <g id="Grupo_1006249" data-name="Grupo 1006249" transform="translate(1.632 12.287)">
            <g id="Grupo_1006248" data-name="Grupo 1006248">
              <g id="Grupo_1006247" data-name="Grupo 1006247">
                <path id="Trazado_720360" data-name="Trazado 720360" d="M216.839,585.905a2.775,2.775,0,0,0-5.326-1.473,2.7,2.7,0,0,0-.09.286l-1.19-.161h0l-.064-.014a2.775,2.775,0,0,0-5.313-.409.888.888,0,0,0-.053.137l-6.959,1.048.045.3,6.841-1.03a2.774,2.774,0,0,0,5.443,1.077,2.815,2.815,0,0,0,.049-.37q0-.066.005-.132l1.109.15a2.825,2.825,0,0,0,.009.346h0a2.775,2.775,0,0,0,.308,1.042l.028.051a2.775,2.775,0,0,0,4.377.636c.063-.062.122-.126.179-.193a2.775,2.775,0,0,0,.593-1.233C216.832,585.942,216.836,585.923,216.839,585.905Zm-7.222.421a2.481,2.481,0,0,1-4.527-1.969c0-.01.006-.019.009-.028a2.446,2.446,0,0,1,.345-.674,2.482,2.482,0,0,1,4.408.822,2.452,2.452,0,0,1,.062.319,2.407,2.407,0,0,1,.017.421,2.493,2.493,0,0,1-.315,1.109Zm6.656.3a2.482,2.482,0,0,1-4.577-.635,2.382,2.382,0,0,1-.051-.291l0-.534c0-.042.009-.084.016-.126s.013-.081.021-.121c.012-.059.026-.118.043-.175.008-.029.017-.058.026-.087,0-.01.006-.019.009-.028a2.44,2.44,0,0,1,.345-.674,2.482,2.482,0,0,1,4.408.822,2.456,2.456,0,0,1,.063.319c.008.066.014.131.017.2s0,.148,0,.222a2.476,2.476,0,0,1-.047.387v.007A2.466,2.466,0,0,1,216.273,586.624Z" transform="translate(-197.844 -582.337)" fill="#36373c"/>
              </g>
            </g>
          </g>
        </g>
        <g id="Grupo_1006253" data-name="Grupo 1006253" transform="translate(1.04 12.626)">
          <g id="Grupo_1006252" data-name="Grupo 1006252">
            <g id="Grupo_1006251" data-name="Grupo 1006251">
              <path id="Trazado_720361" data-name="Trazado 720361" d="M202.094,587.147a3.474,3.474,0,1,1-3.247-3.284A3.277,3.277,0,0,1,202.094,587.147Z" transform="translate(-195.202 -583.854)" fill="#f4bcc7"/>
            </g>
          </g>
        </g>
      </g>
      <g id="Grupo_1006256" data-name="Grupo 1006256" transform="translate(44.952 50.34)">
        <g id="Grupo_1006255" data-name="Grupo 1006255">
          <path id="Trazado_720362" data-name="Trazado 720362" d="M313.285,797.389h34.827l14.326-45.112H327.611Z" transform="translate(-313.285 -752.277)" fill="#3076b6"/>
        </g>
      </g>
      <g id="Grupo_1006265" data-name="Grupo 1006265" transform="translate(5.396 38.703)">
        <g id="Grupo_1006260" data-name="Grupo 1006260" transform="translate(0.989 2.355)">
          <g id="Grupo_1006259" data-name="Grupo 1006259">
            <g id="Grupo_1006258" data-name="Grupo 1006258">
              <g id="Grupo_1006257" data-name="Grupo 1006257">
                <path id="Trazado_720363" data-name="Trazado 720363" d="M216.663,754.7a2.008,2.008,0,0,1-1.929,2.229,47.883,47.883,0,0,1-10.158-.623,75.834,75.834,0,0,1-9.8-2.309c-.8-.255-1.607-.485-2.395-.763l-2.373-.825-2.345-.894c-.785-.294-1.545-.634-2.321-.95l-1.159-.484-1.141-.514c-.759-.347-1.526-.684-2.281-1.041-1.493-.739-3.014-1.446-4.478-2.24A181.375,181.375,0,0,1,143.448,723.7a7.326,7.326,0,0,1-1.049-1.131,6.868,6.868,0,0,1-.74-1.3,7.256,7.256,0,0,1-.608-2.844,7.377,7.377,0,0,1,2.274-5.369h0a7.844,7.844,0,0,1,5.4-2.234,7.032,7.032,0,0,1,2.754.53,6.865,6.865,0,0,1,1.238.677,6.5,6.5,0,0,1,1.107.933,169.355,169.355,0,0,0,27.46,25.118c1.25.923,2.547,1.756,3.828,2.631.648.423,1.3.827,1.958,1.243l.983.619,1,.588c.667.386,1.326.8,2,1.166l2.03,1.117,2.06,1.054c.687.356,1.389.663,2.086,1a69.687,69.687,0,0,0,8.6,3.334,43.181,43.181,0,0,0,8.909,1.813,2.247,2.247,0,0,1,1.927,2.051Z" transform="translate(-141.051 -710.826)" fill="#f4bcc7"/>
              </g>
            </g>
          </g>
        </g>
        <g id="Grupo_1006262" data-name="Grupo 1006262" transform="translate(0.568 0.569)">
          <g id="Grupo_1006261" data-name="Grupo 1006261">
            <path id="Trazado_720364" data-name="Trazado 720364" d="M158.351,734.386l-15.079-12.6c-4.561-3.811-5.564-10.389-1.753-14.951h0a11.267,11.267,0,0,1,15.554-1.567l15.079,12.6Z" transform="translate(-139.171 -702.85)" fill="#fff"/>
          </g>
        </g>
        <g id="Grupo_1006264" data-name="Grupo 1006264">
          <g id="Grupo_1006263" data-name="Grupo 1006263">
            <path id="Trazado_720365" data-name="Trazado 720365" d="M160.212,707.568l8.045,6.723.367-.438-8.068-6.74ZM136.723,712.7a11.7,11.7,0,0,0,3.515,6.924l.455-.35a10.716,10.716,0,0,1-2.733-11.784l-.495-.29A10.547,10.547,0,0,0,136.723,712.7Zm11.528-12.384a12.179,12.179,0,0,0-7.115,2.3l.372.43a11.372,11.372,0,0,1,12.106-.773l.4-.427A11.4,11.4,0,0,0,148.252,700.311Zm-2.374,23.33-.33.466,10.906,9.109,4.9-5.867-.5-.282-4.47,5.349Zm23.5-6.785-5.3,6.344.56.213,5.167-6.182C169.67,717.111,169.528,716.984,169.38,716.855Z" transform="translate(-136.634 -700.311)" fill="#84a9ff"/>
          </g>
        </g>
      </g>
    </g>
    <g id="Grupo_1006292" data-name="Grupo 1006292" transform="translate(180.227 350.969)">
      <g id="Grupo_1006267" data-name="Grupo 1006267" transform="translate(78.278 94.5)" opacity="0">
        <path id="Trazado_720366" data-name="Trazado 720366" d="M764.419,949.494a0,0,0,0,0,0,0h0s0,0,0,0Z" transform="translate(-764.419 -949.493)" fill="#84a9ff"/>
      </g>
      <g id="Grupo_1006268" data-name="Grupo 1006268" transform="translate(58.346 213.734)">
        <path id="Trazado_720367" data-name="Trazado 720367" d="M675.86,1485.4a2.586,2.586,0,0,1,1.635-.87,15.689,15.689,0,0,1,1.893-.109,10.022,10.022,0,0,0,4.426-1.282,14.987,14.987,0,0,1,2.126-1.16l4.446.117a5.092,5.092,0,0,1,1.188,2.4,8.985,8.985,0,0,1,.141,2.437v.927H675.4v-.927h0A2.513,2.513,0,0,1,675.86,1485.4Z" transform="translate(-675.401 -1481.981)" fill="#050f64"/>
      </g>
      <g id="Grupo_1006269" data-name="Grupo 1006269" transform="translate(56.049 129.452)">
        <path id="Trazado_720368" data-name="Trazado 720368" d="M665.385,1118.411l2.63-12.825,20.922,5.288-5.549,11.691-.793,61.64-.176,5.776-4.457-.113-.662-5.172-11.977-62.4h0l-.014-.067c-.054-.285-.1-.569-.125-.853l0-.014A9.086,9.086,0,0,1,665.385,1118.411Z" transform="translate(-665.144 -1105.586)" fill="#f5bdc8"/>
      </g>
      <g id="Grupo_1006270" data-name="Grupo 1006270" transform="translate(58.919 86.893)">
        <path id="Trazado_720369" data-name="Trazado 720369" d="M677.964,958.08l8.309-39.579c.979-6.545,34.221-.268,34.221-.268,5.444,6.69,6.581,16.808,6.814,28.623a98.871,98.871,0,0,1-.63,13.271l-24.3,3.7-.2-3.042q-.727,1.554-1.489,3.042Z" transform="translate(-677.964 -915.521)" fill="#050f64"/>
      </g>
      <g id="Grupo_1006271" data-name="Grupo 1006271" transform="translate(90.233 94.555)" opacity="0">
        <path id="Trazado_720370" data-name="Trazado 720370" d="M817.805,949.74h0a0,0,0,0,0,0,0h0S817.805,949.739,817.805,949.74Z" transform="translate(-817.805 -949.738)" fill="#84a9ff"/>
      </g>
      <g id="Grupo_1006272" data-name="Grupo 1006272" transform="translate(84.484 131.781)">
        <path id="Trazado_720371" data-name="Trazado 720371" d="M792.134,1119.227l21.294-3.241-4.284,82.094-4.443-.173Z" transform="translate(-792.134 -1115.986)" fill="#f5bdc8"/>
      </g>
      <g id="Grupo_1006273" data-name="Grupo 1006273" transform="translate(86.531 213.734)">
        <path id="Trazado_720372" data-name="Trazado 720372" d="M801.734,1485.4a2.586,2.586,0,0,1,1.635-.87,15.693,15.693,0,0,1,1.893-.109,10.024,10.024,0,0,0,4.426-1.282,14.981,14.981,0,0,1,2.125-1.16l4.446.117a5.093,5.093,0,0,1,1.188,2.4,8.963,8.963,0,0,1,.141,2.437v.927h-16.31v-.927h0A2.511,2.511,0,0,1,801.734,1485.4Z" transform="translate(-801.275 -1481.981)" fill="#050f64"/>
      </g>
      <g id="Grupo_1006274" data-name="Grupo 1006274" transform="translate(84.489 13.06)">
        <path id="Trazado_720373" data-name="Trazado 720373" d="M792.157,602.287s9.766,3.112,10.829-12.808c0,0-3.511-3.507-3.77-3.688s-5.808,9.867-5.808,9.867Z" transform="translate(-792.157 -585.788)" fill="#050f64"/>
      </g>
      <g id="Grupo_1006278" data-name="Grupo 1006278" transform="translate(0 29.095)">
        <g id="Grupo_1006276" data-name="Grupo 1006276" transform="translate(0 1.349)">
          <g id="Grupo_1006275" data-name="Grupo 1006275">
            <path id="Trazado_720374" data-name="Trazado 720374" d="M415.107,665.163a2.18,2.18,0,0,1,2.709-1.152l2.177.9,2.186.862c1.452.588,2.922,1.11,4.38,1.661,2.931,1.043,5.864,2.05,8.808,2.871a76.032,76.032,0,0,0,8.8,1.967,46.978,46.978,0,0,0,8.627.58,45.273,45.273,0,0,0,8.44-1.061c2.821-.61,5.681-1.435,8.609-2.349s5.915-1.913,8.953-2.9,6.12-1.968,9.242-2.888a6.73,6.73,0,0,1,5.649,1.026,8.05,8.05,0,0,1,3.252,5.137h0a8.492,8.492,0,0,1-1.021,5.986,6.545,6.545,0,0,1-4.5,3.162c-3.052.427-6.113.927-9.211,1.446s-6.235,1.075-9.465,1.582-6.563.96-10.007,1.182a54.8,54.8,0,0,1-20.564-2.45,84.085,84.085,0,0,1-9.312-3.578c-3-1.337-5.871-2.828-8.716-4.343-1.406-.783-2.825-1.539-4.206-2.351l-2.081-1.2-2.058-1.229A2.148,2.148,0,0,1,415.107,665.163Z" transform="translate(-414.836 -663.423)" fill="#ea8096"/>
          </g>
        </g>
        <g id="Grupo_1006277" data-name="Grupo 1006277" transform="translate(52.99)">
          <path id="Trazado_720375" data-name="Trazado 720375" d="M655.5,680.434,673,676.771c5.295-1.108,8.917-5.962,7.809-11.257h0a10.255,10.255,0,0,0-11.821-7.918l-17.505,3.663Z" transform="translate(-651.484 -657.401)" fill="#155bcd"/>
        </g>
      </g>
      <g id="Grupo_1006279" data-name="Grupo 1006279" transform="translate(64.211 27.529)">
        <path id="Trazado_720376" data-name="Trazado 720376" d="M725.259,650.452h0a22.257,22.257,0,0,0-23.578,24.127l2.933,38.172c9.486,4.246,22.775,2.157,34.221-.268l3.492-41.049A18.414,18.414,0,0,0,725.259,650.452Z" transform="translate(-701.596 -650.407)" fill="#155bcd"/>
      </g>
      <g id="Grupo_1006280" data-name="Grupo 1006280" transform="translate(63.815 28.567)">
        <path id="Trazado_720377" data-name="Trazado 720377" d="M704,663.159l.349.2a22.357,22.357,0,0,1,10.418-7.982l-.207-.332a22.724,22.724,0,0,0-8.773,5.912A23.232,23.232,0,0,0,704,663.159ZM701.9,704.131l.96,12.482.215.1a25.924,25.924,0,0,0,4.887,1.605V717.9a25.258,25.258,0,0,1-4.727-1.554l-.936-12.18Zm35.556,11.949a131.319,131.319,0,0,1-14.6,2.4v.4a131.055,131.055,0,0,0,14.68-2.411l.286-.061.831-9.767-.385-.136Zm3.493-41.048-1.068,12.547.387.114,1.074-12.618a18.71,18.71,0,0,0,.162-3.56l-.385.1A18.347,18.347,0,0,1,740.952,675.033Zm-41.039,3.179.711,9.243h.395l-.713-9.279a22.111,22.111,0,0,1,2.273-11.891l-.359-.189A22.407,22.407,0,0,0,699.913,678.212Zm31.873-21.82a18.5,18.5,0,0,1,7.895,8.85l.4-.045a18.691,18.691,0,0,0-8.187-9.182Z" transform="translate(-699.825 -655.043)" fill="#84a9ff"/>
      </g>
      <g id="Grupo_1006286" data-name="Grupo 1006286" transform="translate(74.447 0)">
        <g id="Grupo_1006281" data-name="Grupo 1006281" transform="translate(6.025 23.318)">
          <path id="Trazado_720378" data-name="Trazado 720378" d="M774.216,632.193l.456,10.3a7.57,7.57,0,0,0,8.877-.594l-.456-10.3Z" transform="translate(-774.216 -631.599)" fill="#f5bdc8"/>
        </g>
        <g id="Grupo_1006282" data-name="Grupo 1006282" transform="translate(6.106 24.552)">
          <path id="Trazado_720379" data-name="Trazado 720379" d="M774.581,637.706l.226,3.379a9.706,9.706,0,0,0,4.6,1.057c.092,0,.185-.006.277-.013a5.918,5.918,0,0,0,3.982-1.9l-.209-3.117Z" transform="translate(-774.581 -637.112)" fill="#ea8096"/>
        </g>
        <g id="Grupo_1006283" data-name="Grupo 1006283" transform="translate(0.795 7.29)">
          <path id="Trazado_720380" data-name="Trazado 720380" d="M750.859,568.635l.944,3.295.629,1.813a8.461,8.461,0,0,0,8.58,7.613,4.762,4.762,0,0,0,1.318-.213,5.236,5.236,0,0,0,.493-.181c.034-.013.068-.029.1-.044a4.616,4.616,0,0,0,1.628-1.232,14.265,14.265,0,0,0,2.142-3.737,24.37,24.37,0,0,0,1.205-3.395,10.945,10.945,0,0,0,.316-4.184l-.5-8.348L754.6,562.971Z" transform="translate(-750.859 -560.023)" fill="#f5bdc8"/>
        </g>
        <g id="Grupo_1006284" data-name="Grupo 1006284">
          <path id="Trazado_720381" data-name="Trazado 720381" d="M749.281,540.728a14.5,14.5,0,0,1,1.7-5.689c1.346-2.434,6.259-5.484,10.538-2.976a5.061,5.061,0,0,1,2.156-3.723,5.441,5.441,0,0,1,6.153,8.96,4.961,4.961,0,0,1-2.326.846c.053.134.105.272.154.42.748,2.242,1.14,6.98-1.6,8.619-.924.553-3.15-.117-3.286-3.18-.008-.172.412-5.176-.172-6.577-.358.541-1.49,1.582-4.752,1.009a8.4,8.4,0,0,0-4.132.177,60.4,60.4,0,0,0-4.31,4.322c-1.3,1.275-.469,2.55.411,3.766,1.3,1.8.044,4.317-1.415,4.979,0,0,2.4-2.436-.1-4.7C746.333,545.2,747.64,541.117,749.281,540.728Z" transform="translate(-747.31 -527.465)" fill="#050f64"/>
        </g>
        <g id="Grupo_1006285" data-name="Grupo 1006285" transform="translate(15.199 13.96)">
          <path id="Trazado_720382" data-name="Trazado 720382" d="M815.194,593.263a3.237,3.237,0,1,0,3.013-3.446A3.237,3.237,0,0,0,815.194,593.263Z" transform="translate(-815.186 -589.81)" fill="#f5bdc8"/>
        </g>
      </g>
      <g id="Grupo_1006291" data-name="Grupo 1006291" transform="translate(40.986 35.45)">
        <g id="Grupo_1006288" data-name="Grupo 1006288" transform="translate(0 0.426)">
          <g id="Grupo_1006287" data-name="Grupo 1006287">
            <path id="Trazado_720383" data-name="Trazado 720383" d="M598.073,748.514a2.18,2.18,0,0,1,.855-2.817l2.086-1.093,2.064-1.123c1.383-.736,2.727-1.528,4.085-2.292,2.681-1.578,5.336-3.181,7.855-4.912a75.976,75.976,0,0,0,7.157-5.487,46.961,46.961,0,0,0,5.981-6.243,45.265,45.265,0,0,0,4.6-7.153c1.343-2.554,2.546-5.277,3.724-8.109s2.33-5.764,3.525-8.725,2.419-5.956,3.717-8.941a6.731,6.731,0,0,1,4.413-3.673,8.05,8.05,0,0,1,6.026.8,8.494,8.494,0,0,1,3.935,4.624,6.546,6.546,0,0,1-.466,5.484c-1.631,2.615-3.213,5.283-4.8,7.991s-3.178,5.471-4.862,8.274-3.476,5.649-5.516,8.433a54.793,54.793,0,0,1-15.078,14.2,84.073,84.073,0,0,1-8.72,4.844c-2.948,1.439-5.937,2.687-8.924,3.9-1.5.576-2.994,1.179-4.5,1.716l-2.255.825-2.263.789A2.148,2.148,0,0,1,598.073,748.514Z" transform="translate(-597.875 -687.681)" fill="#f5bdc8"/>
          </g>
        </g>
        <g id="Grupo_1006289" data-name="Grupo 1006289" transform="translate(34.625 0.401)">
          <path id="Trazado_720384" data-name="Trazado 720384" d="M769.787,717.727l8.427-15.775c2.549-4.771,1.151-10.665-3.62-13.214h0a10.255,10.255,0,0,0-13.659,3.983L752.508,708.5Z" transform="translate(-752.508 -687.571)" fill="#155bcd"/>
        </g>
        <g id="Grupo_1006290" data-name="Grupo 1006290" transform="translate(34.091)">
          <path id="Trazado_720385" data-name="Trazado 720385" d="M750.122,707.268l3.135,1.675.2-.34-2.8-1.5,1.965-3.678-.305-.265Zm4.754-8.062,3.5-6.562-.331-.217L754.541,699Zm6.458-11.144.168.37a10.407,10.407,0,0,1,11.24-1.085,9.063,9.063,0,0,1,4.323,5.026l.383-.1a9.472,9.472,0,0,0-4.52-5.27,10.254,10.254,0,0,0-1.72-.723A10.81,10.81,0,0,0,761.334,688.062Zm-4.947,22.1-.216.333,6.095,3.255.183-.35Zm19.344-8.425-6.6,12.351.371.142,6.609-12.373Z" transform="translate(-750.122 -685.779)" fill="#84a9ff"/>
        </g>
      </g>
    </g>
  </g>
</svg>
