<svg xmlns="http://www.w3.org/2000/svg" width="163.436" height="82.96" viewBox="0 0 163.436 82.96">
  <path id="Trazado_719625" data-name="Trazado 719625" d="M317.756,426.651c.028-2.09-.565-14.123-4.2-12.867-3.189,1.1-3.775,19.451-4.435,21.83-4.211,15.237-13.638,29.286-26.974,37.926a62.723,62.723,0,0,1-48.62,8.772,59.482,59.482,0,0,1-24.187-11.621c-3.2-2.615-17.152-14.942-15.231-19.614,1.308-3.18,16.409,1.783,19.66-3.886,4.165-7.268-5.163-8.576-9.853-9.819-8.588-2.277-14.316-6.249-21.83-10.108-5.494-2.821-9.494-2.707-14.319,2-4.089,3.99-22.057,30.065-8.395,29.823,5.378-.1,12.508-14.12,16.3-12.8,2.486.869,7.938,15.329,9.687,17.787,16.729,23.53,44.117,36.094,72.848,31.714,36.769-5.6,53.332-35.845,59.551-69.139C317.811,422.608,317.228,429.475,317.756,426.651Z" transform="translate(-154.323 -413.692)" fill="#ffa031"/>
</svg>
