<svg xmlns="http://www.w3.org/2000/svg" width="376" height="259.106" viewBox="0 0 376 259.106">
  <g id="Grupo_1005786" data-name="Grupo 1005786" transform="translate(-65 -36.375)">
    <g id="Grupo_1005681" data-name="Grupo 1005681" transform="translate(73.49 41.721)">
      <path id="Trazado_719763" data-name="Trazado 719763" d="M408.811,288.294H101.844a114.021,114.021,0,0,1-10.41-120.273c5.849-11.483,15.483-23.293,29.884-25.181,11.6-1.52,22.893,3.891,34.6,4.471,18.078.9,34.379-9.858,45.087-22.427s17.625-27.278,28.229-39.912c19.921-23.733,53.04-38.854,87.042-39.74S384.4,57.716,405.955,80.369c18.185,19.115,27.177,43.7,30.4,68.251s1.08,49.354-.756,74.008C434.07,243.195,424.615,270.875,408.811,288.294Z" transform="translate(-79 -45.191)" fill="#b7e3ff"/>
      <path id="Trazado_719764" data-name="Trazado 719764" d="M194.7,131.918c13.185-3.945,23.461-12.9,32.274-22.221,8.21-8.681,15.806-18.337,17.964-29.375S242.5,56.607,231.15,51.144c-9.76-4.7-22.085-3.149-32.364.64-15.117,5.573-27.87,15.766-35.443,28.33-6.937,11.508-11.579,29.007-6.745,41.8C161.214,134.137,183,135.419,194.7,131.918Z" transform="translate(-108.755 -46.387)" fill="#b7e3ff"/>
    </g>
    <g id="Grupo_1005706" data-name="Grupo 1005706" transform="translate(162.824 36.375)">
      <g id="Grupo_1005704" data-name="Grupo 1005704" transform="translate(0 23.197)">
        <path id="Rectángulo_347665" data-name="Rectángulo 347665" d="M10,0H170.351a10,10,0,0,1,10,10V225.253a0,0,0,0,1,0,0H0a0,0,0,0,1,0,0V10A10,10,0,0,1,10,0Z" fill="#3076b6"/>
        <rect id="Rectángulo_347666" data-name="Rectángulo 347666" width="211.507" height="148.58" transform="translate(164.466 13.746) rotate(90)" fill="#b9f3ff"/>
        <g id="Grupo_1005703" data-name="Grupo 1005703" transform="translate(29.515 20.198)">
          <g id="Grupo_1005682" data-name="Grupo 1005682" transform="translate(43.217)">
            <circle id="Elipse_8549" data-name="Elipse 8549" cx="17.444" cy="17.444" r="17.444" fill="#96e4ff"/>
            <path id="Trazado_719765" data-name="Trazado 719765" d="M379.208,124.96h-8.029v-8.029h-7.912v8.029h-8.029v7.912h8.029V140.9h7.912v-8.029h8.029Z" transform="translate(-349.779 -111.472)" fill="#fff"/>
          </g>
          <g id="Grupo_1005683" data-name="Grupo 1005683" transform="translate(0 39.971)">
            <rect id="Rectángulo_347667" data-name="Rectángulo 347667" width="46.51" height="3.028" fill="#96e4ff"/>
            <rect id="Rectángulo_347668" data-name="Rectángulo 347668" width="36.554" height="3.028" transform="translate(0 5.583)" fill="#96e4ff"/>
          </g>
          <g id="Grupo_1005684" data-name="Grupo 1005684" transform="translate(0 59.157)">
            <rect id="Rectángulo_347669" data-name="Rectángulo 347669" width="46.51" height="3.028" fill="#96e4ff"/>
            <rect id="Rectángulo_347670" data-name="Rectángulo 347670" width="42.012" height="3.028" transform="translate(0 5.583)" fill="#96e4ff"/>
          </g>
          <g id="Grupo_1005685" data-name="Grupo 1005685" transform="translate(0 78.343)">
            <rect id="Rectángulo_347671" data-name="Rectángulo 347671" width="46.51" height="3.028" fill="#96e4ff"/>
            <rect id="Rectángulo_347672" data-name="Rectángulo 347672" width="31.247" height="3.028" transform="translate(0 5.583)" fill="#96e4ff"/>
          </g>
          <g id="Grupo_1005686" data-name="Grupo 1005686" transform="translate(0 97.529)">
            <rect id="Rectángulo_347673" data-name="Rectángulo 347673" width="46.51" height="3.028" fill="#96e4ff"/>
            <rect id="Rectángulo_347674" data-name="Rectángulo 347674" width="42.012" height="3.028" transform="translate(0 5.583)" fill="#96e4ff"/>
          </g>
          <g id="Grupo_1005687" data-name="Grupo 1005687" transform="translate(0 116.715)">
            <rect id="Rectángulo_347675" data-name="Rectángulo 347675" width="46.51" height="3.028" fill="#96e4ff"/>
            <rect id="Rectángulo_347676" data-name="Rectángulo 347676" width="36.554" height="3.028" transform="translate(0 5.583)" fill="#96e4ff"/>
          </g>
          <g id="Grupo_1005688" data-name="Grupo 1005688" transform="translate(83.107 39.971)">
            <rect id="Rectángulo_347677" data-name="Rectángulo 347677" width="46.51" height="3.028" fill="#96e4ff"/>
            <rect id="Rectángulo_347678" data-name="Rectángulo 347678" width="36.554" height="3.028" transform="translate(0 5.583)" fill="#96e4ff"/>
          </g>
          <g id="Grupo_1005689" data-name="Grupo 1005689" transform="translate(83.107 59.157)">
            <rect id="Rectángulo_347679" data-name="Rectángulo 347679" width="46.51" height="3.028" fill="#96e4ff"/>
            <rect id="Rectángulo_347680" data-name="Rectángulo 347680" width="42.012" height="3.028" transform="translate(0 5.583)" fill="#96e4ff"/>
          </g>
          <g id="Grupo_1005690" data-name="Grupo 1005690" transform="translate(83.107 78.343)">
            <rect id="Rectángulo_347681" data-name="Rectángulo 347681" width="46.51" height="3.028" fill="#96e4ff"/>
            <rect id="Rectángulo_347682" data-name="Rectángulo 347682" width="31.247" height="3.028" transform="translate(0 5.583)" fill="#96e4ff"/>
          </g>
          <g id="Grupo_1005691" data-name="Grupo 1005691" transform="translate(83.107 97.529)">
            <rect id="Rectángulo_347683" data-name="Rectángulo 347683" width="46.51" height="3.028" fill="#96e4ff"/>
            <rect id="Rectángulo_347684" data-name="Rectángulo 347684" width="42.012" height="3.028" transform="translate(0 5.583)" fill="#96e4ff"/>
          </g>
          <g id="Grupo_1005692" data-name="Grupo 1005692" transform="translate(83.107 116.715)">
            <rect id="Rectángulo_347685" data-name="Rectángulo 347685" width="46.51" height="3.028" fill="#96e4ff"/>
            <rect id="Rectángulo_347686" data-name="Rectángulo 347686" width="36.554" height="3.028" transform="translate(0 5.583)" fill="#96e4ff"/>
          </g>
          <g id="Grupo_1005694" data-name="Grupo 1005694" transform="translate(63.155 36.539)">
            <rect id="Rectángulo_347687" data-name="Rectángulo 347687" width="12.421" height="12.421" transform="translate(0 1.845)" fill="#96e4ff"/>
            <g id="Grupo_1005693" data-name="Grupo 1005693" transform="translate(1.282)">
              <path id="Trazado_719766" data-name="Trazado 719766" d="M386.661,180.074a.912.912,0,0,1-.643-.267l-4.524-4.524A.91.91,0,0,1,382.78,174l3.881,3.88,9.43-9.43a.91.91,0,0,1,1.286,1.286L387.3,179.807A.91.91,0,0,1,386.661,180.074Z" transform="translate(-381.228 -168.18)" fill="#6bc5ff"/>
            </g>
          </g>
          <g id="Grupo_1005696" data-name="Grupo 1005696" transform="translate(63.155 55.718)">
            <rect id="Rectángulo_347688" data-name="Rectángulo 347688" width="12.421" height="12.421" transform="translate(0 1.845)" fill="#96e4ff"/>
            <g id="Grupo_1005695" data-name="Grupo 1005695" transform="translate(1.282)">
              <path id="Trazado_719767" data-name="Trazado 719767" d="M386.661,211.7a.912.912,0,0,1-.643-.267l-4.524-4.524a.91.91,0,0,1,1.286-1.286l3.881,3.88,9.43-9.43a.91.91,0,0,1,1.286,1.286L387.3,211.432A.91.91,0,0,1,386.661,211.7Z" transform="translate(-381.228 -199.806)" fill="#6bc5ff"/>
            </g>
          </g>
          <g id="Grupo_1005698" data-name="Grupo 1005698" transform="translate(63.155 74.897)">
            <rect id="Rectángulo_347689" data-name="Rectángulo 347689" width="12.421" height="12.421" transform="translate(0 1.845)" fill="#96e4ff"/>
            <g id="Grupo_1005697" data-name="Grupo 1005697" transform="translate(1.282)">
              <path id="Trazado_719768" data-name="Trazado 719768" d="M386.661,243.323a.911.911,0,0,1-.643-.266l-4.524-4.524a.91.91,0,0,1,1.286-1.286l3.881,3.88,9.43-9.43a.91.91,0,0,1,1.286,1.286L387.3,243.057A.91.91,0,0,1,386.661,243.323Z" transform="translate(-381.228 -231.431)" fill="#6bc5ff"/>
            </g>
          </g>
          <g id="Grupo_1005700" data-name="Grupo 1005700" transform="translate(63.155 94.076)">
            <rect id="Rectángulo_347690" data-name="Rectángulo 347690" width="12.421" height="12.421" transform="translate(0 1.845)" fill="#96e4ff"/>
            <g id="Grupo_1005699" data-name="Grupo 1005699" transform="translate(1.282)">
              <path id="Trazado_719769" data-name="Trazado 719769" d="M386.661,274.948a.911.911,0,0,1-.643-.266l-4.524-4.523a.91.91,0,0,1,1.286-1.286l3.881,3.88,9.43-9.43a.91.91,0,0,1,1.286,1.286L387.3,274.682A.91.91,0,0,1,386.661,274.948Z" transform="translate(-381.228 -263.055)" fill="#6bc5ff"/>
            </g>
          </g>
          <g id="Grupo_1005702" data-name="Grupo 1005702" transform="translate(63.155 113.255)">
            <rect id="Rectángulo_347691" data-name="Rectángulo 347691" width="12.421" height="12.421" transform="translate(0 1.845)" fill="#96e4ff"/>
            <g id="Grupo_1005701" data-name="Grupo 1005701" transform="translate(1.282)">
              <path id="Trazado_719770" data-name="Trazado 719770" d="M386.661,306.573a.911.911,0,0,1-.643-.266l-4.524-4.523a.91.91,0,0,1,1.286-1.286l3.881,3.88,9.43-9.43a.91.91,0,0,1,1.286,1.286L387.3,306.307A.91.91,0,0,1,386.661,306.573Z" transform="translate(-381.228 -294.68)" fill="#6bc5ff"/>
            </g>
          </g>
        </g>
      </g>
      <g id="Grupo_1005705" data-name="Grupo 1005705" transform="translate(58.842)">
        <rect id="Rectángulo_347692" data-name="Rectángulo 347692" width="62.667" height="11.523" transform="translate(0 25.42)" fill="#96e4ff"/>
        <rect id="Rectángulo_347693" data-name="Rectángulo 347693" width="62.667" height="7.833" transform="translate(0 17.587)" fill="#6bc5ff"/>
        <rect id="Rectángulo_347694" data-name="Rectángulo 347694" width="62.667" height="7.833" transform="translate(0 36.943)" fill="#6bc5ff"/>
        <path id="Trazado_719771" data-name="Trazado 719771" d="M369.294,36.375a8.794,8.794,0,0,0-8.794,8.794v8.794h17.587V45.169A8.794,8.794,0,0,0,369.294,36.375Zm0,12.23a4.169,4.169,0,1,1,4.169-4.169A4.169,4.169,0,0,1,369.294,48.605Z" transform="translate(-337.96 -36.375)" fill="#96e4ff"/>
      </g>
    </g>
    <g id="Grupo_1005773" data-name="Grupo 1005773" transform="translate(122.158 84.344)">
      <g id="Grupo_1005707" data-name="Grupo 1005707" transform="translate(71.308 73.769)">
        <path id="Trazado_719772" data-name="Trazado 719772" d="M276.833,237.423c5.085-1.282,11.443,1.6,15.4,5.045s6.686,8.045,9.349,12.561c6.024,10.213,22.3,34.494,28.319,44.707l36.221-12.988L359.8,316.262l-42.236,15.566-36.953-61.252Z" transform="translate(-276.833 -237.113)" fill="#fff"/>
        <path id="Trazado_719773" data-name="Trazado 719773" d="M318.275,319.567a449.894,449.894,0,0,0-29.115-56.144,14.518,14.518,0,0,0,2.539-11.651,15.388,15.388,0,0,0-7.356-9.85,18.386,18.386,0,0,1,5.562-1.218c-3.858-2.573-8.894-4.334-13.073-3.28l3.78,33.153,36.953,61.252L359.8,316.262,362.9,301.8A142.591,142.591,0,0,1,318.275,319.567Z" transform="translate(-276.833 -237.113)" fill="#e4e4e0"/>
      </g>
      <g id="Grupo_1005740" data-name="Grupo 1005740" transform="translate(66.871 1.912)">
        <g id="Grupo_1005710" data-name="Grupo 1005710" transform="translate(0 117.21)">
          <path id="Trazado_719774" data-name="Trazado 719774" d="M346.658,385.974a26.31,26.31,0,0,0-23.108,2.156c-7.077,4.426-10.772,12.126-15.913,18.393A24.635,24.635,0,0,1,296.6,414.67c-4.5,1.55-9.3,1.9-13.973,2.61-4.522.683-9.3,1.924-13.11,4.453h3.7c4.143-1.89,9.036-2.591,13.437-3.192,7.864-1.073,14.976-2.808,20.57-8.785,5.083-5.431,8.325-12.384,13.834-17.44a24.41,24.41,0,0,1,25.115-4.589C347.27,388.144,347.743,386.386,346.658,385.974Z" transform="translate(-269.516 -340.375)" fill="#422c4f"/>
          <path id="Trazado_719775" data-name="Trazado 719775" d="M412.649,314.468c5.292,9.7,21.433,8.028,21.433,8.028l.42-5.837C423.247,309.837,414.862,311.519,412.649,314.468Z" transform="translate(-325.846 -311.897)" fill="#454f6b"/>
          <path id="Trazado_719776" data-name="Trazado 719776" d="M390.177,312.875l-4.548,29.261L350,393.641h26.987l22.284-20.955a39.517,39.517,0,0,0,11.549-20.419l7.254-33.48Z" transform="translate(-301.19 -312.282)" fill="#f2c9ad"/>
          <path id="Trazado_719777" data-name="Trazado 719777" d="M406.059,312.875l-.9,5.776a33.934,33.934,0,0,1,17.448,5.864,89.914,89.914,0,0,1-3.779,32.2c-4.484,14.771-16.966,25.926-28.474,36.924h2.513l22.284-20.955A39.519,39.519,0,0,0,426.7,352.267l7.254-33.479Z" transform="translate(-317.072 -312.282)" fill="#eba58e"/>
          <path id="Trazado_719778" data-name="Trazado 719778" d="M416.412,385.908a5.714,5.714,0,0,0,.45-5.53,27.879,27.879,0,0,0-22.721-16.4,5.577,5.577,0,0,0-5.064,2.338l-14.7,20.485a7.172,7.172,0,0,0-1.278,5.159l.172,1.247,1.629-2.355c11.151.5,18.16,8.209,19.2,15.32l-1.769,1.664h0a7.17,7.17,0,0,0,4.51-1.593C408.094,397.12,413.817,389.778,416.412,385.908Z" transform="translate(-310.255 -332.381)" fill="#454f6b"/>
          <g id="Grupo_1005708" data-name="Grupo 1005708" transform="translate(99.995 48.294)">
            <path id="Trazado_719779" data-name="Trazado 719779" d="M434.553,395.389a.152.152,0,0,1-.123-.24c.833-1.16,1.647-2.354,2.42-3.55a.152.152,0,1,1,.255.164c-.775,1.2-1.593,2.4-2.428,3.562A.152.152,0,0,1,434.553,395.389Z" transform="translate(-434.402 -391.53)" fill="#422c4f"/>
          </g>
          <g id="Grupo_1005709" data-name="Grupo 1005709" transform="translate(85.951 55.132)">
            <path id="Trazado_719780" data-name="Trazado 719780" d="M411.395,415.174a.149.149,0,0,1-.115-.053.152.152,0,0,1,.016-.213,88.155,88.155,0,0,0,11.549-12.045.152.152,0,1,1,.238.189,88.52,88.52,0,0,1-11.59,12.086A.149.149,0,0,1,411.395,415.174Z" transform="translate(-411.244 -402.806)" fill="#422c4f"/>
          </g>
        </g>
        <g id="Grupo_1005714" data-name="Grupo 1005714" transform="translate(130.597 51.055)">
          <path id="Trazado_719781" data-name="Trazado 719781" d="M487.882,233.869a13.578,13.578,0,0,0,9.861,5.077,12.949,12.949,0,0,0,10.184-4.3c2.277-2.6,3.337-5.96,4.067-9.384l-4-1.334-.91-21.113L487.9,213l.75,11.523q-1.887.2-3.785.424A14.241,14.241,0,0,0,487.882,233.869Z" transform="translate(-484.862 -202.811)" fill="#f2c9ad"/>
          <path id="Trazado_719782" data-name="Trazado 719782" d="M489.868,213l19.183-10.192.057,1.328a36.495,36.495,0,0,1-4.886,9.37,17.829,17.829,0,0,1-4.475,4.427,9.759,9.759,0,0,1-5.983,1.688,6.737,6.737,0,0,1-3.551-1.311Z" transform="translate(-486.832 -202.811)" fill="#422c4f"/>
          <g id="Grupo_1005713" data-name="Grupo 1005713" transform="translate(5.361 16.664)">
            <g id="Grupo_1005711" data-name="Grupo 1005711" transform="translate(0 2.317)">
              <path id="Trazado_719783" data-name="Trazado 719783" d="M497,243.606a.152.152,0,0,1-.131-.076,25.957,25.957,0,0,1-3.169-9.249.152.152,0,0,1,.13-.171.15.15,0,0,1,.171.129,25.645,25.645,0,0,0,3.13,9.139.152.152,0,0,1-.132.227Z" transform="translate(-493.702 -234.109)" fill="#422c4f"/>
            </g>
            <g id="Grupo_1005712" data-name="Grupo 1005712" transform="translate(6.915)">
              <path id="Trazado_719784" data-name="Trazado 719784" d="M505.255,244.75a.15.15,0,0,1-.065-.015.152.152,0,0,1-.071-.2,34.121,34.121,0,0,0,3.315-14.093.14.14,0,0,1,.154-.149.152.152,0,0,1,.149.154,34.429,34.429,0,0,1-3.345,14.219A.153.153,0,0,1,505.255,244.75Z" transform="translate(-505.103 -230.288)" fill="#422c4f"/>
            </g>
          </g>
        </g>
        <g id="Grupo_1005726" data-name="Grupo 1005726" transform="translate(107.216)">
          <path id="Trazado_719785" data-name="Trazado 719785" d="M457.353,189.868a3.322,3.322,0,0,0-4.982.82,3.922,3.922,0,0,0,.083,3.927,5.65,5.65,0,0,0,3.224,2.419,10.286,10.286,0,0,0,4.084.3C459.017,194.983,458.1,192.222,457.353,189.868Z" transform="translate(-448.502 -146.356)" fill="#eba58e"/>
          <path id="Trazado_719786" data-name="Trazado 719786" d="M458.834,170.07c-8.6-5.576-13.657-16.927-12.31-27.656a28.959,28.959,0,0,1,5.107-13.19,25.222,25.222,0,0,1,17.816-10.5,24.511,24.511,0,0,1,19.241,6.986c3.52-1.738,8.222.07,11.222,2.71a17.391,17.391,0,0,1,5.256,10.846,35.321,35.321,0,0,1-.966,12.409,23.853,23.853,0,0,1-3.774,9.145c-3.2,4.21-8.341,6.028-13.273,7.181C478.33,170.064,466.574,175.085,458.834,170.07Z" transform="translate(-446.308 -118.625)" fill="#422c4f"/>
          <path id="Trazado_719787" data-name="Trazado 719787" d="M455.152,168.141c1.381,7.046,2.833,14.274,6.656,20.353s10.606,10.843,17.755,10.165a19.172,19.172,0,0,0,11.3-5.724,46.893,46.893,0,0,0,7.526-10.449c1.832,2.042,5.588,2.32,7.965.95a7.753,7.753,0,0,0,3.629-6.941,5.747,5.747,0,0,0-1.416-3.785c-1.69-1.764-4.724-1.69-6.716-.277a9.285,9.285,0,0,0-3.43,6.252,5.1,5.1,0,0,1-2.093-5.276A14.716,14.716,0,0,1,490.26,167a14.149,14.149,0,0,1-1.119-8.583,20.66,20.66,0,0,1-10.045,6.362,12.018,12.018,0,0,0,3.042-5.015C474.252,164.7,464.456,168.149,455.152,168.141Z" transform="translate(-449.789 -134.283)" fill="#f2c9ad"/>
          <path id="Trazado_719788" data-name="Trazado 719788" d="M480.247,195.5h-5.5a2.4,2.4,0,0,0,1.512,1.641,2.8,2.8,0,0,0,2.126-.113A5.226,5.226,0,0,0,480.247,195.5Z" transform="translate(-457.502 -148.879)" fill="#eba58e"/>
          <path id="Trazado_719789" data-name="Trazado 719789" d="M491.2,202.053a89.988,89.988,0,0,1-14.129,2.84,7.357,7.357,0,0,0,3.436,3.151,7.24,7.24,0,0,0,4.616.283A8.393,8.393,0,0,0,488.905,206,12.942,12.942,0,0,0,491.2,202.053Z" transform="translate(-458.414 -151.458)" fill="#fff"/>
          <path id="Trazado_719790" data-name="Trazado 719790" d="M538.056,185.006a4.529,4.529,0,0,0-4.665,4.353,2.463,2.463,0,0,0,.38,1.54,1.3,1.3,0,0,0,1.412.531,1.694,1.694,0,0,0,.829-.777,2.813,2.813,0,0,0,.441-2.042,1.593,1.593,0,0,0-1.5-1.278A5.484,5.484,0,0,1,538.056,185.006Z" transform="translate(-480.578 -144.748)" fill="#eba58e"/>
          <path id="Trazado_719791" data-name="Trazado 719791" d="M537.962,184.754a4.681,4.681,0,0,0-4.821,4.5,2.57,2.57,0,0,0,.407,1.634,1.53,1.53,0,0,0,1.208.646,1.161,1.161,0,0,0,.376-.061.152.152,0,0,0-.1-.287,1.146,1.146,0,0,1-1.239-.476,2.272,2.272,0,0,1-.351-1.445,4.418,4.418,0,0,1,1.083-2.717,7,7,0,0,1,2.525-.112.148.148,0,0,0,.171-.129.152.152,0,0,0-.13-.171,7.246,7.246,0,0,0-2.187.034,4.419,4.419,0,0,1,3.047-1.113.159.159,0,0,0,.156-.147A.153.153,0,0,0,537.962,184.754Z" transform="translate(-480.48 -144.649)" fill="#422c4f"/>
          <g id="Grupo_1005723" data-name="Grupo 1005723" transform="translate(12.925 8.082)">
            <g id="Grupo_1005715" data-name="Grupo 1005715" transform="translate(0 7.664)">
              <path id="Trazado_719792" data-name="Trazado 719792" d="M490.586,147.161a.158.158,0,0,1-.055-.01,33.977,33.977,0,0,0-22.712-.586.152.152,0,0,1-.095-.289,34.3,34.3,0,0,1,22.916.591.152.152,0,0,1-.055.294Z" transform="translate(-467.62 -144.59)" fill="#495375"/>
            </g>
            <g id="Grupo_1005716" data-name="Grupo 1005716" transform="translate(10.235 4.116)">
              <path id="Trazado_719793" data-name="Trazado 719793" d="M497.987,143.3a.152.152,0,0,1-.1-.039,16.637,16.637,0,0,0-13.217-4.075.152.152,0,1,1-.04-.3,16.947,16.947,0,0,1,13.46,4.151.151.151,0,0,1-.1.264Z" transform="translate(-484.497 -138.738)" fill="#495375"/>
            </g>
            <g id="Grupo_1005717" data-name="Grupo 1005717" transform="translate(20.466 3.679)">
              <path id="Trazado_719794" data-name="Trazado 719794" d="M505.267,141.479a.152.152,0,0,1-.132-.078,6.936,6.936,0,0,0-3.666-3.088.152.152,0,0,1,.1-.286,7.241,7.241,0,0,1,3.829,3.225.152.152,0,0,1-.132.226Z" transform="translate(-501.368 -138.018)" fill="#495375"/>
            </g>
            <g id="Grupo_1005718" data-name="Grupo 1005718" transform="translate(18.201)">
              <path id="Trazado_719795" data-name="Trazado 719795" d="M505.29,137.7a.151.151,0,0,1-.135-.082,10.371,10.371,0,0,0-7.4-5.368.152.152,0,0,1-.126-.174.149.149,0,0,1,.174-.125,10.676,10.676,0,0,1,7.615,5.528.151.151,0,0,1-.134.221Z" transform="translate(-497.633 -131.952)" fill="#495375"/>
            </g>
            <g id="Grupo_1005719" data-name="Grupo 1005719" transform="translate(28.201 9.779)">
              <path id="Trazado_719796" data-name="Trazado 719796" d="M519.324,150.633a.153.153,0,0,1-.116-.055,6.214,6.214,0,0,0-4.927-2.195.159.159,0,0,1-.158-.146.152.152,0,0,1,.146-.158,6.537,6.537,0,0,1,5.173,2.3.152.152,0,0,1-.02.213A.148.148,0,0,1,519.324,150.633Z" transform="translate(-514.123 -148.076)" fill="#495375"/>
            </g>
            <g id="Grupo_1005720" data-name="Grupo 1005720" transform="translate(28.342 8.101)">
              <path id="Trazado_719797" data-name="Trazado 719797" d="M523.44,148.628a.15.15,0,0,1-.117-.055,8.272,8.272,0,0,0-8.771-2.588.15.15,0,0,1-.192-.1.151.151,0,0,1,.1-.19,8.583,8.583,0,0,1,9.1,2.684.151.151,0,0,1-.117.247Z" transform="translate(-514.354 -145.31)" fill="#495375"/>
            </g>
            <g id="Grupo_1005721" data-name="Grupo 1005721" transform="translate(28.721 6.726)">
              <path id="Trazado_719798" data-name="Trazado 719798" d="M515.131,143.819a.151.151,0,0,1-.054-.293,7.344,7.344,0,0,1,3.572-.42.153.153,0,0,1,.13.171.151.151,0,0,1-.17.13,7.017,7.017,0,0,0-3.423.4A.155.155,0,0,1,515.131,143.819Z" transform="translate(-514.979 -143.043)" fill="#495375"/>
            </g>
            <g id="Grupo_1005722" data-name="Grupo 1005722" transform="translate(29.175 4.624)">
              <path id="Trazado_719799" data-name="Trazado 719799" d="M523.406,141.11a.15.15,0,0,1-.087-.027,7.012,7.012,0,0,0-7.363-.307.152.152,0,0,1-.153-.262,7.326,7.326,0,0,1,7.69.321.151.151,0,0,1-.087.275Z" transform="translate(-515.729 -139.576)" fill="#495375"/>
            </g>
          </g>
          <path id="Trazado_719800" data-name="Trazado 719800" d="M477.761,165.227a9.244,9.244,0,0,1-2.684,2.645A18.38,18.38,0,0,0,487.621,162a12.014,12.014,0,0,0,1.815,2.773,14.144,14.144,0,0,1-.3-6.357,20.66,20.66,0,0,1-10.045,6.362,12.018,12.018,0,0,0,3.042-5.015c-7.885,4.938-17.682,8.39-26.985,8.382q.316,1.617.648,3.242A36.685,36.685,0,0,0,477.761,165.227Z" transform="translate(-449.789 -134.283)" fill="#eba58e"/>
          <g id="Grupo_1005724" data-name="Grupo 1005724" transform="translate(24.226 33.597)">
            <path id="Trazado_719801" data-name="Trazado 719801" d="M491.507,174.026a6.659,6.659,0,0,0-5.252,2.749l10.614-.223A6.658,6.658,0,0,0,491.507,174.026Z" transform="translate(-486.255 -174.025)" fill="#422c4f"/>
          </g>
          <g id="Grupo_1005725" data-name="Grupo 1005725" transform="translate(9.708 33.597)">
            <path id="Trazado_719802" data-name="Trazado 719802" d="M465.764,174.026a4.241,4.241,0,0,0-3.447,2.749l6.967-.223A4.047,4.047,0,0,0,465.764,174.026Z" transform="translate(-462.317 -174.025)" fill="#422c4f"/>
          </g>
          <path id="Trazado_719803" data-name="Trazado 719803" d="M493.473,187.389h0a1.39,1.39,0,0,1-1.39-1.39v-.859a1.39,1.39,0,0,1,1.39-1.39h0a1.39,1.39,0,0,1,1.39,1.39V186A1.39,1.39,0,0,1,493.473,187.389Z" transform="translate(-464.323 -144.255)" fill="#422c4f"/>
          <path id="Trazado_719804" data-name="Trazado 719804" d="M467.34,187.389h0a1.111,1.111,0,0,1-1.111-1.111v-1.417a1.111,1.111,0,0,1,1.111-1.111h0a1.111,1.111,0,0,1,1.111,1.111v1.417A1.111,1.111,0,0,1,467.34,187.389Z" transform="translate(-454.148 -144.255)" fill="#422c4f"/>
        </g>
        <g id="Grupo_1005734" data-name="Grupo 1005734" transform="translate(86.803 73.194)">
          <path id="Trazado_719805" data-name="Trazado 719805" d="M511.713,249.005l-28.139-9.38c-.73,3.425-1.79,6.783-4.067,9.384a12.949,12.949,0,0,1-10.184,4.3,13.578,13.578,0,0,1-9.861-5.077,14.241,14.241,0,0,1-3.019-8.918c-4.872.558-9.786,1.17-14.686,1.765a24.767,24.767,0,0,0-18.286,11.848A77.045,77.045,0,0,0,412.649,285.9a47.458,47.458,0,0,1,21.692,4.433l-3.892,54.083L426,364.692h87.329l3.744-26.53a105.272,105.272,0,0,0,.592-24.345Z" transform="translate(-412.649 -239.317)" fill="#6ca8bf"/>
          <path id="Trazado_719806" data-name="Trazado 719806" d="M438.492,268.875a46.2,46.2,0,0,1-1.564,13.1,2.766,2.766,0,0,0-2.718,1.063,5.27,5.27,0,0,0-.988,2.754,11.879,11.879,0,0,0,1.461,7.164,25.98,25.98,0,0,0-7.62-1.721,14.977,14.977,0,0,1,5.917,5.138,34.345,34.345,0,0,0-10.191,1.346,47.93,47.93,0,0,1,15.542,4.245l.161-2.242C439.9,284.491,439.362,274.636,438.492,268.875Z" transform="translate(-416.64 -250.95)" fill="#468097"/>
          <g id="Grupo_1005727" data-name="Grupo 1005727" transform="translate(21.54 27.423)">
            <path id="Trazado_719807" data-name="Trazado 719807" d="M448.319,308.285h-.011a.151.151,0,0,1-.14-.161l.162-2.243a174.917,174.917,0,0,0,.8-21.188.152.152,0,0,1,.147-.156.154.154,0,0,1,.156.147,175.219,175.219,0,0,1-.8,21.222l-.162,2.239A.151.151,0,0,1,448.319,308.285Z" transform="translate(-448.167 -284.536)" fill="#422c4f"/>
          </g>
          <path id="Trazado_719808" data-name="Trazado 719808" d="M571.181,326.437l-5.058-55.052-12.714,7.621c-2.7,6.624-2.484,14.959,1.319,21.02-2.078-1.035-4.026-1.536-6.1-2.57.923,1.7,1.854,3.486,2.782,5.235a9.978,9.978,0,0,0,2.924,3.378,9.989,9.989,0,0,1,3.963,6.481,105.279,105.279,0,0,1-3.446,47.95l-5.239,16.812h17.234l3.744-26.53A105.269,105.269,0,0,0,571.181,326.437Z" transform="translate(-466.162 -251.937)" fill="#468097"/>
          <g id="Grupo_1005728" data-name="Grupo 1005728" transform="translate(71.189 3.956)">
            <path id="Trazado_719809" data-name="Trazado 719809" d="M530.186,251.026a.152.152,0,0,1-.137-.216,15.526,15.526,0,0,0,1.364-4.833.143.143,0,0,1,.167-.133.15.15,0,0,1,.134.167,15.815,15.815,0,0,1-1.39,4.927A.152.152,0,0,1,530.186,251.026Z" transform="translate(-530.034 -245.84)" fill="#422c4f"/>
          </g>
          <g id="Grupo_1005729" data-name="Grupo 1005729" transform="translate(40.916 4.65)">
            <path id="Trazado_719810" data-name="Trazado 719810" d="M496.036,260.779a16.116,16.116,0,0,1-7.112-1.63,16.352,16.352,0,0,1-8.805-11.99.152.152,0,1,1,.3-.047,15.816,15.816,0,0,0,23.232,11.446,15.846,15.846,0,0,0,4.85-4.172.151.151,0,1,1,.239.186,15.812,15.812,0,0,1-12.7,6.208Z" transform="translate(-480.117 -246.985)" fill="#422c4f"/>
          </g>
          <g id="Grupo_1005730" data-name="Grupo 1005730" transform="translate(30.592 38.027)">
            <path id="Trazado_719811" data-name="Trazado 719811" d="M510.389,321.395a68.483,68.483,0,0,1-47.249-19.114.151.151,0,0,1,0-.214.153.153,0,0,1,.215,0,68.181,68.181,0,0,0,47.038,19.028h.356a.152.152,0,0,1,0,.3Z" transform="translate(-463.093 -302.021)" fill="#422c4f"/>
          </g>
          <g id="Grupo_1005731" data-name="Grupo 1005731" transform="translate(49.596 47.449)">
            <path id="Trazado_719812" data-name="Trazado 719812" d="M505.8,318.734a97.909,97.909,0,0,1-11.238-.646.151.151,0,0,1-.133-.168.145.145,0,0,1,.167-.133,97.736,97.736,0,0,0,24.228-.228.157.157,0,0,1,.17.13.152.152,0,0,1-.13.171A97.985,97.985,0,0,1,505.8,318.734Z" transform="translate(-494.43 -317.558)" fill="#422c4f"/>
          </g>
          <g id="Grupo_1005732" data-name="Grupo 1005732" transform="translate(38.261 81.731)">
            <path id="Trazado_719813" data-name="Trazado 719813" d="M496.708,386.162a120.51,120.51,0,0,1-20.844-1.9.152.152,0,0,1-.124-.165.156.156,0,0,1,.156-.136,99.115,99.115,0,0,0,46.339-9.863.151.151,0,0,1,.133.272,99.517,99.517,0,0,1-44.4,9.939c11.13,1.789,26.826,2.8,41.944-1.416a.155.155,0,0,1,.187.105.152.152,0,0,1-.106.187A87.019,87.019,0,0,1,496.708,386.162Z" transform="translate(-475.739 -374.086)" fill="#422c4f"/>
          </g>
          <g id="Grupo_1005733" data-name="Grupo 1005733" transform="translate(26.371 81.042)">
            <path id="Trazado_719814" data-name="Trazado 719814" d="M480.163,379.227a50.6,50.6,0,0,1-23.951-5.992.152.152,0,1,1,.144-.267,50.357,50.357,0,0,0,35.982,4.443.151.151,0,1,1,.075.294A49.615,49.615,0,0,1,480.163,379.227Z" transform="translate(-456.133 -372.95)" fill="#422c4f"/>
          </g>
        </g>
        <g id="Grupo_1005739" data-name="Grupo 1005739" transform="translate(173.841 82.551)">
          <path id="Trazado_719815" data-name="Trazado 719815" d="M604.16,322.78c-6.065,13.342-21.226,13.746-28.5,11.926C574.949,318.939,598.1,315,604.16,322.78Z" transform="translate(-563.832 -279.998)" fill="#454f6b"/>
          <path id="Trazado_719816" data-name="Trazado 719816" d="M569.421,329.824l11.674,29.261-21.428,36.95h23.854l19.222-24.178a20.712,20.712,0,0,0,3.368-19.646l-11.472-33.253Z" transform="translate(-557.546 -280.017)" fill="#f2c9ad"/>
          <path id="Trazado_719817" data-name="Trazado 719817" d="M602.762,324.158l-1.794-5.2L575.75,329.824l11.674,29.261-5.337-24.744A34.471,34.471,0,0,1,602.762,324.158Z" transform="translate(-563.875 -280.017)" fill="#eba58e"/>
          <path id="Trazado_719818" data-name="Trazado 719818" d="M558.391,285.6l9.7,23.854c5.862-8.692,20.619-12.533,28.5-11.926-16.577-40.228-18.6-39.217-28.3-42.452S553.312,273.116,558.391,285.6Z" transform="translate(-556.27 -254.747)" fill="#6ca8bf"/>
          <g id="Grupo_1005735" data-name="Grupo 1005735" transform="translate(0 15.748)">
            <path id="Trazado_719819" data-name="Trazado 719819" d="M566.2,315.412a.151.151,0,0,1-.14-.095l-7.908-19.439a32.241,32.241,0,0,1-1.787-15.027.145.145,0,0,1,.167-.135.151.151,0,0,1,.135.166,31.925,31.925,0,0,0,1.765,14.882l7.907,19.439a.151.151,0,0,1-.083.2A.145.145,0,0,1,566.2,315.412Z" transform="translate(-556.169 -280.714)" fill="#422c4f"/>
          </g>
          <g id="Grupo_1005736" data-name="Grupo 1005736" transform="translate(11.664 38.873)">
            <path id="Trazado_719820" data-name="Trazado 719820" d="M575.554,326.6a.151.151,0,0,1-.121-.06.153.153,0,0,1,.029-.213,37.218,37.218,0,0,1,21.014-7.484.158.158,0,0,1,.157.146.152.152,0,0,1-.146.157,36.9,36.9,0,0,0-20.841,7.422A.155.155,0,0,1,575.554,326.6Z" transform="translate(-575.403 -318.846)" fill="#422c4f"/>
          </g>
          <g id="Grupo_1005737" data-name="Grupo 1005737" transform="translate(14.662 35.898)">
            <path id="Trazado_719821" data-name="Trazado 719821" d="M580.5,318.7a.152.152,0,0,1-.094-.271,21.486,21.486,0,0,1,11.956-4.487h.008a.152.152,0,0,1,.009.3,21.172,21.172,0,0,0-11.785,4.423A.152.152,0,0,1,580.5,318.7Z" transform="translate(-580.346 -313.94)" fill="#422c4f"/>
          </g>
          <g id="Grupo_1005738" data-name="Grupo 1005738" transform="translate(6.772 71.684)">
            <path id="Trazado_719822" data-name="Trazado 719822" d="M567.487,409.154a.143.143,0,0,1-.076-.021.151.151,0,0,1-.055-.207l20.819-35.9a.151.151,0,0,1,.262.152l-20.819,35.9A.151.151,0,0,1,567.487,409.154Z" transform="translate(-567.335 -372.95)" fill="#422c4f"/>
          </g>
        </g>
      </g>
      <g id="Grupo_1005772" data-name="Grupo 1005772">
        <g id="Grupo_1005744" data-name="Grupo 1005744" transform="translate(0 70.731)">
          <path id="Trazado_719823" data-name="Trazado 719823" d="M159.25,361.854c1.965-26.332,9.074-54.316,15.758-79.861,2.609-9.973,5.618-19.962,10.8-28.872s12.815-18.2,22.815-20.7c6.468-1.617,12.937,2.83,24.266,16.609l6.259,59.6c1.011,21.63-3.437,53.223-3.437,53.223Z" transform="translate(-159.25 -232.104)" fill="#fff"/>
          <path id="Trazado_719824" data-name="Trazado 719824" d="M251.007,269.99l-21.936,7.237a48.982,48.982,0,0,0,5.271,28.614c-5.3,13.252-17.332,30.261-30.674,41.82,20.417-11.982,31.839-35.217,31.839-35.217-4.043,24.034-28.6,51.172-28.6,51.172,20.165-10.765,31.232-39.274,31.232-39.274a48.992,48.992,0,0,1,5.263,23.7c-.2,9.88-3.429,19.4-6.781,28.716h16.578s4.448-31.593,3.437-53.223Z" transform="translate(-176.73 -247.014)" fill="#e4e4e0"/>
          <g id="Grupo_1005741" data-name="Grupo 1005741" transform="translate(70.287 89.029)">
            <path id="Trazado_719825" data-name="Trazado 719825" d="M282.27,382.1c-.193,1.619-1.277,2.821-2.42,2.684s-1.913-1.56-1.72-3.178,1.277-2.821,2.42-2.684S282.463,380.477,282.27,382.1Z" transform="translate(-276.31 -378.907)" fill="#a59b95"/>
            <path id="Trazado_719826" data-name="Trazado 719826" d="M279.319,415.669c-.193,1.619-1.277,2.821-2.42,2.684s-1.913-1.56-1.72-3.178,1.277-2.821,2.42-2.684S279.513,414.05,279.319,415.669Z" transform="translate(-275.149 -392.119)" fill="#a59b95"/>
          </g>
          <g id="Grupo_1005742" data-name="Grupo 1005742" transform="translate(18.097 58.387)">
            <path id="Trazado_719827" data-name="Trazado 719827" d="M189.243,364.148a.151.151,0,0,1-.079-.281c7.517-4.541,15.289-9.236,22.178-14.914,7.711-6.356,13.363-13.249,16.8-20.486a.152.152,0,0,1,.274.13c-3.456,7.277-9.134,14.2-16.879,20.59-6.906,5.692-14.688,10.392-22.214,14.938A.147.147,0,0,1,189.243,364.148Z" transform="translate(-189.091 -328.381)" fill="#222221"/>
          </g>
          <g id="Grupo_1005743" data-name="Grupo 1005743" transform="translate(20.097 68.094)">
            <path id="Trazado_719828" data-name="Trazado 719828" d="M192.54,396.376a.151.151,0,0,1-.1-.267,135.364,135.364,0,0,0,37.593-51.628.152.152,0,0,1,.281.115,135.659,135.659,0,0,1-37.678,51.745A.151.151,0,0,1,192.54,396.376Z" transform="translate(-192.388 -344.387)" fill="#222221"/>
          </g>
        </g>
        <g id="Grupo_1005745" data-name="Grupo 1005745" transform="translate(72.387 141.092)">
          <path id="Trazado_719829" data-name="Trazado 719829" d="M296.268,348.383a229.8,229.8,0,0,1,5.545,59.13H290.165L288.5,348.125Z" transform="translate(-282.503 -348.125)" fill="#e4e4e0"/>
          <path id="Trazado_719830" data-name="Trazado 719830" d="M284.609,348.125c6.065,22.439,5.379,59.389,5.379,59.389H278.612Z" transform="translate(-278.612 -348.125)" fill="#7dd3e9"/>
        </g>
        <g id="Grupo_1005746" data-name="Grupo 1005746" transform="translate(52.937 52.947)">
          <path id="Trazado_719831" data-name="Trazado 719831" d="M261.677,226.539l4.635-12-18.037-11.758L246.54,215.82l13.973,6.676Z" transform="translate(-246.54 -202.778)" fill="#eba58e"/>
          <path id="Trazado_719832" data-name="Trazado 719832" d="M258.877,217.47a13.56,13.56,0,0,0,7.163,1.357l1.6-4.155-17.717-11.549a19.616,19.616,0,0,0,1.46,6.175A16.133,16.133,0,0,0,258.877,217.47Z" transform="translate(-247.874 -202.914)" fill="#422c4f"/>
        </g>
        <g id="Grupo_1005747" data-name="Grupo 1005747" transform="translate(64.19 71.249)">
          <path id="Trazado_719833" data-name="Trazado 719833" d="M267.816,234.373l1.163,4.043,2.107-5.458,6.181,2.729-4.043,5.863c4.852,7.985,6.67,17.082,6.923,31.232L265.1,241.55Z" transform="translate(-265.095 -232.958)" fill="#7dd3e9"/>
          <path id="Trazado_719834" data-name="Trazado 719834" d="M283.24,237.458l.455,6.418-3.424-2.114Z" transform="translate(-271.068 -234.729)" fill="#5fa5cc"/>
        </g>
        <path id="Trazado_719835" data-name="Trazado 719835" d="M242.731,228.729l1.353-5.2,14.931,7.134-3.418,9.015Z" transform="translate(-192.104 -157.998)" fill="#a8effa"/>
        <g id="Grupo_1005748" data-name="Grupo 1005748" transform="translate(52.017 71.891)">
          <path id="Trazado_719836" data-name="Trazado 719836" d="M256.5,243.956a.151.151,0,0,1-.1-.036l-11.325-9.637a.152.152,0,1,1,.2-.231l11.161,9.5,2.923-7.709a.152.152,0,1,1,.284.108l-3,7.91a.151.151,0,0,1-.1.093A.159.159,0,0,1,256.5,243.956Z" transform="translate(-245.022 -234.016)" fill="#222221"/>
        </g>
        <g id="Grupo_1005753" data-name="Grupo 1005753" transform="translate(36.089)">
          <path id="Trazado_719837" data-name="Trazado 719837" d="M231.5,162.908c-3.487-3.45-7-6.961-9.508-11.179s-3.936-9.284-2.893-14.078,4.961-9.111,9.838-9.65c-1.579-1.69-.984-4.345.536-6.089a7.71,7.71,0,0,1,6.293-2.3,19.287,19.287,0,0,1,6.618,1.955,20.845,20.845,0,0,1,13.54-6.056,8.824,8.824,0,0,1,6.018,1.355c1.671,1.275,2.466,3.853,1.241,5.563,2.7-1.192,6.12-.378,8.476,1.406a8.512,8.512,0,0,1,3.222,7.814,8.852,8.852,0,0,1-5.635,7.259l-29.118,27.4Z" transform="translate(-218.758 -115.473)" fill="#d4cfbe"/>
          <path id="Trazado_719838" data-name="Trazado 719838" d="M245.758,179.386a16.171,16.171,0,0,0-1.278-5.3,6.4,6.4,0,0,0-3.95-3.542,5.782,5.782,0,0,0-3.8.415,7.024,7.024,0,1,0,6.068,12.666c2.183,6.211,7.778,11.491,14.26,12.641a15.807,15.807,0,0,0,8.664-.781,16.749,16.749,0,0,0,8.1-7.584,30.238,30.238,0,0,0,3.214-10.781,51.193,51.193,0,0,0-2.333-23,29.7,29.7,0,0,1-9.026.881,5.911,5.911,0,0,1-2.81,3.532,7.576,7.576,0,0,1-4.194.633,18.491,18.491,0,0,1-4.154-1.071,11.929,11.929,0,0,1-7.1,14.107,13.936,13.936,0,0,1,.181,3.628A5.962,5.962,0,0,1,245.758,179.386Z" transform="translate(-224.215 -130.682)" fill="#eba58e"/>
          <g id="Grupo_1005751" data-name="Grupo 1005751" transform="translate(31.578 31.61)">
            <g id="Grupo_1005749" data-name="Grupo 1005749">
              <path id="Trazado_719839" data-name="Trazado 719839" d="M275.5,167.733a6.658,6.658,0,0,1,5.729,1.52l-10.4,2.13A6.66,6.66,0,0,1,275.5,167.733Z" transform="translate(-270.829 -167.596)" fill="#d4cfbe"/>
            </g>
            <g id="Grupo_1005750" data-name="Grupo 1005750" transform="translate(14.359)">
              <path id="Trazado_719840" data-name="Trazado 719840" d="M298.454,167.672a4.243,4.243,0,0,1,2.84,3.373l-6.788-1.586A4.049,4.049,0,0,1,298.454,167.672Z" transform="translate(-294.506 -167.596)" fill="#d4cfbe"/>
            </g>
            <path id="Trazado_719841" data-name="Trazado 719841" d="M279.421,181.607h0a1.39,1.39,0,0,0,1.39-1.39v-.859a1.39,1.39,0,0,0-1.39-1.389h0a1.39,1.39,0,0,0-1.389,1.389v.859A1.39,1.39,0,0,0,279.421,181.607Z" transform="translate(-273.664 -171.678)" fill="#422c4f"/>
            <path id="Trazado_719842" data-name="Trazado 719842" d="M300.274,181.607h0a.9.9,0,0,0,.9-.9v-1.837a.9.9,0,0,0-.9-.9h0a.9.9,0,0,0-.9.9v1.837A.9.9,0,0,0,300.274,181.607Z" transform="translate(-282.062 -171.678)" fill="#422c4f"/>
          </g>
          <path id="Trazado_719843" data-name="Trazado 719843" d="M283.066,202.067a6.6,6.6,0,0,0,11.236-1.223,12.178,12.178,0,0,0-3.827-3.443C288.124,198.819,285.416,200.65,283.066,202.067Z" transform="translate(-244.066 -147.716)" fill="#fff"/>
          <path id="Trazado_719844" data-name="Trazado 719844" d="M286.9,194.609a28.648,28.648,0,0,1-11.921,4.71A7.639,7.639,0,0,0,287.4,197.74c.868,1.169,1.893,2.647,3.291,3.058a3.409,3.409,0,0,0,4.181-2.149A17,17,0,0,1,286.9,194.609Z" transform="translate(-240.882 -146.617)" fill="#d4cfbe"/>
          <path id="Trazado_719845" data-name="Trazado 719845" d="M294.793,193l-4.877.093a4.842,4.842,0,0,0,2.029,1.534,2.417,2.417,0,0,0,1.77-.192A2.456,2.456,0,0,0,294.793,193Z" transform="translate(-246.762 -145.982)" fill="#e78882"/>
          <path id="Trazado_719846" data-name="Trazado 719846" d="M237.943,189.747a2.459,2.459,0,0,1,2.01-1.682,3.118,3.118,0,0,1,2.533.873,4.288,4.288,0,0,1,1.212,2.439,2.943,2.943,0,0,1-.394,2.194,1.587,1.587,0,0,1-2.013.522,2.222,2.222,0,0,1-.833-1.628,2.545,2.545,0,0,1,.1-1.448,1.063,1.063,0,0,1,1.186-.642,2.923,2.923,0,0,0-1.716-1.1A3.214,3.214,0,0,0,237.943,189.747Z" transform="translate(-226.308 -144.031)" fill="#e78882"/>
          <path id="Trazado_719847" data-name="Trazado 719847" d="M263.922,168.271a11.887,11.887,0,0,0,2.486-7.4,8.117,8.117,0,0,0,6.4.564,7.609,7.609,0,0,0,4.342-4.441,30.417,30.417,0,0,0,8.113.241c-.285-1.048-.6-2.088-.952-3.116a29.7,29.7,0,0,1-9.026.881,5.911,5.911,0,0,1-2.81,3.532,7.576,7.576,0,0,1-4.194.633,18.491,18.491,0,0,1-4.154-1.071,11.929,11.929,0,0,1-7.1,14.107C259.677,172.2,262.292,170.363,263.922,168.271Z" transform="translate(-233.818 -130.682)" fill="#e78882"/>
          <g id="Grupo_1005752" data-name="Grupo 1005752" transform="translate(7.182 6.607)">
            <path id="Trazado_719848" data-name="Trazado 719848" d="M269.261,127.605a5.784,5.784,0,0,1,3.687-.909.153.153,0,0,0,.166-.136.152.152,0,0,0-.137-.166,6.052,6.052,0,0,0-6.319,4.125s0,.009,0,.014a7.965,7.965,0,0,0-9.147,4.747.151.151,0,0,0,.082.2.148.148,0,0,0,.058.012.151.151,0,0,0,.14-.094,7.705,7.705,0,0,1,10.547-3.966.152.152,0,1,0,.135-.272,7.8,7.8,0,0,0-1.52-.563A5.767,5.767,0,0,1,269.261,127.605Z" transform="translate(-241.187 -126.367)" fill="#a59b95"/>
            <path id="Trazado_719849" data-name="Trazado 719849" d="M238.156,135.308a6.162,6.162,0,0,1,8.326,2.6.152.152,0,0,0,.134.081.155.155,0,0,0,.071-.017.152.152,0,0,0,.064-.2,6.464,6.464,0,0,0-8.735-2.722.151.151,0,0,0,.141.268Z" transform="translate(-233.487 -129.489)" fill="#a59b95"/>
            <path id="Trazado_719850" data-name="Trazado 719850" d="M251.173,128.926a.151.151,0,0,0,.114-.052,5.7,5.7,0,0,1,8.186-.392.152.152,0,0,0,.207-.221,6.007,6.007,0,0,0-8.621.414.152.152,0,0,0,.114.252Z" transform="translate(-238.637 -126.472)" fill="#a59b95"/>
            <path id="Trazado_719851" data-name="Trazado 719851" d="M242.891,149.686a11.573,11.573,0,0,0-12.207-1.13.152.152,0,1,0,.136.271,11.317,11.317,0,0,1,13.6,2.681.149.149,0,0,0,.114.052.148.148,0,0,0,.1-.038.151.151,0,0,0,.015-.213,11.525,11.525,0,0,0-1.489-1.42,8.3,8.3,0,0,1,7.49-.294.152.152,0,1,0,.129-.275A8.614,8.614,0,0,0,242.891,149.686Z" transform="translate(-230.601 -134.616)" fill="#a59b95"/>
            <path id="Trazado_719852" data-name="Trazado 719852" d="M285.7,133.334a6.841,6.841,0,0,0-5.992,6.3.153.153,0,0,0,.141.162h.011a.152.152,0,0,0,.151-.141,6.538,6.538,0,0,1,5.727-6.024.152.152,0,1,0-.037-.3Z" transform="translate(-249.927 -129.108)" fill="#a59b95"/>
          </g>
        </g>
        <g id="Grupo_1005754" data-name="Grupo 1005754" transform="translate(50.85 46.157)">
          <path id="Trazado_719853" data-name="Trazado 719853" d="M345.51,232.995c-6.043,17.072-7.008,35.254-11.179,52.771a94.594,94.594,0,0,1-8.107,22.542c-3.625,6.827-8.9,14.594-15.9,18.362-10.318,5.559-16.039-7.123-18.546-14.908-2.756-8.556-3.865-17.523-4.738-26.436-1.537-15.686-2.426-32.129-9.991-46.326a39.756,39.756,0,0,0-2.339-3.813,138.178,138.178,0,0,0,1-29.32,17.28,17.28,0,0,1-1.7,1.728,135.589,135.589,0,0,1-.844,25.461c-10.114-13.175-27.1-23.006-28.251-40.6-.076-1.163-1.9-1.171-1.819,0,1.227,18.8,19.425,28.31,29.239,42.321,10.832,15.465,11.264,35.189,13.159,53.266.968,9.23,2.317,18.531,5.592,27.262,2.234,5.954,6.009,13.675,13.165,14.518,7.387.871,13.828-6.554,17.873-11.777a73.06,73.06,0,0,0,11.188-21.957c6.743-20.392,6.767-42.328,13.947-62.614C347.655,232.373,345.9,231.9,345.51,232.995Z" transform="translate(-243.098 -191.582)" fill="#454f6b"/>
        </g>
        <g id="Grupo_1005756" data-name="Grupo 1005756" transform="translate(142.563 74.853)">
          <path id="Trazado_719854" data-name="Trazado 719854" d="M417.684,238.951l-3.229.512.226,1.426c-1.755,2.286-2.557,6.281-1.868,10.618s2.688,7.888,5.066,9.516l.226,1.427,3.23-.513c3.7-.588,5.88-6.209,4.872-12.557S421.383,238.363,417.684,238.951Z" transform="translate(-401.506 -238.901)" fill="#797c99"/>
          <path id="Trazado_719855" data-name="Trazado 719855" d="M420.881,250.226c1.009,6.348-1.173,11.97-4.872,12.558s-7.514-4.083-8.522-10.431,1.173-11.97,4.872-12.557S419.873,243.878,420.881,250.226Z" transform="translate(-399.41 -239.233)" fill="#99a3b0"/>
          <g id="Grupo_1005755" data-name="Grupo 1005755" transform="translate(0 3.897)">
            <path id="Trazado_719856" data-name="Trazado 719856" d="M405.993,245.365l-6.237.99.17,1.073c-1.321,1.719-1.924,4.725-1.406,7.989s2.023,5.935,3.812,7.16l.17,1.073,6.237-.99c2.783-.442,4.424-4.672,3.665-9.448S408.776,244.923,405.993,245.365Z" transform="translate(-395.905 -245.327)" fill="#797c99"/>
            <path id="Trazado_719857" data-name="Trazado 719857" d="M404.59,254.845c.758,4.776-.883,9.006-3.665,9.448s-5.653-3.071-6.412-7.847.882-9.006,3.665-9.448S403.832,250.069,404.59,254.845Z" transform="translate(-394.328 -245.97)" fill="#99a3b0"/>
          </g>
        </g>
        <circle id="Elipse_8550" data-name="Elipse 8550" cx="1.722" cy="1.722" r="1.722" transform="translate(49.809 45.24)" fill="#797c99"/>
        <g id="Grupo_1005771" data-name="Grupo 1005771" transform="translate(47.54 80.992)">
          <g id="Grupo_1005762" data-name="Grupo 1005762" transform="translate(76.833)">
            <path id="Trazado_719858" data-name="Trazado 719858" d="M364.333,287.746l8.895-13.9a46.869,46.869,0,0,1,.2-17.992c.49-2.405,2.665-4.235,4.67-5.967a3.548,3.548,0,0,1,3.713-.582c2.1.895,4.263,1.8,6.342,2.693a2.268,2.268,0,0,1,1.373,2.125,3.847,3.847,0,0,1-.189,1.19,7.577,7.577,0,0,1,3.863.357,3.437,3.437,0,0,1,1.8,3.266,6.76,6.76,0,0,1,2.99,1.168,3.474,3.474,0,0,1,.922,4.094,5.2,5.2,0,0,1,1.629,4.268,15.14,15.14,0,0,1-1.315,4.493,6.608,6.608,0,0,1-.9,1.7,2.231,2.231,0,0,1-1.636.895,1.363,1.363,0,0,1-1.379-1.09,13,13,0,0,1-8.318,7.752l-8.611,13.873Z" transform="translate(-364.333 -249.023)" fill="#eba58e"/>
            <path id="Trazado_719859" data-name="Trazado 719859" d="M364.333,308.407l14.05,8.339L382.2,310.6c-2.806-8.052-13.46-9.075-13.46-9.075Z" transform="translate(-364.333 -269.684)" fill="#e78882"/>
            <g id="Grupo_1005757" data-name="Grupo 1005757" transform="translate(14.377 6.139)">
              <path id="Trazado_719860" data-name="Trazado 719860" d="M388.218,263.5a.152.152,0,0,1-.149-.124,2.357,2.357,0,0,1,1.226-2.312,5.206,5.206,0,0,1,1.827-.588c.2-.038.409-.077.617-.125,1.972-.451,6.857-1.194,6.906-1.2a.149.149,0,0,1,.172.127.152.152,0,0,1-.127.173c-.049.007-4.923.748-6.883,1.2-.212.048-.421.088-.628.127a4.968,4.968,0,0,0-1.726.549,2.084,2.084,0,0,0-1.086,2,.152.152,0,0,1-.122.176Z" transform="translate(-388.04 -259.147)" fill="#222221"/>
            </g>
            <g id="Grupo_1005758" data-name="Grupo 1005758" transform="translate(19.99 9.718)">
              <path id="Trazado_719861" data-name="Trazado 719861" d="M397.447,267.512a.158.158,0,0,1-.05-.008.152.152,0,0,1-.093-.193,2.665,2.665,0,0,1,1.525-1.5,6.9,6.9,0,0,1,2.073-.433,47.55,47.55,0,0,1,7.075-.283.152.152,0,0,1,.143.161.155.155,0,0,1-.16.143,47.081,47.081,0,0,0-7.029.281,6.671,6.671,0,0,0-1.984.41,2.364,2.364,0,0,0-1.357,1.323A.151.151,0,0,1,397.447,267.512Z" transform="translate(-397.295 -265.048)" fill="#222221"/>
            </g>
            <g id="Grupo_1005759" data-name="Grupo 1005759" transform="translate(25.082 14.567)">
              <path id="Trazado_719862" data-name="Trazado 719862" d="M405.843,274.194a.152.152,0,0,1-.046-.3,17.729,17.729,0,0,1,9.426-.392.151.151,0,0,1,.11.184.148.148,0,0,1-.184.11,17.416,17.416,0,0,0-9.259.388A.176.176,0,0,1,405.843,274.194Z" transform="translate(-405.691 -273.044)" fill="#222221"/>
            </g>
            <g id="Grupo_1005760" data-name="Grupo 1005760" transform="translate(30.827 19.971)">
              <path id="Trazado_719863" data-name="Trazado 719863" d="M415.316,287.572l-.024,0a.151.151,0,0,1-.126-.174,14.681,14.681,0,0,0,.064-5.26.152.152,0,0,1,.3-.061,14.989,14.989,0,0,1-.062,5.37A.152.152,0,0,1,415.316,287.572Z" transform="translate(-415.164 -281.955)" fill="#222221"/>
            </g>
            <g id="Grupo_1005761" data-name="Grupo 1005761" transform="translate(31.093 19.893)">
              <path id="Trazado_719864" data-name="Trazado 719864" d="M415.755,283.916a.15.15,0,0,1-.115-.053.152.152,0,0,1,.017-.214,7.231,7.231,0,0,0,1.488-1.752.154.154,0,0,1,.209-.051.152.152,0,0,1,.051.209,7.544,7.544,0,0,1-1.551,1.825A.152.152,0,0,1,415.755,283.916Z" transform="translate(-415.603 -281.825)" fill="#222221"/>
            </g>
          </g>
          <g id="Grupo_1005770" data-name="Grupo 1005770" transform="translate(0 1.042)">
            <g id="Grupo_1005763" data-name="Grupo 1005763" transform="translate(0 23.423)">
              <path id="Trazado_719865" data-name="Trazado 719865" d="M248.245,298.388a.161.161,0,0,1-.06-.012,24.611,24.611,0,0,1-10.519-8.776.151.151,0,1,1,.252-.168,24.307,24.307,0,0,0,10.388,8.666.151.151,0,0,1-.061.29Z" transform="translate(-237.641 -289.364)" fill="#222221"/>
            </g>
            <g id="Grupo_1005764" data-name="Grupo 1005764" transform="translate(0.853 30.562)">
              <path id="Trazado_719866" data-name="Trazado 719866" d="M250.138,304.356a22.123,22.123,0,0,1-11.015-2.936.151.151,0,0,1,.151-.263,21.793,21.793,0,0,0,11.414,2.889.15.15,0,0,1,.155.148.151.151,0,0,1-.147.155C250.509,304.353,250.324,304.356,250.138,304.356Z" transform="translate(-239.047 -301.137)" fill="#222221"/>
            </g>
            <path id="Trazado_719867" data-name="Trazado 719867" d="M246.751,280.185l30.418,50.209a20.114,20.114,0,0,0,33.607,1.22l24.194-34.087c-2.841-8.819-9.958-15.161-19.153-16.3-5.858,10.623-14.038,20.957-21.763,31.7-4.961-11.762-11.959-22.453-17.969-34.443-3.635-7.253-6.405-14.924-10.122-22.126-1.856-3.6-6.621-6.185-10.613-5.517a13.581,13.581,0,0,0-8.4,5.3,19.168,19.168,0,0,0-3.569,9.611A25.12,25.12,0,0,0,246.751,280.185Z" transform="translate(-239.863 -250.742)" fill="#fff"/>
            <g id="Grupo_1005765" data-name="Grupo 1005765" transform="translate(36.072 27.597)">
              <path id="Trazado_719868" data-name="Trazado 719868" d="M315.241,330.994h-.017a.152.152,0,0,1-.123-.092,210.893,210.893,0,0,0-10.584-20.719c-2.463-4.419-5.011-8.989-7.38-13.715a.152.152,0,1,1,.271-.136c2.366,4.719,4.912,9.286,7.374,13.7a213.8,213.8,0,0,1,10.494,20.5c1.731-2.406,3.505-4.819,5.223-7.157,6.1-8.3,11.869-16.147,16.372-24.313a.155.155,0,0,1,.151-.077,22.507,22.507,0,0,1,9.879,3.655.152.152,0,0,1-.169.252,22.2,22.2,0,0,0-9.645-3.594c-4.505,8.151-10.256,15.975-16.343,24.256-1.77,2.408-3.6,4.9-5.379,7.373A.151.151,0,0,1,315.241,330.994Z" transform="translate(-297.12 -296.248)" fill="#222221"/>
            </g>
            <path id="Trazado_719869" data-name="Trazado 719869" d="M377.424,332.046a1.921,1.921,0,1,1-1.921-1.921A1.92,1.92,0,0,1,377.424,332.046Z" transform="translate(-291.141 -281.983)" fill="#a59b95"/>
            <path id="Trazado_719870" data-name="Trazado 719870" d="M370.508,342.3a1.92,1.92,0,1,1-1.921-1.921A1.92,1.92,0,0,1,370.508,342.3Z" transform="translate(-288.419 -286.017)" fill="#a59b95"/>
            <g id="Grupo_1005766" data-name="Grupo 1005766" transform="translate(46.056 62.04)">
              <path id="Trazado_719871" data-name="Trazado 719871" d="M313.735,368.3a.148.148,0,0,1-.058-.012.152.152,0,0,1-.082-.2c.045-.107,4.5-10.783,8.009-15a.152.152,0,0,1,.263.056c1.5,5.363,1.672,14.551,1.673,14.643a.152.152,0,0,1-.149.154h0a.152.152,0,0,1-.152-.149c0-.09-.163-8.923-1.585-14.284-3.453,4.324-7.733,14.588-7.777,14.693A.151.151,0,0,1,313.735,368.3Z" transform="translate(-313.583 -353.042)" fill="#222221"/>
            </g>
            <g id="Grupo_1005767" data-name="Grupo 1005767" transform="translate(50.556 65.875)">
              <path id="Trazado_719872" data-name="Trazado 719872" d="M322.419,375.805a.152.152,0,0,1-.135-.082,13.723,13.723,0,0,1-1.1-8.225,40.8,40.8,0,0,1,2.3-8.032.154.154,0,0,1,.194-.091.151.151,0,0,1,.091.194,40.6,40.6,0,0,0-2.281,7.972,13.637,13.637,0,0,0,1.069,8.043.152.152,0,0,1-.135.221Z" transform="translate(-321.005 -359.366)" fill="#222221"/>
            </g>
            <g id="Grupo_1005768" data-name="Grupo 1005768" transform="translate(52.124 68.574)">
              <path id="Trazado_719873" data-name="Trazado 719873" d="M323.741,373.109l-.025,0a.152.152,0,0,1-.124-.175l1.5-8.991a.154.154,0,0,1,.175-.125.152.152,0,0,1,.124.175l-1.5,8.991A.152.152,0,0,1,323.741,373.109Z" transform="translate(-323.589 -363.815)" fill="#222221"/>
            </g>
            <path id="Trazado_719874" data-name="Trazado 719874" d="M317.148,327.969c-4,3.83-7.162,8.5-11.365,12.109s-10,6.1-15.275,4.4c-4.353-1.408-7.355-5.3-10.023-9.016a509.9,509.9,0,0,1-30.376-47.683c-2.693-4.8-5.362-9.848-6.464-15.166-.106.582-.2,1.165-.258,1.751a25.12,25.12,0,0,0,3.365,14.429L277.169,339a20.114,20.114,0,0,0,33.607,1.22L322.5,323.7A38.464,38.464,0,0,0,317.148,327.969Z" transform="translate(-239.863 -259.349)" fill="#e4e4e0"/>
            <g id="Grupo_1005769" data-name="Grupo 1005769" transform="translate(3.272 14.862)">
              <path id="Trazado_719875" data-name="Trazado 719875" d="M294.284,349.883c-.247,0-.5,0-.745-.013a20.208,20.208,0,0,1-16.6-9.752l-30.418-50.209a25.052,25.052,0,0,1-3.386-14.523.151.151,0,1,1,.3.03,24.751,24.751,0,0,0,3.346,14.34l30.415,50.2a19.963,19.963,0,0,0,33.354,1.211l24.194-34.088a.152.152,0,0,1,.247.175L310.8,341.346A20.2,20.2,0,0,1,294.284,349.883Z" transform="translate(-243.036 -275.249)" fill="#222221"/>
            </g>
          </g>
        </g>
      </g>
    </g>
    <g id="Grupo_1005774" data-name="Grupo 1005774" transform="translate(65 284.825)">
      <rect id="Rectángulo_347695" data-name="Rectángulo 347695" width="376" height="10.657" fill="#db7c0c"/>
      <rect id="Rectángulo_347696" data-name="Rectángulo 347696" width="376" height="7.669" transform="translate(0 2.988)" fill="#ffa031"/>
    </g>
    <g id="Grupo_1005776" data-name="Grupo 1005776" transform="translate(372.088 126.844)">
      <path id="Trazado_719876" data-name="Trazado 719876" d="M614.5,188.483h0a10.006,10.006,0,0,0-14.152,0l-4.1,4.1-4.1-4.1A10.007,10.007,0,0,0,578,202.635l4.1,4.1,14.152,14.151L610.4,206.733l4.1-4.1A10.008,10.008,0,0,0,614.5,188.483Z" transform="translate(-572.826 -185.552)" fill="#ffa031"/>
      <g id="Grupo_1005775" data-name="Grupo 1005775" transform="translate(0 5.548)">
        <path id="Trazado_719877" data-name="Trazado 719877" d="M591.864,219.155l-3.115-17.134-1.652,6.085H571.369V206.49h14.491l3.2-11.789,2.949,16.221,2.2-10.044,2.9,8.834,2.776-13.882,3.177,11h15.665v1.617H601.841l-1.675-5.8-2.682,13.409-2.965-9.04Z" transform="translate(-571.369 -194.701)" fill="#fff"/>
      </g>
    </g>
    <g id="Grupo_1005777" data-name="Grupo 1005777" transform="translate(350.954 45.811)">
      <circle id="Elipse_8551" data-name="Elipse 8551" cx="21.181" cy="21.181" r="21.181" transform="translate(3.99 46.344) rotate(-89)" fill="#3076b6"/>
      <path id="Trazado_719878" data-name="Trazado 719878" d="M583.2,80.917h-8.338V72.579H565.5v8.338h-8.338v9.355H565.5v8.338h9.355V90.273H583.2Z" transform="translate(-544.645 -60.059)" fill="#fff"/>
    </g>
    <g id="Grupo_1005783" data-name="Grupo 1005783" transform="translate(93.487 136.91)">
      <rect id="Rectángulo_347697" data-name="Rectángulo 347697" width="48.683" height="30.916" rx="4.449" transform="translate(0 34.424) rotate(-45)" fill="#96e4ff"/>
      <g id="Grupo_1005782" data-name="Grupo 1005782" transform="translate(11.079 11.078)">
        <g id="Grupo_1005778" data-name="Grupo 1005778" transform="translate(0 13.833)">
          <path id="Trazado_719879" data-name="Trazado 719879" d="M131.148,252.614a3.1,3.1,0,0,0,0,4.378h0a3.1,3.1,0,0,0,4.378,0l2.979-2.979-4.378-4.378Z" transform="translate(-130.241 -245.75)" fill="#fff"/>
          <path id="Trazado_719880" data-name="Trazado 719880" d="M139.626,244.135l-2.978,2.978,4.378,4.378L144,248.513a3.1,3.1,0,0,0,0-4.378h0A3.1,3.1,0,0,0,139.626,244.135Z" transform="translate(-132.763 -243.229)" fill="#ffa031"/>
        </g>
        <g id="Grupo_1005779" data-name="Grupo 1005779" transform="translate(8.146 21.979)">
          <path id="Trazado_719881" data-name="Trazado 719881" d="M144.58,266.046a3.1,3.1,0,0,0,0,4.379h0a3.1,3.1,0,0,0,4.378,0l2.978-2.979-4.378-4.378Z" transform="translate(-143.674 -259.183)" fill="#fff"/>
          <path id="Trazado_719882" data-name="Trazado 719882" d="M153.059,257.568l-2.979,2.979,4.378,4.378,2.979-2.978a3.1,3.1,0,0,0,0-4.379h0A3.1,3.1,0,0,0,153.059,257.568Z" transform="translate(-146.195 -256.661)" fill="#ffa031"/>
        </g>
        <g id="Grupo_1005780" data-name="Grupo 1005780" transform="translate(13.833)">
          <path id="Trazado_719883" data-name="Trazado 719883" d="M153.958,229.8a3.1,3.1,0,0,0,0,4.378h0a3.1,3.1,0,0,0,4.378,0l2.978-2.979-4.378-4.378Z" transform="translate(-153.051 -222.94)" fill="#fff"/>
          <path id="Trazado_719884" data-name="Trazado 719884" d="M162.436,221.325l-2.978,2.978,4.378,4.378,2.979-2.978a3.1,3.1,0,0,0,0-4.378h0A3.1,3.1,0,0,0,162.436,221.325Z" transform="translate(-155.573 -220.419)" fill="#ffa031"/>
        </g>
        <g id="Grupo_1005781" data-name="Grupo 1005781" transform="translate(21.979 8.146)">
          <path id="Trazado_719885" data-name="Trazado 719885" d="M167.39,243.236a3.1,3.1,0,0,0,0,4.378h0a3.1,3.1,0,0,0,4.378,0l2.979-2.978-4.378-4.378Z" transform="translate(-166.484 -236.373)" fill="#fff"/>
          <path id="Trazado_719886" data-name="Trazado 719886" d="M175.869,234.758l-2.978,2.979,4.378,4.378,2.978-2.979a3.1,3.1,0,0,0,0-4.378h0A3.1,3.1,0,0,0,175.869,234.758Z" transform="translate(-169.005 -233.851)" fill="#ffa031"/>
        </g>
      </g>
    </g>
    <g id="Grupo_1005785" data-name="Grupo 1005785" transform="translate(113.382 67.562)">
      <g id="Grupo_1005784" data-name="Grupo 1005784" transform="translate(0 0)">
        <path id="Trazado_719887" data-name="Trazado 719887" d="M184.208,90.731h0a10.007,10.007,0,0,0-14.151,0l-4.1,4.1-4.1-4.1a10.006,10.006,0,0,0-14.151,14.152l4.1,4.1,14.151,14.151,14.152-14.151,4.1-4.1A10.006,10.006,0,0,0,184.208,90.731Z" transform="translate(-144.778 -87.801)" fill="#ffa031"/>
      </g>
      <path id="Trazado_719888" data-name="Trazado 719888" d="M182.589,108.643h-5.266v-5.266h-5.908v5.266H166.15v5.908h5.266v5.266h5.908V114.55h5.266Z" transform="translate(-153.189 -93.931)" fill="#fff"/>
    </g>
  </g>
</svg>
