<svg xmlns="http://www.w3.org/2000/svg" width="266.072" height="273.226" viewBox="0 0 266.072 273.226">
  <g id="Online_report-pana" data-name="Online report-pana" transform="translate(-25.046 -25.154)">
    <g id="freepik--background-complete--inject-2" transform="translate(26.982 25.154)">
      <rect id="Rectángulo_347801" data-name="Rectángulo 347801" width="53.613" height="55.728" rx="3.96" transform="translate(0 10.234)" fill="#f5f5f5"/>
      <path id="Trazado_720111" data-name="Trazado 720111" d="M63.644,62.78A14.824,14.824,0,1,0,78.469,77.6,14.824,14.824,0,0,0,63.644,62.78Zm.224,23.709A9.091,9.091,0,1,1,72.96,77.4a9.091,9.091,0,0,1-9.091,9.091Z" transform="translate(-36.347 -39.976)" fill="#e0e0e0"/>
      <path id="Trazado_720112" data-name="Trazado 720112" d="M73.65,62.79v5.491a9.091,9.091,0,0,1,8.7,11.867l5.37,1.455A14.812,14.812,0,0,0,73.668,62.814Z" transform="translate(-46.128 -39.98)" fill="#fafafa"/>
      <path id="Trazado_720113" data-name="Trazado 720113" d="M54.74,78.137a9.091,9.091,0,0,1,5.4-8.315L57.861,64.7A14.824,14.824,0,0,0,48.77,78.361c0,.212,0,.418,0,.606h5.964C54.758,78.706,54.74,78.421,54.74,78.137Z" transform="translate(-36.327 -40.732)" fill="#ebebeb"/>
      <path id="Trazado_720114" data-name="Trazado 720114" d="M71.747,97.776a9.158,9.158,0,0,1-1.927-.206c-.23,1.321-.661,3.879-1,5.9a14.654,14.654,0,0,0,2.7.248A14.819,14.819,0,0,0,85.8,92.883L80.444,91.43A9.091,9.091,0,0,1,71.747,97.776Z" transform="translate(-44.226 -51.262)" fill="#ebebeb"/>
      <path id="Trazado_720115" data-name="Trazado 720115" d="M68.367,86.361h-.545v.709h-.764v-.709H65.24v-.527L66.828,83.7h.818l-1.467,2h.9v-.606h.739V85.7h.545Z" transform="translate(-42.815 -48.217)" fill="#e0e0e0"/>
      <path id="Trazado_720116" data-name="Trazado 720116" d="M70.78,85.345c0-1.115.606-1.745,1.442-1.745s1.449.606,1.449,1.745-.606,1.739-1.449,1.739S70.78,86.455,70.78,85.345Zm2.1,0c0-.77-.267-1.085-.661-1.085s-.655.315-.655,1.085.273,1.079.655,1.079S72.883,86.109,72.883,85.345Z" transform="translate(-44.998 -48.178)" fill="#e0e0e0"/>
      <path id="Trazado_720117" data-name="Trazado 720117" d="M76.078,84.58a.836.836,0,1,1,.395.783A.836.836,0,0,1,76.078,84.58Zm1.212,0c0-.364-.139-.533-.352-.533s-.352.176-.352.533.145.533.352.533.3-.176.3-.533Zm1.655-.891h.606l-2.3,3.37h-.612Zm-.552,2.479a.361.361,0,1,1-.024,0Zm1.212,0c0-.358-.139-.533-.352-.533s-.352.17-.352.533.145.533.352.533.3-.182.3-.533Z" transform="translate(-47.084 -48.206)" fill="#e0e0e0"/>
      <path id="Trazado_720118" data-name="Trazado 720118" d="M77.558,117.779c0,.079-5.491.145-12.267.145S53,117.858,53,117.779s5.491-.139,12.267-.139S77.558,117.707,77.558,117.779Z" transform="translate(-37.994 -61.587)" fill="#e0e0e0"/>
      <path id="Trazado_720119" data-name="Trazado 720119" d="M75.662,121.5c0,.079-3.03.139-6.806.139s-6.806-.061-6.806-.139,3.03-.139,6.806-.139S75.662,121.421,75.662,121.5Z" transform="translate(-41.559 -63.053)" fill="#e0e0e0"/>
      <circle id="Elipse_8581" data-name="Elipse 8581" cx="1.352" cy="1.352" r="1.352" transform="translate(3.994 13.622)" fill="#e0e0e0"/>
      <circle id="Elipse_8582" data-name="Elipse 8582" cx="1.352" cy="1.352" r="1.352" transform="translate(7.479 13.622)" fill="#e0e0e0"/>
      <path id="Trazado_720120" data-name="Trazado 720120" d="M49.023,48.982a1.345,1.345,0,1,1-.394-.957A1.352,1.352,0,0,1,49.023,48.982Z" transform="translate(-35.362 -34.008)" fill="#e0e0e0"/>
      <path id="Trazado_720121" data-name="Trazado 720121" d="M392.656,55.1a8.262,8.262,0,0,1-.206-1.818,14.549,14.549,0,0,0-.242-2.182,20.867,20.867,0,0,0-.576-2.933,27.5,27.5,0,0,0-3.03-7.546,28.3,28.3,0,0,0-7.055-8.085A27.958,27.958,0,0,0,355.2,28.012a26.249,26.249,0,0,0-7.127,3.636,31.25,31.25,0,0,0-3.218,2.612,31.74,31.74,0,0,0-2.8,3.164,27.734,27.734,0,0,0-.8,32.879,31.774,31.774,0,0,0,2.642,3.3,32.23,32.23,0,0,0,3.085,2.764,26.353,26.353,0,0,0,6.946,3.982,28.176,28.176,0,0,0,33.94-10.982,27.275,27.275,0,0,0,3.406-7.388,21.611,21.611,0,0,0,.715-2.9,14.5,14.5,0,0,0,.352-2.164,8.229,8.229,0,0,1,.291-1.818,7.973,7.973,0,0,1,0,1.818,12.956,12.956,0,0,1-.206,2.218,19.551,19.551,0,0,1-.606,2.988,26.614,26.614,0,0,1-3.249,7.691A28.865,28.865,0,0,1,353.42,81.68a27.534,27.534,0,0,1-7.34-4.139,33.411,33.411,0,0,1-3.267-2.9,33.157,33.157,0,0,1-2.8-3.467,29.134,29.134,0,0,1,.842-34.7,26.955,26.955,0,0,1,6.37-6.067,27.641,27.641,0,0,1,7.533-3.77,29.3,29.3,0,0,1,15.406-.818,28.97,28.97,0,0,1,19.188,14.394,26.7,26.7,0,0,1,2.879,7.843,19.565,19.565,0,0,1,.442,3.03,12.86,12.86,0,0,1,.1,2.224A8.051,8.051,0,0,1,392.656,55.1Z" transform="translate(-148.962 -25.154)" fill="#ebebeb"/>
      <path id="Trazado_720122" data-name="Trazado 720122" d="M391.72,44.386c.061.085-.455.533-1.449,1.273l-1.818,1.321c-.364.248-.745.533-1.17.8l-1.406.733a32.273,32.273,0,0,1-16.812,4.242l-2.546-.115-2.424-.382c-.394-.067-.794-.121-1.182-.2l-1.139-.3c-.752-.206-1.5-.382-2.2-.606a36.679,36.679,0,0,1-7.188-3.3c-3.83-2.315-5.7-4.424-5.552-4.558s2.236,1.588,6.1,3.588a42.6,42.6,0,0,0,7.03,2.9c.685.2,1.4.352,2.121.533l1.1.273,1.139.176,2.333.339,2.424.1a34.746,34.746,0,0,0,16.273-3.636l1.424-.606c.436-.224.83-.467,1.212-.679l1.976-1.127A5.17,5.17,0,0,1,391.72,44.386Z" transform="translate(-153.741 -32.298)" fill="#ebebeb"/>
      <path id="Trazado_720123" data-name="Trazado 720123" d="M345.426,97c-.067-.085.448-.533,1.442-1.273l1.818-1.321c.364-.255.745-.533,1.17-.8l1.412-.733a32.231,32.231,0,0,1,16.806-4.242l2.546.115,2.424.382c.4.067.794.121,1.182.2l1.145.3c.746.206,1.491.382,2.194.606a36.679,36.679,0,0,1,7.133,3.285c3.83,2.315,5.7,4.424,5.552,4.558s-2.236-1.588-6.1-3.588a42.593,42.593,0,0,0-7.018-2.873c-.685-.2-1.4-.352-2.121-.539l-1.1-.267-1.1-.145-2.333-.339-2.424-.1a34.764,34.764,0,0,0-16.273,3.636l-1.424.606c-.436.224-.83.467-1.212.679L347.2,96.221C346.123,96.815,345.487,97.094,345.426,97Z" transform="translate(-153.187 -50.157)" fill="#ebebeb"/>
      <path id="Trazado_720124" data-name="Trazado 720124" d="M393.158,74.528c0,.436-12.818.479-28.606.1S336,73.576,336,73.14s12.812-.473,28.606-.091S393.164,74.128,393.158,74.528Z" transform="translate(-149.476 -43.918)" fill="#ebebeb"/>
      <path id="Trazado_720125" data-name="Trazado 720125" d="M380.768,83.4c-.436,0-.479-12.812-.091-28.588s1.042-28.57,1.479-28.558.473,12.806.091,28.594S381.18,83.408,380.768,83.4Z" transform="translate(-166.972 -25.586)" fill="#ebebeb"/>
      <path id="Trazado_720126" data-name="Trazado 720126" d="M371.758,83.324c-.109.17-3.261-1.97-6.891-6.8a38.459,38.459,0,0,1-5.109-9.279,34.382,34.382,0,0,1-2.212-12.812,32.728,32.728,0,0,1,2.885-12.679,39.662,39.662,0,0,1,5.564-9.018c3.849-4.655,7.024-6.715,7.133-6.552s-2.721,2.521-6.255,7.236a42.726,42.726,0,0,0-5.133,8.885A32.914,32.914,0,0,0,359.1,54.427a34.818,34.818,0,0,0,2,12.285,41.128,41.128,0,0,0,4.655,9.127C369.061,80.755,371.9,83.155,371.758,83.324Z" transform="translate(-157.962 -25.556)" fill="#ebebeb"/>
      <path id="Trazado_720127" data-name="Trazado 720127" d="M383.406,26.254c.109-.164,3.261,1.97,6.9,6.806a38.437,38.437,0,0,1,5.109,9.279,34.45,34.45,0,0,1,2.212,12.806,32.86,32.86,0,0,1-2.891,12.685,39.751,39.751,0,0,1-5.588,8.988c-3.849,4.655-7.024,6.715-7.127,6.552s2.721-2.521,6.255-7.236a42.67,42.67,0,0,0,5.127-8.879,33.068,33.068,0,0,0,2.648-12.121,34.783,34.783,0,0,0-2.006-12.279,41.214,41.214,0,0,0-4.655-9.133C386.085,28.83,383.249,26.43,383.406,26.254Z" transform="translate(-167.603 -25.584)" fill="#ebebeb"/>
      <path id="Trazado_720128" data-name="Trazado 720128" d="M311.254,405.084V388.69a16.364,16.364,0,1,1-16.364,16.77Z" transform="translate(-133.282 -168.362)" fill="#ebebeb"/>
      <path id="Trazado_720129" data-name="Trazado 720129" d="M304.644,397.8l-16.394.37a17.3,17.3,0,0,1,4.642-11.806,16.885,16.885,0,0,1,11.515-4.952Z" transform="translate(-130.666 -165.495)" fill="#f5f5f5"/>
    </g>
    <g id="freepik--window-3--inject-2" transform="translate(169.258 173.679)">
      <rect id="Rectángulo_347802" data-name="Rectángulo 347802" width="58.643" height="38.673" rx="5.89" transform="translate(0.156 0.311)" fill="#fff"/>
      <path id="Trazado_720131" data-name="Trazado 720131" d="M318.228,309.207a3.26,3.26,0,0,0,.485-.055,3.382,3.382,0,0,0,1.321-.479,3.6,3.6,0,0,0,1.461-1.721,8.978,8.978,0,0,0,.242-3.121c0-4.776-.03-11.679-.055-20.2V275.2a10.078,10.078,0,0,0-.073-1.77,3.436,3.436,0,0,0-2.249-2.552,4.939,4.939,0,0,0-1.818-.194H266.724a3.418,3.418,0,0,0-3.339,2.7,5.637,5.637,0,0,0-.079,1.164v30.637a3.9,3.9,0,0,0,.364,1.982,3.424,3.424,0,0,0,1.339,1.43,3.473,3.473,0,0,0,1.885.467h23.734l20.2.048,5.491.03h-5.491l-20.2.048H266.882a3.83,3.83,0,0,1-2.03-.5,3.74,3.74,0,0,1-1.455-1.552,4.242,4.242,0,0,1-.394-2.109c0-5.636,0-11.558,0-17.691V274.388a5.683,5.683,0,0,1,.085-1.212,3.739,3.739,0,0,1,3.636-2.945h50.819a5.284,5.284,0,0,1,1.915.212,3.7,3.7,0,0,1,2.424,2.752,10.3,10.3,0,0,1,.073,1.818v8.43c0,8.521-.036,15.424-.048,20.2v1.691a3.788,3.788,0,0,1-.273,1.467,3.636,3.636,0,0,1-1.515,1.739,3.273,3.273,0,0,1-1.352.455A2.911,2.911,0,0,1,318.228,309.207Z" transform="translate(-262.992 -270.217)" fill="#263238"/>
      <rect id="Rectángulo_347803" data-name="Rectángulo 347803" width="2.249" height="8.958" transform="translate(26.441 22.772)" fill="#3076b6"/>
      <rect id="Rectángulo_347804" data-name="Rectángulo 347804" width="2.249" height="10.255" transform="translate(7.647 21.475)" fill="#3076b6"/>
      <rect id="Rectángulo_347805" data-name="Rectángulo 347805" width="2.249" height="12.388" transform="translate(12.344 19.336)" fill="#3076b6"/>
      <rect id="Rectángulo_347806" data-name="Rectángulo 347806" width="2.249" height="11.709" transform="translate(17.041 20.014)" fill="#3076b6"/>
      <rect id="Rectángulo_347807" data-name="Rectángulo 347807" width="2.249" height="15.673" transform="translate(21.744 16.051)" fill="#3076b6"/>
      <rect id="Rectángulo_347808" data-name="Rectángulo 347808" width="2.249" height="15.594" transform="translate(31.138 16.129)" fill="#3076b6"/>
      <rect id="Rectángulo_347809" data-name="Rectángulo 347809" width="2.249" height="10.473" transform="translate(35.841 21.251)" fill="#3076b6"/>
      <rect id="Rectángulo_347810" data-name="Rectángulo 347810" width="2.249" height="14.909" transform="translate(40.538 16.814)" fill="#3076b6"/>
      <rect id="Rectángulo_347811" data-name="Rectángulo 347811" width="2.249" height="18.267" transform="translate(45.235 13.457)" fill="#3076b6"/>
      <rect id="Rectángulo_347812" data-name="Rectángulo 347812" width="2.249" height="14.988" transform="translate(49.939 16.742)" fill="#3076b6"/>
      <path id="Trazado_720132" data-name="Trazado 720132" d="M274.076,278.6a1.418,1.418,0,1,1-1.418-1.418A1.418,1.418,0,0,1,274.076,278.6Z" transform="translate(-266.241 -272.96)" fill="#e0e0e0"/>
      <path id="Trazado_720133" data-name="Trazado 720133" d="M280.156,278.6a1.412,1.412,0,1,1-.411-1,1.418,1.418,0,0,1,.411,1Z" transform="translate(-268.636 -272.96)" fill="#e0e0e0"/>
      <path id="Trazado_720134" data-name="Trazado 720134" d="M286.156,278.6a1.418,1.418,0,1,1-1.418-1.418A1.418,1.418,0,0,1,286.156,278.6Z" transform="translate(-271 -272.96)" fill="#e0e0e0"/>
    </g>
    <g id="freepik--window-2--inject-2" transform="translate(240.175 90.352)">
      <rect id="Rectángulo_347813" data-name="Rectángulo 347813" width="50.013" height="78.11" rx="8.43" transform="translate(0.094 0.176)" fill="#fff"/>
      <path id="Trazado_720135" data-name="Trazado 720135" d="M425,211.015h.164a2.215,2.215,0,0,0,.473-.042,5.278,5.278,0,0,0,1.764-.576,5.194,5.194,0,0,0,2.085-2.133,5.091,5.091,0,0,0,.545-1.818c.048-.685,0-1.43,0-2.212,0-6.267-.03-15.327-.055-26.516s0-24.528-.03-39.328a5.012,5.012,0,0,0-2.424-4.6c-1.6-1.03-3.636-.606-5.539-.7H385.208a4.964,4.964,0,0,0-4.691,3.37,9.442,9.442,0,0,0-.261,3.079v64.51c0,.788-.03,1.594,0,2.345a4.994,4.994,0,0,0,4.242,4.467,18.165,18.165,0,0,0,2.152.061h2.127l26.516.055,7.206.03h0l-7.206.03-26.516.048h-2.109a20.4,20.4,0,0,1-2.182-.061,5.224,5.224,0,0,1-4.461-4.673c-.048-.8,0-1.57,0-2.37V137.917a5.314,5.314,0,0,1,.279-1.6,5.224,5.224,0,0,1,1.909-2.588,5.291,5.291,0,0,1,3.079-1h39.679a5.3,5.3,0,0,1,4.776,2.836,5.627,5.627,0,0,1,.485,1.352,7.024,7.024,0,0,1,.109,1.418c0,14.8,0,28.128-.036,39.328s-.036,20.249-.048,26.515c0,.782,0,1.515-.036,2.218a5.019,5.019,0,0,1-.564,1.873,5.261,5.261,0,0,1-2.139,2.139,4.982,4.982,0,0,1-1.818.551,4.554,4.554,0,0,1-.7.055Z" transform="translate(-380.004 -132.729)" fill="#263238"/>
      <circle id="Elipse_8583" data-name="Elipse 8583" cx="1.533" cy="1.533" r="1.533" transform="translate(5.3 5.34)" fill="#e0e0e0"/>
      <path id="Trazado_720136" data-name="Trazado 720136" d="M398.347,143.073a1.533,1.533,0,1,1-1.533-1.533,1.533,1.533,0,0,1,1.533,1.533Z" transform="translate(-386.022 -136.2)" fill="#e0e0e0"/>
      <circle id="Elipse_8584" data-name="Elipse 8584" cx="1.533" cy="1.533" r="1.533" transform="translate(13.216 5.34)" fill="#e0e0e0"/>
      <path id="Trazado_720137" data-name="Trazado 720137" d="M427.608,157.248c0,.085-7.921.158-17.691.158s-17.7-.073-17.7-.158,7.921-.158,17.7-.158S427.608,157.157,427.608,157.248Z" transform="translate(-384.817 -142.325)" fill="#263238"/>
      <path id="Trazado_720138" data-name="Trazado 720138" d="M427.608,162.388c0,.085-7.921.158-17.691.158s-17.7-.073-17.7-.158,7.921-.158,17.7-.158S427.608,162.3,427.608,162.388Z" transform="translate(-384.817 -144.35)" fill="#263238"/>
      <path id="Trazado_720139" data-name="Trazado 720139" d="M427.608,167.528c0,.085-7.921.158-17.691.158s-17.7-.073-17.7-.158,7.921-.158,17.7-.158S427.608,167.437,427.608,167.528Z" transform="translate(-384.817 -146.375)" fill="#263238"/>
      <path id="Trazado_720140" data-name="Trazado 720140" d="M427.608,172.664c0,.085-7.921.158-17.691.158s-17.7-.073-17.7-.158,7.921-.164,17.7-.164S427.608,172.573,427.608,172.664Z" transform="translate(-384.817 -148.396)" fill="#263238"/>
      <path id="Trazado_720141" data-name="Trazado 720141" d="M427.608,177.8c0,.091-7.921.158-17.691.158s-17.7-.067-17.7-.158,7.921-.158,17.7-.158S427.608,177.713,427.608,177.8Z" transform="translate(-384.817 -150.421)" fill="#263238"/>
      <path id="Trazado_720142" data-name="Trazado 720142" d="M427.608,182.9c0,.091-7.921.158-17.691.158s-17.7-.067-17.7-.158,7.921-.158,17.7-.158S427.608,182.837,427.608,182.9Z" transform="translate(-384.817 -152.43)" fill="#263238"/>
      <path id="Trazado_720143" data-name="Trazado 720143" d="M427.608,222.268c0,.085-7.921.158-17.691.158s-17.7-.073-17.7-.158,7.921-.158,17.7-.158S427.608,222.177,427.608,222.268Z" transform="translate(-384.817 -167.939)" fill="#263238"/>
      <path id="Trazado_720144" data-name="Trazado 720144" d="M427.608,227.9c0,.085-7.921.158-17.691.158s-17.7-.073-17.7-.158,7.921-.158,17.7-.158S427.608,227.789,427.608,227.9Z" transform="translate(-384.817 -170.157)" fill="#263238"/>
      <path id="Trazado_720145" data-name="Trazado 720145" d="M427.608,233.458c0,.085-7.921.158-17.691.158s-17.7-.073-17.7-.158,7.921-.158,17.7-.158S427.608,233.367,427.608,233.458Z" transform="translate(-384.817 -172.347)" fill="#263238"/>
      <path id="Trazado_720146" data-name="Trazado 720146" d="M427.608,239.048c0,.085-7.921.158-17.691.158s-17.7-.073-17.7-.158,7.921-.158,17.7-.158S427.608,238.957,427.608,239.048Z" transform="translate(-384.817 -174.549)" fill="#263238"/>
      <path id="Trazado_720147" data-name="Trazado 720147" d="M427.608,244.638c0,.091-7.921.164-17.691.164s-17.7-.073-17.7-.164,7.921-.158,17.7-.158S427.608,244.553,427.608,244.638Z" transform="translate(-384.817 -176.751)" fill="#263238"/>
      <path id="Trazado_720148" data-name="Trazado 720148" d="M428.537,190.362H392.3l.061-.042v12.788l-.061-.048h-.061V190.18h36.3Z" transform="translate(-384.824 -155.361)" fill="#e0e0e0"/>
      <path id="Trazado_720149" data-name="Trazado 720149" d="M428.577,193.969s-8.115.048-18.121.048-18.115,0-18.115-.048,8.109-.048,18.115-.048S428.577,193.969,428.577,193.969Z" transform="translate(-384.864 -156.834)" fill="#e0e0e0"/>
      <path id="Trazado_720150" data-name="Trazado 720150" d="M428.577,196.908s-8.115.042-18.121.042-18.115,0-18.115-.042,8.109-.048,18.115-.048S428.577,196.878,428.577,196.908Z" transform="translate(-384.864 -157.992)" fill="#e0e0e0"/>
      <path id="Trazado_720151" data-name="Trazado 720151" d="M428.577,199.812s-8.115.048-18.121.048-18.115,0-18.115-.048,8.109-.042,18.115-.042S428.577,199.788,428.577,199.812Z" transform="translate(-384.864 -159.138)" fill="#e0e0e0"/>
      <path id="Trazado_720152" data-name="Trazado 720152" d="M428.577,202.719s-8.115.042-18.121.042-18.115,0-18.115-.042,8.109-.048,18.115-.048S428.577,202.694,428.577,202.719Z" transform="translate(-384.864 -160.281)" fill="#e0e0e0"/>
      <path id="Trazado_720153" data-name="Trazado 720153" d="M428.577,205.622s-8.115.048-18.121.048-18.115,0-18.115-.048,8.109-.042,18.115-.042S428.577,205.6,428.577,205.622Z" transform="translate(-384.864 -161.427)" fill="#e0e0e0"/>
      <path id="Trazado_720154" data-name="Trazado 720154" d="M392.34,208.528s8.109-.048,18.115-.048,18.121,0,18.121.048-8.115.048-18.121.048S392.34,208.553,392.34,208.528Z" transform="translate(-384.864 -162.57)" fill="#e0e0e0"/>
      <path id="Trazado_720155" data-name="Trazado 720155" d="M400.782,203.462s-.042-2.909-.042-6.491,0-6.491.042-6.491.048,2.9.048,6.491S400.813,203.462,400.782,203.462Z" transform="translate(-388.173 -155.479)" fill="#e0e0e0"/>
      <path id="Trazado_720156" data-name="Trazado 720156" d="M409.392,203.462s-.042-2.909-.042-6.491,0-6.491.042-6.491.048,2.9.048,6.491S409.423,203.462,409.392,203.462Z" transform="translate(-391.565 -155.479)" fill="#e0e0e0"/>
      <path id="Trazado_720157" data-name="Trazado 720157" d="M417.969,203.462c-.03,0-.048-2.909-.048-6.491s0-6.491.048-6.491.042,2.9.042,6.491S418.017,203.462,417.969,203.462Z" transform="translate(-394.941 -155.479)" fill="#e0e0e0"/>
      <path id="Trazado_720158" data-name="Trazado 720158" d="M426.619,203.462s-.048-2.909-.048-6.491,0-6.491.048-6.491.042,2.9.042,6.491S426.643,203.462,426.619,203.462Z" transform="translate(-398.348 -155.479)" fill="#e0e0e0"/>
      <path id="Trazado_720159" data-name="Trazado 720159" d="M435.228,203.462c-.03,0-.048-2.909-.048-6.491s0-6.491.048-6.491.042,2.9.042,6.491S435.253,203.462,435.228,203.462Z" transform="translate(-401.74 -155.479)" fill="#e0e0e0"/>
      <path id="Trazado_720160" data-name="Trazado 720160" d="M443.559,203.462s-.048-2.909-.048-6.491,0-6.491.048-6.491.048,2.9.048,6.491S443.583,203.462,443.559,203.462Z" transform="translate(-405.021 -155.479)" fill="#e0e0e0"/>
      <path id="Trazado_720161" data-name="Trazado 720161" d="M452.172,203.462s-.042-2.909-.042-6.491,0-6.491.042-6.491.048,2.9.048,6.491S452.2,203.462,452.172,203.462Z" transform="translate(-408.417 -155.479)" fill="#e0e0e0"/>
      <path id="Trazado_720162" data-name="Trazado 720162" d="M400.87,208.363a.39.39,0,1,1-.321-.291.315.315,0,0,1,.321.291Z" transform="translate(-387.939 -162.404)" fill="#3076b6"/>
      <circle id="Elipse_8585" data-name="Elipse 8585" cx="0.315" cy="0.315" r="0.315" transform="translate(17.513 42.122)" fill="#3076b6"/>
      <path id="Trazado_720163" data-name="Trazado 720163" d="M418.144,205.42a.321.321,0,1,1-.318-.277.321.321,0,0,1,.318.277Z" transform="translate(-394.777 -161.255)" fill="#3076b6"/>
      <path id="Trazado_720164" data-name="Trazado 720164" d="M426.754,199.417a.33.33,0,0,1-.467.467h0a.33.33,0,0,1,.467-.467Z" transform="translate(-398.199 -158.961)" fill="#3076b6"/>
      <path id="Trazado_720165" data-name="Trazado 720165" d="M435.464,199.417a.33.33,0,0,1-.467.467h0a.33.33,0,0,1,.467-.467Z" transform="translate(-401.63 -158.961)" fill="#3076b6"/>
      <path id="Trazado_720166" data-name="Trazado 720166" d="M443.637,205.129a.328.328,0,1,1-.461.467h0a.328.328,0,0,1,.461-.467Z" transform="translate(-404.852 -161.212)" fill="#3076b6"/>
      <path id="Trazado_720167" data-name="Trazado 720167" d="M409.584,196.7a.321.321,0,1,1-.145-.314A.321.321,0,0,1,409.584,196.7Z" transform="translate(-391.405 -157.786)" fill="#455a64"/>
      <path id="Trazado_720168" data-name="Trazado 720168" d="M400.926,205.445a.321.321,0,0,1-.321.321.319.319,0,1,1,.321-.321Z" transform="translate(-387.996 -161.25)" fill="#455a64"/>
      <path id="Trazado_720169" data-name="Trazado 720169" d="M443.635,208.117a.328.328,0,1,1-.464,0A.328.328,0,0,1,443.635,208.117Z" transform="translate(-404.85 -162.388)" fill="#455a64"/>
      <path id="Trazado_720170" data-name="Trazado 720170" d="M435.366,202.541a.318.318,0,0,1-.636,0,.321.321,0,0,1,.321-.321.315.315,0,0,1,.315.321Z" transform="translate(-401.563 -160.104)" fill="#455a64"/>
      <path id="Trazado_720171" data-name="Trazado 720171" d="M426.846,202.465a.321.321,0,0,1-.321.321.319.319,0,1,1,.321-.321Z" transform="translate(-398.206 -160.076)" fill="#455a64"/>
      <path id="Trazado_720172" data-name="Trazado 720172" d="M396.566,213.969a2.636,2.636,0,0,1-1.006,0,2.636,2.636,0,0,1,1.006,0Z" transform="translate(-386.132 -164.713)" fill="#e0e0e0"/>
      <path id="Trazado_720173" data-name="Trazado 720173" d="M405.346,213.969a2.636,2.636,0,0,1-1.006,0,2.637,2.637,0,0,1,1.006,0Z" transform="translate(-389.591 -164.713)" fill="#e0e0e0"/>
      <path id="Trazado_720174" data-name="Trazado 720174" d="M414.166,213.969a2.636,2.636,0,0,1-1.006,0,2.637,2.637,0,0,1,1.006,0Z" transform="translate(-393.066 -164.713)" fill="#e0e0e0"/>
      <path id="Trazado_720175" data-name="Trazado 720175" d="M422.966,213.969a2.636,2.636,0,0,1-1.006,0,2.636,2.636,0,0,1,1.006,0Z" transform="translate(-396.532 -164.713)" fill="#e0e0e0"/>
      <path id="Trazado_720176" data-name="Trazado 720176" d="M431.766,213.969a2.636,2.636,0,0,1-1.006,0,2.637,2.637,0,0,1,1.006,0Z" transform="translate(-399.999 -164.713)" fill="#e0e0e0"/>
      <path id="Trazado_720177" data-name="Trazado 720177" d="M439.636,213.969a2.635,2.635,0,0,1-1.006,0A2.636,2.636,0,0,1,439.636,213.969Z" transform="translate(-403.099 -164.713)" fill="#e0e0e0"/>
      <path id="Trazado_720178" data-name="Trazado 720178" d="M447.506,213.969a2.636,2.636,0,0,1-1.006,0,2.637,2.637,0,0,1,1.006,0Z" transform="translate(-406.199 -164.713)" fill="#e0e0e0"/>
      <path id="Trazado_720179" data-name="Trazado 720179" d="M390.572,211.429a1.964,1.964,0,0,1-.812,0A1.727,1.727,0,0,1,390.572,211.429Z" transform="translate(-383.848 -163.712)" fill="#e0e0e0"/>
      <path id="Trazado_720180" data-name="Trazado 720180" d="M390.572,208.049a1.963,1.963,0,0,1-.812,0A1.727,1.727,0,0,1,390.572,208.049Z" transform="translate(-383.848 -162.381)" fill="#e0e0e0"/>
      <path id="Trazado_720181" data-name="Trazado 720181" d="M390.572,204.669a1.964,1.964,0,0,1-.812,0,1.727,1.727,0,0,1,.812,0Z" transform="translate(-383.848 -161.049)" fill="#e0e0e0"/>
      <path id="Trazado_720182" data-name="Trazado 720182" d="M390.572,201.289a1.963,1.963,0,0,1-.812,0,1.728,1.728,0,0,1,.812,0Z" transform="translate(-383.848 -159.718)" fill="#e0e0e0"/>
      <path id="Trazado_720183" data-name="Trazado 720183" d="M390.572,197.909a1.964,1.964,0,0,1-.812,0,1.727,1.727,0,0,1,.812,0Z" transform="translate(-383.848 -158.386)" fill="#e0e0e0"/>
      <path id="Trazado_720184" data-name="Trazado 720184" d="M390.572,194.529a1.964,1.964,0,0,1-.812,0A1.727,1.727,0,0,1,390.572,194.529Z" transform="translate(-383.848 -157.055)" fill="#e0e0e0"/>
      <path id="Trazado_720185" data-name="Trazado 720185" d="M390.572,191.149a1.964,1.964,0,0,1-.812,0A1.727,1.727,0,0,1,390.572,191.149Z" transform="translate(-383.848 -155.723)" fill="#e0e0e0"/>
      <path id="Trazado_720186" data-name="Trazado 720186" d="M392.245,206.979l-.055-.164,5.188-1.824,5.243-3.539,5.218,1.727,5.261-3.467,5.267-.012.024.012,5,3.539,4.849-3.206.1.145-4.945,3.273-.055-.036-5.024-3.552-5.158.012-5.285,3.485-5.218-1.727-5.206,3.509Z" transform="translate(-384.805 -159.111)" fill="#3076b6"/>
      <path id="Trazado_720187" data-name="Trazado 720187" d="M423.48,202.758l-5.109-3.473H413.1l-5.267-3.473-5.109-.048-5.218,5.285h-5.17v-.176h5.1l5.224-5.285,5.23.048,5.267,3.473h5.267l4.994,3.4,4.988-8.77.152.085Z" transform="translate(-384.864 -156.763)" fill="#455a64"/>
    </g>
    <g id="freepik--window-1--inject-2" transform="translate(81.224 44.57)">
      <path id="Trazado_720188" data-name="Trazado 720188" d="M136.838,57.45H264.615a5.309,5.309,0,0,1,5.309,5.309V166.876A7.624,7.624,0,0,1,262.3,174.5H139.7a7.624,7.624,0,0,1-7.624-7.624V62.208a4.758,4.758,0,0,1,4.758-4.758Z" transform="translate(-123.388 -57.292)" fill="#fff"/>
      <path id="Trazado_720189" data-name="Trazado 720189" d="M135.832,57.45h129.6a4.3,4.3,0,0,1,4.3,4.3v9.788H132.08V61.2a3.752,3.752,0,0,1,3.752-3.752Z" transform="translate(-123.388 -57.292)" fill="#e0e0e0"/>
      <path id="Trazado_720190" data-name="Trazado 720190" d="M269.856,80.6c0,.085-30.77.158-68.722.158S132.4,80.682,132.4,80.6s30.764-.158,68.734-.158S269.856,80.507,269.856,80.6Z" transform="translate(-123.514 -66.349)" fill="#263238"/>
      <path id="Trazado_720191" data-name="Trazado 720191" d="M142.8,68.733a1.3,1.3,0,1,1-.38-.923A1.3,1.3,0,0,1,142.8,68.733Z" transform="translate(-126.583 -61.224)" fill="#263238"/>
      <path id="Trazado_720192" data-name="Trazado 720192" d="M149.636,68.733a1.3,1.3,0,1,1-.378-.921A1.3,1.3,0,0,1,149.636,68.733Z" transform="translate(-129.277 -61.224)" fill="#263238"/>
      <path id="Trazado_720193" data-name="Trazado 720193" d="M156.616,68.733a1.3,1.3,0,1,1-.38-.923A1.3,1.3,0,0,1,156.616,68.733Z" transform="translate(-132.027 -61.224)" fill="#263238"/>
      <path id="Trazado_720194" data-name="Trazado 720194" d="M254.641,97.9c0,.085-9.94.158-22.2.158s-22.2-.073-22.2-.158,9.94-.158,22.2-.158S254.641,97.831,254.641,97.9Z" transform="translate(-154.178 -73.164)" fill="#263238"/>
      <path id="Trazado_720195" data-name="Trazado 720195" d="M215.018,113.378c0,.091-11.9.158-26.564.158s-26.564-.067-26.564-.158,11.891-.158,26.564-.158S215.018,113.293,215.018,113.378Z" transform="translate(-135.131 -79.262)" fill="#263238"/>
      <path id="Trazado_720196" data-name="Trazado 720196" d="M215.018,121.668c0,.091-11.9.158-26.564.158s-26.564-.067-26.564-.158,11.891-.158,26.564-.158S215.018,121.583,215.018,121.668Z" transform="translate(-135.131 -82.528)" fill="#263238"/>
      <path id="Trazado_720197" data-name="Trazado 720197" d="M215.018,129.958c0,.091-11.9.164-26.564.164s-26.564-.073-26.564-.164,11.891-.158,26.564-.158S215.018,129.873,215.018,129.958Z" transform="translate(-135.131 -85.793)" fill="#263238"/>
      <path id="Trazado_720198" data-name="Trazado 720198" d="M215.018,138.254c0,.085-11.9.158-26.564.158s-26.564-.073-26.564-.158,11.891-.164,26.564-.164S215.018,138.163,215.018,138.254Z" transform="translate(-135.131 -89.059)" fill="#263238"/>
      <path id="Trazado_720199" data-name="Trazado 720199" d="M215.018,146.544c0,.085-11.9.158-26.564.158s-26.564-.073-26.564-.158,11.891-.164,26.564-.164S215.018,146.453,215.018,146.544Z" transform="translate(-135.131 -92.325)" fill="#263238"/>
      <path id="Trazado_720200" data-name="Trazado 720200" d="M215.018,169.578c0,.091-11.9.158-26.564.158s-26.564-.067-26.564-.158,11.891-.158,26.564-.158S215.018,169.493,215.018,169.578Z" transform="translate(-135.131 -101.401)" fill="#263238"/>
      <path id="Trazado_720201" data-name="Trazado 720201" d="M215.018,161.228c0,.091-11.9.158-26.564.158s-26.564-.067-26.564-.158,11.891-.158,26.564-.158S215.018,161.143,215.018,161.228Z" transform="translate(-135.131 -98.112)" fill="#263238"/>
      <path id="Trazado_720202" data-name="Trazado 720202" d="M296.3,111.79a14.352,14.352,0,1,0,14.346,14.348A14.352,14.352,0,0,0,296.3,111.79Zm.218,22.946a8.831,8.831,0,1,1,.006,0Z" transform="translate(-182.422 -78.699)" fill="#3076b6"/>
      <path id="Trazado_720203" data-name="Trazado 720203" d="M287.721,126.646a8.812,8.812,0,0,1,5.224-8.049l-2.206-4.958A14.358,14.358,0,0,0,282,126.864q0,.3,0,.606h5.776A6.284,6.284,0,0,1,287.721,126.646Z" transform="translate(-182.446 -79.427)" fill="#e0e0e0"/>
      <path id="Trazado_720204" data-name="Trazado 720204" d="M309.786,165.019c0,.073-5.315.133-11.873.133s-11.873-.061-11.873-.133,5.315-.139,11.873-.139S309.786,164.953,309.786,165.019Z" transform="translate(-184.038 -99.613)" fill="#263238"/>
      <path id="Trazado_720205" data-name="Trazado 720205" d="M307.93,168.619c0,.073-2.945.133-6.582.133s-6.588-.061-6.588-.133,2.952-.139,6.588-.139S307.93,168.541,307.93,168.619Z" transform="translate(-187.473 -101.031)" fill="#263238"/>
      <path id="Trazado_720206" data-name="Trazado 720206" d="M302.139,132v.606l-1.164,2.721h-1.018l1.115-2.564H300.2v.509h-.8V132Z" transform="translate(-189.3 -86.66)" fill="#263238"/>
      <path id="Trazado_720207" data-name="Trazado 720207" d="M306.8,134.282c0,.606-.442,1.127-1.442,1.127a2.491,2.491,0,0,1-1.279-.321l.333-.709a1.673,1.673,0,0,0,.915.279c.321,0,.533-.127.533-.352s-.139-.333-.642-.333h-.9l.164-1.933h2.1v.721h-1.345l-.042.485h.218C306.419,133.228,306.8,133.695,306.8,134.282Z" transform="translate(-191.144 -86.676)" fill="#263238"/>
      <path id="Trazado_720208" data-name="Trazado 720208" d="M308.837,132.913a.849.849,0,1,1,.842.915.83.83,0,0,1-.842-.915Zm2.8-.873h.679l-2.261,3.3h-.679Zm-1.679.873c0-.333-.115-.467-.279-.467s-.279.133-.279.467.127.467.279.467S309.958,133.228,309.958,132.913Zm1.212,1.558a.848.848,0,1,1,.842.915.83.83,0,0,1-.842-.915Zm1.121,0c0-.333-.121-.467-.279-.467s-.279.133-.279.467.121.467.279.467S312.292,134.81,312.292,134.47Z" transform="translate(-193.016 -86.676)" fill="#263238"/>
      <rect id="Rectángulo_347814" data-name="Rectángulo 347814" width="4.097" height="9.436" transform="translate(32.474 97.238)" fill="#ebebeb"/>
      <rect id="Rectángulo_347815" data-name="Rectángulo 347815" width="4.097" height="9.436" transform="translate(46.371 97.238)" fill="#ebebeb"/>
      <rect id="Rectángulo_347816" data-name="Rectángulo 347816" width="4.097" height="18.031" transform="translate(39.426 88.644)" fill="#f5f5f5"/>
      <rect id="Rectángulo_347817" data-name="Rectángulo 347817" width="4.097" height="18.031" transform="translate(53.323 88.644)" fill="#f5f5f5"/>
      <rect id="Rectángulo_347818" data-name="Rectángulo 347818" width="4.097" height="17.515" transform="translate(60.269 89.159)" fill="#ebebeb"/>
      <rect id="Rectángulo_347819" data-name="Rectángulo 347819" width="4.097" height="17.515" transform="translate(74.166 89.159)" fill="#ebebeb"/>
      <rect id="Rectángulo_347820" data-name="Rectángulo 347820" width="4.097" height="17.515" transform="translate(88.063 89.159)" fill="#ebebeb"/>
      <rect id="Rectángulo_347821" data-name="Rectángulo 347821" width="4.097" height="26.709" transform="translate(67.22 79.971)" fill="#f5f5f5"/>
      <rect id="Rectángulo_347822" data-name="Rectángulo 347822" width="4.097" height="24.091" transform="translate(81.117 82.583)" fill="#f5f5f5"/>
      <rect id="Rectángulo_347823" data-name="Rectángulo 347823" width="4.097" height="17.515" transform="translate(108.59 89.159)" fill="#ebebeb"/>
      <rect id="Rectángulo_347824" data-name="Rectángulo 347824" width="4.097" height="14.152" transform="translate(101.645 92.522)" fill="#f5f5f5"/>
      <rect id="Rectángulo_347825" data-name="Rectángulo 347825" width="4.097" height="26.861" transform="translate(123.124 79.813)" fill="#ebebeb"/>
      <rect id="Rectángulo_347826" data-name="Rectángulo 347826" width="4.097" height="14.152" transform="translate(116.178 92.522)" fill="#f5f5f5"/>
      <rect id="Rectángulo_347827" data-name="Rectángulo 347827" width="4.097" height="14.152" transform="translate(130.082 92.522)" fill="#f5f5f5"/>
      <rect id="Rectángulo_347828" data-name="Rectángulo 347828" width="4.097" height="20.4" transform="translate(95.015 86.274)" fill="#ebebeb"/>
      <circle id="Elipse_8586" data-name="Elipse 8586" cx="1.055" cy="1.055" r="1.055" transform="translate(67.875 78.916)" fill="#3076b6"/>
      <path id="Trazado_720209" data-name="Trazado 720209" d="M230.225,189.8a1.915,1.915,0,1,1,1.915-1.909,1.915,1.915,0,0,1-1.915,1.909Zm0-3.673a1.764,1.764,0,1,0,1.758,1.764,1.764,1.764,0,0,0-1.758-1.764Z" transform="translate(-161.296 -107.921)" fill="#3076b6"/>
      <path id="Trazado_720210" data-name="Trazado 720210" d="M231.9,182.592l-.055-2.073.515.012-.964-1.182-.97,1.188.533.006.055,2.049Z" transform="translate(-162.131 -105.313)" fill="#ebebeb"/>
      <path id="Trazado_720211" data-name="Trazado 720211" d="M175.249,209.825a1.055,1.055,0,1,1-1.055-1.055A1.055,1.055,0,0,1,175.249,209.825Z" transform="translate(-139.563 -116.902)" fill="#3076b6"/>
      <path id="Trazado_720212" data-name="Trazado 720212" d="M173.635,211.24a1.909,1.909,0,1,1,1.354-.557A1.915,1.915,0,0,1,173.635,211.24Zm0-3.673a1.758,1.758,0,1,0,1.249.515,1.764,1.764,0,0,0-1.249-.515Z" transform="translate(-139.003 -116.366)" fill="#3076b6"/>
      <path id="Trazado_720213" data-name="Trazado 720213" d="M173.525,199.73l.055,2.158-.539-.006,1.006,1.224,1.006-1.236-.558-.006-.055-2.127Z" transform="translate(-139.523 -113.341)" fill="#ebebeb"/>
      <path id="Trazado_720214" data-name="Trazado 720214" d="M265.495,192.29l.055,2.158-.539-.006,1.006,1.224,1.006-1.236-.558-.006-.055-2.127Z" transform="translate(-175.753 -110.41)" fill="#ebebeb"/>
      <path id="Trazado_720215" data-name="Trazado 720215" d="M236.86,209.881l-12.334-11.57c-7.818-3.776-19.885-9.333-21.291-9.261-1.576.1-31.516,11.891-42.891,16.431l-.224-.564c1.679-.667,41.079-16.364,43.079-16.467h.042c2.188,0,19.594,8.382,21.588,9.34l.073.055,12.055,11.3c2.291-1.212,15.4-8.127,15.624-8.224.079-.036.285-.121,18.315-.121v.606c-6.921,0-17.315,0-18.1.085-.685.345-10.521,5.533-15.758,8.291Z" transform="translate(-134.434 -108.897)" fill="#3076b6"/>
      <path id="Trazado_720216" data-name="Trazado 720216" d="M267.039,203.195a1.055,1.055,0,1,1-1.055-1.055A1.055,1.055,0,0,1,267.039,203.195Z" transform="translate(-175.722 -114.29)" fill="#3076b6"/>
      <path id="Trazado_720217" data-name="Trazado 720217" d="M265.425,204.61a1.915,1.915,0,1,1,1.915-1.915A1.915,1.915,0,0,1,265.425,204.61Zm0-3.673a.731.731,0,1,0,0-.024Z" transform="translate(-175.162 -113.755)" fill="#3076b6"/>
      <path id="Trazado_720218" data-name="Trazado 720218" d="M313.249,208.375a1.055,1.055,0,1,1-1.055-1.055A1.055,1.055,0,0,1,313.249,208.375Z" transform="translate(-193.925 -116.331)" fill="#3076b6"/>
      <path id="Trazado_720219" data-name="Trazado 720219" d="M311.635,209.79a1.915,1.915,0,1,1,1.915-1.915A1.915,1.915,0,0,1,311.635,209.79Zm0-3.673a1.764,1.764,0,1,0,1.758,1.758A1.764,1.764,0,0,0,311.635,206.118Z" transform="translate(-193.366 -115.795)" fill="#3076b6"/>
      <path id="Trazado_720220" data-name="Trazado 720220" d="M311.629,198.73l.061,2.158-.539-.012,1.006,1.23,1.006-1.242H312.6l-.061-2.127Z" transform="translate(-193.929 -112.947)" fill="#ebebeb"/>
      <path id="Trazado_720221" data-name="Trazado 720221" d="M262.556,174.379h.727l.552-.085a8.024,8.024,0,0,0,1.515-.448,7.82,7.82,0,0,0,1.861-1.139,7.273,7.273,0,0,0,1.733-2.145,7.418,7.418,0,0,0,.836-3.206c0-2.424,0-5.242,0-8.4,0-12.643-.03-30.91-.048-53.522V63.439a8.071,8.071,0,0,0-.206-2.485,4.8,4.8,0,0,0-1.3-2.1,4.7,4.7,0,0,0-2.176-1.212A11.134,11.134,0,0,0,263.5,57.5H135.954a4.242,4.242,0,0,0-3.806,4.194v104.08a13.666,13.666,0,0,0,.127,2.649,7.164,7.164,0,0,0,4.939,5.515,7.945,7.945,0,0,0,2.533.309h49.7l53.522.048,14.546.03H242.968l-53.522.055h-49.7a8.351,8.351,0,0,1-2.612-.321A7.43,7.43,0,0,1,132,168.337a13.94,13.94,0,0,1-.133-2.7V61.723a4.576,4.576,0,0,1,4.085-4.509c1.109-.055,2.164,0,3.249,0H264.8a5.455,5.455,0,0,1,1.321.152,5.049,5.049,0,0,1,2.3,1.261,5.2,5.2,0,0,1,1.37,2.218A8.589,8.589,0,0,1,270,63.408V105.4c0,22.594-.042,40.879-.055,53.522v8.4a7.273,7.273,0,0,1-2.624,5.4,7.74,7.74,0,0,1-1.879,1.133,7.546,7.546,0,0,1-1.527.436l-.558.079h-.406Z" transform="translate(-123.299 -57.19)" fill="#263238"/>
      <circle id="Elipse_8587" data-name="Elipse 8587" cx="6.37" cy="6.37" r="6.37" transform="translate(139.662 64.456) rotate(-76.78)" fill="#f5f5f5"/>
      <path id="Trazado_720222" data-name="Trazado 720222" d="M350.311,151.5a12.3,12.3,0,0,0,.255,1.539,6.273,6.273,0,0,0,8.23,4.309,6.227,6.227,0,0,0,2.891-9.521,5.788,5.788,0,0,0-1.315-1.321,5.606,5.606,0,0,0-1.576-.848,6.236,6.236,0,0,0-5.9.867,6.37,6.37,0,0,0-2.327,3.436,12.723,12.723,0,0,0-.255,1.539,4.739,4.739,0,0,1,.139-1.57,6.309,6.309,0,0,1,2.3-3.582,6.467,6.467,0,0,1,6.146-.964,6.062,6.062,0,0,1,1.655.879,6.358,6.358,0,0,1,1.382,1.382,6.485,6.485,0,0,1,0,7.715,6.357,6.357,0,0,1-1.382,1.382,6.224,6.224,0,0,1-1.655.879,6.434,6.434,0,0,1-8.449-4.552A4.739,4.739,0,0,1,350.311,151.5Z" transform="translate(-209.35 -91.78)" fill="#263238"/>
      <path id="Trazado_720223" data-name="Trazado 720223" d="M359.024,156.352a.3.3,0,0,1-.182-.539l1.636-1.279-1.655-1.249a.3.3,0,0,1,.37-.485l1.964,1.491a.3.3,0,0,1,.121.236.309.309,0,0,1-.115.242l-1.952,1.521A.3.3,0,0,1,359.024,156.352Z" transform="translate(-212.663 -94.83)" fill="#263238"/>
      <circle id="Elipse_8588" data-name="Elipse 8588" cx="6.37" cy="6.37" r="6.37" transform="translate(0 64.844) rotate(-76.78)" fill="#f5f5f5"/>
      <path id="Trazado_720224" data-name="Trazado 720224" d="M132.5,152.133a13.3,13.3,0,0,0-.261-1.539,6.327,6.327,0,0,0-2.327-3.436,6.17,6.17,0,0,0-2.63-1.152,6.249,6.249,0,0,0-3.273.279,6.024,6.024,0,0,0-1.576.849,5.922,5.922,0,0,0-1.309,1.327,6.194,6.194,0,0,0,0,7.346,5.89,5.89,0,0,0,1.309,1.321,5.691,5.691,0,0,0,1.576.849,6.249,6.249,0,0,0,3.273.285,6.169,6.169,0,0,0,2.63-1.152,6.37,6.37,0,0,0,2.327-3.436,13.792,13.792,0,0,0,.261-1.539,4.964,4.964,0,0,1-.139,1.57,6.412,6.412,0,0,1-5.03,4.812,6.491,6.491,0,0,1-3.424-.261,6.558,6.558,0,0,1-3.03-2.267,6.461,6.461,0,0,1,0-7.715,6.1,6.1,0,0,1,1.382-1.382,6.188,6.188,0,0,1,1.649-.879,6.558,6.558,0,0,1,3.424-.267,6.467,6.467,0,0,1,2.721,1.212,6.339,6.339,0,0,1,2.309,3.582,4.963,4.963,0,0,1,.139,1.594Z" transform="translate(-118.472 -92.03)" fill="#263238"/>
      <path id="Trazado_720225" data-name="Trazado 720225" d="M130.523,156.983a.285.285,0,0,1-.182-.061l-1.97-1.491a.3.3,0,0,1-.121-.236.3.3,0,0,1,.121-.242l1.945-1.521a.3.3,0,1,1,.37.479l-1.636,1.279,1.655,1.248a.3.3,0,0,1-.182.545Z" transform="translate(-121.879 -95.073)" fill="#263238"/>
    </g>
    <g id="freepik--Plant--inject-2" transform="translate(220.19 191.039)">
      <path id="Trazado_720226" data-name="Trazado 720226" d="M420.71,412.009c8.079-3.43,17.437-10.176,21.606-18.449a45.977,45.977,0,0,0-21.606,18.449" transform="translate(-376.055 -336.165)" fill="#263238"/>
      <path id="Trazado_720227" data-name="Trazado 720227" d="M423.55,390.835c8.079-3.43,17.431-10.182,21.606-18.455a46.019,46.019,0,0,0-21.606,18.455" transform="translate(-377.174 -327.822)" fill="#263238"/>
      <path id="Trazado_720228" data-name="Trazado 720228" d="M427.4,370.229c8.085-3.43,17.437-10.176,21.612-18.449A46.025,46.025,0,0,0,427.4,370.229" transform="translate(-378.69 -319.707)" fill="#263238"/>
      <path id="Trazado_720229" data-name="Trazado 720229" d="M432.24,346.819c7.624-4.521,16.121-12.509,19.285-21.279a47.516,47.516,0,0,0-19.285,21.279" transform="translate(-380.597 -309.37)" fill="#263238"/>
      <path id="Trazado_720230" data-name="Trazado 720230" d="M437.41,326.3c5.552-7.273,10.733-18.073,10.661-27.443A51.055,51.055,0,0,0,437.41,326.3" transform="translate(-382.634 -298.86)" fill="#263238"/>
      <path id="Trazado_720231" data-name="Trazado 720231" d="M427.418,332.792c-1.115-9.83-4.939-22.182-11.418-29.552a60,60,0,0,0,11.418,29.552" transform="translate(-374.199 -300.585)" fill="#263238"/>
      <path id="Trazado_720232" data-name="Trazado 720232" d="M421.216,350.378c-1.982-10.127-6.982-22.655-14.346-29.758a62.3,62.3,0,0,0,14.346,29.758" transform="translate(-370.603 -307.432)" fill="#263238"/>
      <path id="Trazado_720233" data-name="Trazado 720233" d="M416.26,372c-1.976-10.127-6.976-22.655-14.34-29.758A62.352,62.352,0,0,0,416.26,372" transform="translate(-368.653 -315.949)" fill="#263238"/>
      <path id="Trazado_720234" data-name="Trazado 720234" d="M412.29,398.544c-1.976-10.127-6.976-22.655-14.34-29.764a62.37,62.37,0,0,0,14.34,29.764" transform="translate(-367.089 -326.404)" fill="#263238"/>
      <path id="Trazado_720235" data-name="Trazado 720235" d="M430.431,341a.354.354,0,0,1-.061.151,3.643,3.643,0,0,0-.158.449l-.558,1.758c-.485,1.521-1.145,3.739-1.915,6.491s-1.624,6.061-2.5,9.7-1.739,7.739-2.552,12.024-1.455,8.388-1.988,12.121-.915,7.121-1.212,9.964-.479,5.146-.576,6.74c-.048.782-.091,1.394-.115,1.818v.479a.426.426,0,0,0,0,.164v-.164c0-.109.036-.279.055-.473.042-.442.1-1.055.176-1.818.139-1.594.364-3.891.679-6.727s.727-6.212,1.261-9.952,1.212-7.83,2.006-12.121,1.679-8.339,2.527-12.018,1.691-6.97,2.424-9.7,1.364-4.982,1.818-6.515l.5-1.764c.055-.194.091-.345.127-.467A.606.606,0,0,0,430.431,341Z" transform="translate(-375.297 -315.46)" fill="#263238"/>
      <path id="Trazado_720236" data-name="Trazado 720236" d="M413.992,416.5c3.43-7.176,5.921-17.267,4.242-25.146a44.625,44.625,0,0,0-4.242,25.146" transform="translate(-373.277 -335.295)" fill="#455a64"/>
      <path id="Trazado_720237" data-name="Trazado 720237" d="M404.591,401.166c3.424-7.182,5.921-17.267,4.242-25.146a44.576,44.576,0,0,0-4.242,25.146" transform="translate(-369.573 -329.256)" fill="#455a64"/>
      <path id="Trazado_720238" data-name="Trazado 720238" d="M396.161,385.576c3.424-7.182,5.915-17.267,4.242-25.146a44.576,44.576,0,0,0-4.242,25.146" transform="translate(-366.252 -323.114)" fill="#455a64"/>
      <path id="Trazado_720239" data-name="Trazado 720239" d="M387.225,368.512c2.546-7.594,3.824-17.946,1.212-25.522a44.849,44.849,0,0,0-1.212,25.522" transform="translate(-362.352 -316.244)" fill="#455a64"/>
      <path id="Trazado_720240" data-name="Trazado 720240" d="M377.689,355.63c-.249-8.085-2.63-18.182-7.649-24.17a43.837,43.837,0,0,0,7.649,24.17" transform="translate(-356.094 -311.702)" fill="#455a64"/>
      <path id="Trazado_720241" data-name="Trazado 720241" d="M370.139,370.259c-5.946-5.612-14.982-11.182-23.109-11.909a44.849,44.849,0,0,0,23.109,11.909" transform="translate(-347.03 -322.295)" fill="#455a64"/>
      <path id="Trazado_720242" data-name="Trazado 720242" d="M375.449,385.339c-6.667-5.279-16.558-10.23-25.109-10.249a46.667,46.667,0,0,0,25.109,10.249" transform="translate(-348.334 -328.889)" fill="#455a64"/>
      <path id="Trazado_720243" data-name="Trazado 720243" d="M383.675,402.225c-6.667-5.279-16.558-10.236-25.115-10.255a46.6,46.6,0,0,0,25.116,10.255" transform="translate(-351.572 -335.539)" fill="#455a64"/>
      <path id="Trazado_720244" data-name="Trazado 720244" d="M395.229,421.695c-6.667-5.279-16.558-10.237-25.109-10.255a46.582,46.582,0,0,0,25.109,10.255" transform="translate(-356.126 -343.209)" fill="#455a64"/>
      <path id="Trazado_720245" data-name="Trazado 720245" d="M381.38,368.92a.415.415,0,0,0,.036.133l.133.376c.139.358.327.842.558,1.455.485,1.261,1.212,3.073,2.182,5.291,1.9,4.442,4.715,10.5,8.218,17,1.752,3.242,3.509,6.291,5.158,9.03s3.194,5.158,4.539,7.17,2.424,3.636,3.236,4.721l.909,1.261.242.327a.648.648,0,0,0,.091.1.207.207,0,0,0-.067-.121l-.218-.345-.867-1.291c-.758-1.115-1.818-2.745-3.152-4.77s-2.836-4.467-4.479-7.2-3.376-5.788-5.133-9.03c-3.491-6.485-6.333-12.546-8.285-16.94-.976-2.206-1.745-4-2.267-5.249l-.606-1.43c-.067-.152-.121-.273-.17-.37A.532.532,0,0,0,381.38,368.92Z" transform="translate(-360.562 -326.459)" fill="#263238"/>
      <path id="Trazado_720246" data-name="Trazado 720246" d="M387.29,434.27h34.043v6.558h-3.5l-2.945,18.715H393.842l-3.03-18.715H387.29Z" transform="translate(-362.89 -352.202)" fill="#3076b6"/>
      <path id="Trazado_720247" data-name="Trazado 720247" d="M387.29,444.768c0-.091,7.564-.158,16.9-.158s16.9.067,16.9.158-7.57.158-16.9.158S387.29,444.846,387.29,444.768Z" transform="translate(-362.89 -356.276)" fill="#263238"/>
    </g>
    <g id="freepik--Character--inject-2" transform="translate(25.046 108.465)">
      <path id="Trazado_720248" data-name="Trazado 720248" d="M164.72,328.64a19.577,19.577,0,0,0,4.109-.218,9.419,9.419,0,0,0,2.745-1.212s2.988.412,3.467-.255a2.545,2.545,0,0,0,.449-1.43l2.194-.273,1.988.376,1.1,1.339s.824,0,.861-.5c0,0,1.1-.5.994-.842s-.709-1.988-.709-1.988l-.836-1.794s-5.418-.339-5.624-.206-7.067,3.333-7.067,3.333l-2.539.606Z" transform="translate(-80.068 -225.248)" fill="#eb996e"/>
      <path id="Trazado_720249" data-name="Trazado 720249" d="M168.088,317.139l8.594-1.927,6-.321s5.115,2.376,4.97,4.5l1.073.576s-.091,1.588-1.37,1.212a12.662,12.662,0,0,1-1.818-.679l1.376,2.1a1.994,1.994,0,0,1-1.9.036c-.43-.206-3.449-2.491-3.449-2.491l-2.552-.073s-4.739,3.261-6.939,3.636a21.074,21.074,0,0,1-5.946-.4Z" transform="translate(-80.624 -222.602)" fill="#ffbe9d"/>
      <path id="Trazado_720250" data-name="Trazado 720250" d="M195.572,321.982c0-.036.218.036.57,0a.727.727,0,0,0,.479-.358,1.485,1.485,0,0,0,.145-.812l.048.085-3.709-2.424-1.115-.727a8.536,8.536,0,0,0-1.012-.606h-2.042a12.119,12.119,0,0,1-1.945-.055,11.458,11.458,0,0,1,1.927-.17l.97-.048h1.042a.513.513,0,0,1,.133,0,10.912,10.912,0,0,1,1.109.655l1.121.727c1.43.952,2.721,1.818,3.636,2.515l.048.036v.055a1.624,1.624,0,0,1-.218.927.83.83,0,0,1-.606.388,1.042,1.042,0,0,1-.449-.042A1.365,1.365,0,0,0,195.572,321.982Z" transform="translate(-88.841 -223.379)" fill="#eb996e"/>
      <path id="Trazado_720251" data-name="Trazado 720251" d="M195.44,324.118a6.018,6.018,0,0,1-.9-1.042c-.527-.667-1.212-1.606-2.006-2.655h.03l-.1-.079c-.261-.2-.521-.394-.776-.564l-.388-.236a1.055,1.055,0,0,0-.376-.121,12.479,12.479,0,0,0-1.5-.151,7.209,7.209,0,0,1-1.412-.109,5.281,5.281,0,0,1,1.418-.115,9.758,9.758,0,0,1,1.552.085,1.54,1.54,0,0,1,.467.145c.139.073.273.158.406.242.273.176.539.37.806.576l.1.085h0c.77,1.055,1.449,2.012,1.927,2.715A6.063,6.063,0,0,1,195.44,324.118Z" transform="translate(-89.243 -224.235)" fill="#eb996e"/>
      <path id="Trazado_720252" data-name="Trazado 720252" d="M245.744,433.51l.2,15.9s16.158,3.988,16.485,6.921l-30.752,2.648-1.327-24.77Z" transform="translate(-105.922 -269.33)" fill="#3076b6"/>
      <g id="Grupo_1006021" data-name="Grupo 1006021" transform="translate(129.594 179.168)" opacity="0.6">
        <path id="Trazado_720253" data-name="Trazado 720253" d="M239.708,458.282a1.261,1.261,0,0,0-.8,1.479,1.212,1.212,0,0,0,1.461.806A1.327,1.327,0,0,0,241.2,459a1.261,1.261,0,0,0-1.612-.673" transform="translate(-238.873 -458.239)" fill="#fff"/>
      </g>
      <g id="Grupo_1006022" data-name="Grupo 1006022" transform="translate(125.622 185.635)" opacity="0.6">
        <path id="Trazado_720254" data-name="Trazado 720254" d="M232.453,472.928l-.133-2.5L262.1,468.91a2.121,2.121,0,0,1,1.273,1.582Z" transform="translate(-232.32 -468.91)" fill="#fff"/>
      </g>
      <path id="Trazado_720255" data-name="Trazado 720255" d="M255.128,459.373c0,.151-.745.255-1.461.776s-1.085,1.176-1.212,1.121.03-.958.921-1.564S255.158,459.234,255.128,459.373Z" transform="translate(-114.614 -279.471)" fill="#263238"/>
      <path id="Trazado_720256" data-name="Trazado 720256" d="M261.073,461.366c.036.145-.606.43-1.079,1.091s-.606,1.345-.745,1.345-.291-.849.321-1.655S261.061,461.22,261.073,461.366Z" transform="translate(-117.257 -280.282)" fill="#263238"/>
      <path id="Trazado_720257" data-name="Trazado 720257" d="M265.535,465.914c-.133.036-.376-.7-.03-1.545s1.03-1.212,1.1-1.085-.345.606-.606,1.279S265.687,465.89,265.535,465.914Z" transform="translate(-119.7 -281.049)" fill="#263238"/>
      <path id="Trazado_720258" data-name="Trazado 720258" d="M254.083,453.174c-.061.139-.758-.03-1.606.067s-1.5.4-1.582.273.527-.691,1.527-.794S254.15,453.053,254.083,453.174Z" transform="translate(-114.012 -276.891)" fill="#263238"/>
      <g id="Grupo_1006023" data-name="Grupo 1006023" transform="translate(124.598 167.332)" opacity="0.3">
        <path id="Trazado_720259" data-name="Trazado 720259" d="M245.891,438.71l.042,2.83-15.1,1.618-.206-3.57Z" transform="translate(-230.63 -438.71)"/>
      </g>
      <path id="Trazado_720260" data-name="Trazado 720260" d="M252.9,446.7a2.934,2.934,0,0,1-1.545.067,7.065,7.065,0,0,1-1.636-.418,7.22,7.22,0,0,1-.909-.43,1.818,1.818,0,0,1-.485-.339.655.655,0,0,1-.109-.794.812.812,0,0,1,.642-.376,2.177,2.177,0,0,1,.606.048,5.455,5.455,0,0,1,2.424,1.152c.745.606,1.018,1.176.97,1.212s-.436-.4-1.212-.909a6.13,6.13,0,0,0-1.412-.709,5.181,5.181,0,0,0-.9-.23c-.327-.073-.606-.061-.685.091,0,.055-.03.079.042.17a1.654,1.654,0,0,0,.358.248,8.356,8.356,0,0,0,.836.424,8.541,8.541,0,0,0,1.521.5A9.519,9.519,0,0,1,252.9,446.7Z" transform="translate(-112.924 -273.621)" fill="#263238"/>
      <path id="Trazado_720261" data-name="Trazado 720261" d="M255.361,445.337a2.424,2.424,0,0,1-.485-1.473,5,5,0,0,1,.133-1.7,5.221,5.221,0,0,1,.345-.958,1.285,1.285,0,0,1,.945-.83.721.721,0,0,1,.667.4,2.157,2.157,0,0,1,.188.558,3.394,3.394,0,0,1,.048,1.042A3.442,3.442,0,0,1,256.6,444c-.564.83-1.182,1.042-1.212.988a7.761,7.761,0,0,0,.879-1.176,3.57,3.57,0,0,0,.418-1.473,3.181,3.181,0,0,0-.073-.891c-.067-.327-.2-.606-.321-.545a1.211,1.211,0,0,0-.515.533,4.853,4.853,0,0,0-.339.855,5.413,5.413,0,0,0-.224,1.552C255.252,444.756,255.44,445.313,255.361,445.337Z" transform="translate(-115.575 -272.036)" fill="#263238"/>
      <path id="Trazado_720262" data-name="Trazado 720262" d="M116.212,337.527s50.061-8.309,52.292-8.655c8.582-1.321,18.376-.273,21.643,5.885a46.134,46.134,0,0,1,2.891,14.218c.412,7.57,3.418,52.413,3.418,52.413L175.8,404.825,169,355.206h0l-11.661,2.188c.655-.079-30.3,5.455-39.649,6.43-7.218.733-15.54-3.158-17.2-9.594-1.091-4.206-3.461-15.915-3.461-15.915Z" transform="translate(-53.403 -227.911)" fill="#263238"/>
      <path id="Trazado_720263" data-name="Trazado 720263" d="M220.75,361.34a27.4,27.4,0,0,0-2.77,3.085,28.7,28.7,0,0,0-2,3.636,3.775,3.775,0,0,1,.333-1.212,11.831,11.831,0,0,1,1.412-2.618,12.3,12.3,0,0,1,2.006-2.2,3.733,3.733,0,0,1,1.018-.691Z" transform="translate(-100.261 -240.9)" fill="#455a64"/>
      <path id="Trazado_720264" data-name="Trazado 720264" d="M57.682,187.316a7.055,7.055,0,0,0-1.018,4.018c0,1.376.945,4.164,3.382,4.3-.648,3.933,1.873,6.836,6.061,6.843s8.988-7.182,12.873-8.758l11.273-2.982c.988-.23,1.394-1.436,1.376-2.424a8.208,8.208,0,0,1,.079-3.03c.491-1.3,2.006-2,2.521-3.3.606-1.473-.321-3.109-1.37-4.3s-2.321-2.321-2.655-3.867c-.309-1.424.242-3.03-.473-4.3-.873-1.564-3.17-1.764-4.242-3.2-.515-.7-.679-1.612-1.212-2.315a4.283,4.283,0,0,0-4.012-1.352c-1.473.158-2.885.7-4.358.806-2.024.145-4.115-.509-6.061.079-2.145.642-3.449,2.545-4.849,4.388l-1.818,2.133a8.176,8.176,0,0,1-1.212.988,14.544,14.544,0,0,0-2.3,1.473,3.582,3.582,0,0,0,.248,5.164,3.812,3.812,0,0,0-2.57,3.764,3.19,3.19,0,0,0,.982,2.7A2.576,2.576,0,0,0,57.682,187.316Z" transform="translate(-37.498 -162.616)" fill="#263238"/>
      <path id="Trazado_720265" data-name="Trazado 720265" d="M69.167,196.1a51.784,51.784,0,0,1-2.273-8.715,18.212,18.212,0,0,1,.715-8.9c.158-.424,1.515-3.291,1.964-3.249.327.036-.509,2.709-.345,2.988a15.439,15.439,0,0,1,1.739,9.018,40.607,40.607,0,0,1-1.818,8.855" transform="translate(-41.431 -167.589)" fill="#263238"/>
      <path id="Trazado_720266" data-name="Trazado 720266" d="M78.035,219.339c-6.667-.836-7.418-11.515-7.418-11.515l-.3-26.17c-.242-7.533,3.939-13.94,11.479-13.994l.7.036a13.473,13.473,0,0,1,12.727,13.091c.176,6.533.285,13.758.055,17.243-.473,7.218-7.758,7.958-7.758,7.958s-.194,6.479-.17,8.709c.079,7.685-7.467,4.812-9.333,4.649Z" transform="translate(-42.874 -164.603)" fill="#ffbe9d"/>
      <path id="Trazado_720267" data-name="Trazado 720267" d="M92.721,228.755a17.479,17.479,0,0,1-9.261-3.285s1.945,5.685,9.194,5.418Z" transform="translate(-48.057 -187.376)" fill="#eb996e"/>
      <path id="Trazado_720268" data-name="Trazado 720268" d="M106.971,198.448a1.03,1.03,0,0,1-1.049.988.988.988,0,0,1-1.012-.988,1.03,1.03,0,0,1,1.048-.988.988.988,0,0,1,1.012.988Z" transform="translate(-56.507 -176.342)" fill="#263238"/>
      <path id="Trazado_720269" data-name="Trazado 720269" d="M105.976,193.35c-.139.127-.885-.5-2-.552s-1.952.455-2.067.309.091-.3.461-.533a2.782,2.782,0,0,1,1.661-.418,2.739,2.739,0,0,1,1.582.606C105.94,193.041,106.043,193.271,105.976,193.35Z" transform="translate(-55.312 -174.25)" fill="#263238"/>
      <path id="Trazado_720270" data-name="Trazado 720270" d="M89.751,198.448a1.03,1.03,0,0,1-1.049.988.988.988,0,0,1-1.012-.988,1.03,1.03,0,0,1,1.049-.988.988.988,0,0,1,1.012.988Z" transform="translate(-49.724 -176.342)" fill="#263238"/>
      <path id="Trazado_720271" data-name="Trazado 720271" d="M88,193.124c-.139.133-.891-.491-2-.545s-1.952.455-2.067.309.085-.3.455-.533a2.8,2.8,0,0,1,1.667-.418,2.739,2.739,0,0,1,1.582.606C87.953,192.821,88.056,193.069,88,193.124Z" transform="translate(-48.229 -174.164)" fill="#263238"/>
      <path id="Trazado_720272" data-name="Trazado 720272" d="M96.445,202.3a7.485,7.485,0,0,1,1.818-.224c.285,0,.552-.061.606-.248a1.443,1.443,0,0,0-.145-.855c-.23-.7-.467-1.43-.721-2.2a37.334,37.334,0,0,1-1.582-5.746,36.933,36.933,0,0,1,2.042,5.606c.236.77.467,1.509.685,2.212a1.624,1.624,0,0,1,.085,1.121.7.7,0,0,1-.485.388,1.818,1.818,0,0,1-.485.042,7.036,7.036,0,0,1-1.818-.1Z" transform="translate(-53.157 -174.597)" fill="#263238"/>
      <path id="Trazado_720273" data-name="Trazado 720273" d="M90.862,209.31c.182,0,.121,1.212,1.1,2.115s2.279.848,2.279,1.018c0,.073-.3.218-.842.2a2.976,2.976,0,0,1-1.9-.776,2.612,2.612,0,0,1-.848-1.77C90.637,209.589,90.789,209.3,90.862,209.31Z" transform="translate(-50.889 -181.01)" fill="#263238"/>
      <path id="Trazado_720274" data-name="Trazado 720274" d="M87.691,185.847c-.121.291-1.212.091-2.533.176s-2.388.388-2.545.109c-.067-.133.127-.406.57-.679a4.412,4.412,0,0,1,3.873-.218C87.491,185.453,87.691,185.7,87.691,185.847Z" transform="translate(-47.718 -171.39)" fill="#263238"/>
      <path id="Trazado_720275" data-name="Trazado 720275" d="M105.759,187.176c-.212.236-.964-.061-1.879-.127s-1.709.079-1.873-.194c-.073-.133.061-.376.418-.606a2.588,2.588,0,0,1,1.545-.327,2.558,2.558,0,0,1,1.473.606C105.759,186.788,105.85,187.055,105.759,187.176Z" transform="translate(-55.356 -171.791)" fill="#263238"/>
      <path id="Trazado_720276" data-name="Trazado 720276" d="M67.573,199.412c-.121-.061-4.885-1.733-4.994,3.212s4.885,4.036,4.9,3.891S67.573,199.412,67.573,199.412Z" transform="translate(-39.831 -176.985)" fill="#ffbe9d"/>
      <path id="Trazado_720277" data-name="Trazado 720277" d="M66.82,205.649a1.877,1.877,0,0,1-.236.121.885.885,0,0,1-.642,0A2.137,2.137,0,0,1,65,203.83a2.927,2.927,0,0,1,.267-1.212.988.988,0,0,1,.667-.648.436.436,0,0,1,.5.248c.061.139,0,.236.055.242s.109-.079.073-.285a.552.552,0,0,0-.188-.315.649.649,0,0,0-.473-.133,1.212,1.212,0,0,0-.921.745,3.03,3.03,0,0,0-.327,1.376,2.231,2.231,0,0,0,1.212,2.164.915.915,0,0,0,.788-.115C66.808,205.764,66.838,205.655,66.82,205.649Z" transform="translate(-40.647 -178.021)" fill="#eb996e"/>
      <path id="Trazado_720278" data-name="Trazado 720278" d="M90.835,171.966c.806-.43-1.564-3.03-3.521-3.976-2.958-1.382-7.485-2.273-10.236-1.533-3.315.9-6.061,2.5-7.776,5.485a19.509,19.509,0,0,0-2.309,9.891,5.982,5.982,0,0,0,.661,3.03c.679,1.1,1.994,1.818,1.915,3.315a2.1,2.1,0,0,0,.5,1.515c.891.976,2.012.085,2.533-.812,1.115-1.927,1.261-4.242,1.388-6.461a14.594,14.594,0,0,0-.255-4.709c-.23-.824-.606-1.612-.794-2.424a2.976,2.976,0,0,1,.382-2.467,3.181,3.181,0,0,1,.406-.4,5.164,5.164,0,0,1,5.133-.909c2.776,1.018,7.515,2.552,8.77,1.624a7.4,7.4,0,0,0,2.242-2.218Z" transform="translate(-41.566 -164.024)" fill="#263238"/>
      <path id="Trazado_720279" data-name="Trazado 720279" d="M79.506,165.156a10.909,10.909,0,0,1,8.352.564,5.673,5.673,0,0,1,2.939,3.327,3.237,3.237,0,0,1-1.673,3.818l-.1.061c-2.115.685-3.485.382-5.582-.37-1.764-.636-3.327-1.752-5.091-2.376a10.049,10.049,0,0,0-5.885-.248,16.412,16.412,0,0,1,7.036-4.776Z" transform="translate(-43.728 -163.39)" fill="#263238"/>
      <path id="Trazado_720280" data-name="Trazado 720280" d="M68.55,171.995c.042.036.442-.436,1.249-.994a7.151,7.151,0,0,1,1.5-.8,4.558,4.558,0,0,1,2.012-.339,6.667,6.667,0,0,1,3.449,1.424c.77.606,1.121,1.115,1.17,1.079s-.055-.152-.218-.382a5.262,5.262,0,0,0-.8-.879,6.412,6.412,0,0,0-3.57-1.57,4.642,4.642,0,0,0-2.152.382,6.387,6.387,0,0,0-1.527.9A3.909,3.909,0,0,0,68.55,171.995Z" transform="translate(-42.184 -165.338)" fill="#455a64"/>
      <path id="Trazado_720281" data-name="Trazado 720281" d="M93.43,164.79a13.282,13.282,0,0,0,1.309.491,10.818,10.818,0,0,1,5.079,4.182c.461.721.685,1.212.733,1.212a3.8,3.8,0,0,0-.533-1.315,9.333,9.333,0,0,0-5.2-4.279A3.855,3.855,0,0,0,93.43,164.79Z" transform="translate(-51.985 -163.472)" fill="#455a64"/>
      <path id="Trazado_720282" data-name="Trazado 720282" d="M68.693,224l-.873,3.764,20.285,12.6-.909-6.279a31.157,31.157,0,0,0-6.188-4.915A59.344,59.344,0,0,0,68.693,224Z" transform="translate(-41.896 -186.797)" fill="#f5f5f5"/>
      <path id="Trazado_720283" data-name="Trazado 720283" d="M62.192,230.082s-6.243,13.23-6.667,18.255,1.261,21.746,1.261,21.746L84.944,302.2l28.1,1.867s-13.3-27.976-16.279-33.431-12.982-30.176-12.982-30.176a15.558,15.558,0,0,0-3.527-5.455c-3.812-4.042-11.206-6.533-17.861-7.879Z" transform="translate(-37.026 -188.03)" fill="#3076b6"/>
      <path id="Trazado_720284" data-name="Trazado 720284" d="M77.208,241.277c4.176.491,9.54,3.636,11.4,10.976l1.818,9.091,9,18.267,29.485,8.412-3.83,11.552s-29.243-2.321-33.031-3.339S72.541,272.92,72.541,272.92s-7.879-13.582-5.849-23.588A9.7,9.7,0,0,1,77.208,241.277Z" transform="translate(-41.32 -193.577)" fill="#3076b6"/>
      <path id="Trazado_720285" data-name="Trazado 720285" d="M77.156,241.255h-.7a10.475,10.475,0,0,0-2.055.152,9.473,9.473,0,0,0-3.091,1.212,9.824,9.824,0,0,0-3.17,3.176,10.7,10.7,0,0,0-1.115,2.424,6.323,6.323,0,0,0-.188.685,4.674,4.674,0,0,0-.145.715c-.067.491-.133.988-.206,1.5a25.976,25.976,0,0,0,.43,6.667,43.029,43.029,0,0,0,2.115,7.352A58.47,58.47,0,0,0,72.6,272.88h0c2.279,3.206,4.758,6.588,7.424,10.085a133.342,133.342,0,0,0,8.794,10.594,14.685,14.685,0,0,0,2.721,2.291,5.163,5.163,0,0,0,1.7.467c.606.091,1.212.194,1.818.261,2.424.321,4.952.576,7.491.83,5.067.5,10.3.958,15.6,1.406l6.873.558-.158.109q1.945-5.891,3.824-11.552l.109.2L99.326,279.7h-.061v-.055L90.29,261.358h0q-.606-2.994-1.109-5.679a36.3,36.3,0,0,0-1.152-4.994,14.473,14.473,0,0,0-4.564-6.63,12.934,12.934,0,0,0-4.564-2.388,12.293,12.293,0,0,0-1.3-.3l-.449-.085a2.82,2.82,0,0,1,.455.055,9.93,9.93,0,0,1,1.309.267,12.77,12.77,0,0,1,4.57,2.339,14.588,14.588,0,0,1,4.649,6.667,35.577,35.577,0,0,1,1.212,5.012q.539,2.679,1.133,5.673h0l9.024,18.255-.085-.067,29.491,8.394.152.042-.048.151q-1.873,5.655-3.824,11.558l-.042.115h-.121l-6.873-.558c-5.321-.455-10.533-.909-15.606-1.412-2.539-.255-5.042-.515-7.5-.836-.606-.067-1.212-.17-1.818-.261-.3-.042-.606-.115-.909-.176a2.467,2.467,0,0,1-.9-.327,15.154,15.154,0,0,1-2.764-2.382,132.161,132.161,0,0,1-8.806-10.63c-2.661-3.5-5.133-6.891-7.412-10.109h0a58.79,58.79,0,0,1-3.57-7.788,43.365,43.365,0,0,1-2.182-7.473,25.994,25.994,0,0,1-.406-6.709c.073-.515.145-1.024.212-1.515a4.777,4.777,0,0,1,.158-.721,6.184,6.184,0,0,1,.194-.7A10.734,10.734,0,0,1,68,245.686a9.824,9.824,0,0,1,3.23-3.188,9.443,9.443,0,0,1,3.133-1.212,9.278,9.278,0,0,1,2.073-.115C76.92,241.225,77.156,241.255,77.156,241.255Z" transform="translate(-41.269 -193.555)" fill="#263238"/>
      <path id="Trazado_720286" data-name="Trazado 720286" d="M112.52,311.621a4.242,4.242,0,0,1,.461-1.212,17.077,17.077,0,0,1,1.612-2.691,17.268,17.268,0,0,1,2.079-2.352,4.243,4.243,0,0,1,1.018-.806c.067.073-1.418,1.388-2.842,3.345S112.611,311.663,112.52,311.621Z" transform="translate(-59.505 -218.532)" fill="#263238"/>
      <path id="Trazado_720287" data-name="Trazado 720287" d="M89.377,244.743a6.356,6.356,0,0,1-.715-.752c-.218-.255-.485-.558-.818-.891s-.691-.733-1.139-1.133a33.124,33.124,0,0,0-3.188-2.679,38.092,38.092,0,0,0-4.315-2.721,47.553,47.553,0,0,0-8.612-3.473c-1.139-.339-2.073-.606-2.715-.758a5.98,5.98,0,0,1-.994-.3,7,7,0,0,1,1.024.176c.655.127,1.594.352,2.745.661a42.862,42.862,0,0,1,8.7,3.382,35.008,35.008,0,0,1,4.339,2.764,29.882,29.882,0,0,1,3.17,2.758c.436.406.788.824,1.109,1.17a8.861,8.861,0,0,1,.788.933,6.666,6.666,0,0,1,.624.861Z" transform="translate(-41.526 -189.964)" fill="#263238"/>
      <path id="Trazado_720288" data-name="Trazado 720288" d="M215.595,266.462a1.018,1.018,0,0,0-1.267.685l-10.255,34.291-34.352,5.333a2.036,2.036,0,0,0-1.7,2.321l37.631-5.867h0l10.612-35.5a1.018,1.018,0,0,0-.673-1.261Z" transform="translate(-81.36 -203.507)" fill="#e0e0e0"/>
      <path id="Trazado_720289" data-name="Trazado 720289" d="M215.511,266.448a.964.964,0,0,1,.576.406,1.055,1.055,0,0,1,.139.855l-.333,1.158-2.212,7.539-7.97,26.849v.1h-.139l.109-.1h0l-.042.133-.127-.042h.055l-36.9,5.836-.7.109h-.152v-.158a2.194,2.194,0,0,1,1.212-2.309,2.309,2.309,0,0,1,.661-.2l.636-.1,1.267-.2,5.024-.782,9.7-1.509,17.661-2.733-.109.1c3.236-10.746,5.927-19.691,7.818-25.964l2.212-7.273q.188-.606.345-1.109a1.042,1.042,0,0,1,.606-.606.933.933,0,0,1,.685,0,1.122,1.122,0,0,0-.667.055.988.988,0,0,0-.545.576q-.145.485-.327,1.109l-2.139,7.273c-1.861,6.279-4.521,15.237-7.709,25.994v.079h-.085l-17.721,2.8-9.7,1.515-5.024.782-1.267.2a4.612,4.612,0,0,0-1.212.273,1.885,1.885,0,0,0-1.042,1.976l-.182-.127.7-.109,36.934-5.721h.03l-.17.091h0v-.085h.085l-.115.158v-.055h0c3.333-11.085,6.121-20.334,8.073-26.825.982-3.23,1.758-5.77,2.291-7.515l.352-1.152a1.018,1.018,0,0,0-.115-.812A1.163,1.163,0,0,0,215.511,266.448Z" transform="translate(-81.276 -203.493)" fill="#263238"/>
      <path id="Trazado_720290" data-name="Trazado 720290" d="M229.076,325.955c-.073.048-.436-.376-.885-.885s-.806-.939-.745-1.006.527.267.988.8S229.149,325.907,229.076,325.955Z" transform="translate(-104.775 -226.212)" fill="#455a64"/>
      <path id="Trazado_720291" data-name="Trazado 720291" d="M220.529,326.29c0-.036.152-.152.394,0a.455.455,0,0,1,.242.424.515.515,0,0,1-.945.261.461.461,0,0,1-.042-.485c.145-.255.364-.212.352-.176a.64.64,0,0,0-.145.261.267.267,0,0,0,.315.3.248.248,0,0,0,.176-.194.218.218,0,0,0-.079-.206C220.656,326.327,220.547,326.327,220.529,326.29Z" transform="translate(-101.895 -227.063)" fill="#455a64"/>
      <path id="Trazado_720292" data-name="Trazado 720292" d="M224.149,325.731c0-.036.152-.152.394,0a.448.448,0,0,1,.242.424.521.521,0,0,1-.382.467.539.539,0,0,1-.564-.206.461.461,0,0,1-.042-.485c.152-.255.364-.218.352-.182a.691.691,0,0,0-.145.261.249.249,0,0,0,.067.224.267.267,0,0,0,.248.085.26.26,0,0,0,.176-.194.218.218,0,0,0-.079-.212C224.289,325.773,224.167,325.773,224.149,325.731Z" transform="translate(-103.321 -226.842)" fill="#455a64"/>
      <path id="Trazado_720293" data-name="Trazado 720293" d="M75.506,399.989,61.56,445.8l5.085.048,18.843-46.34Z" transform="translate(-39.43 -255.936)" fill="#263238"/>
      <path id="Trazado_720294" data-name="Trazado 720294" d="M183.52,389.322c-.036,0,15.758,51.976,15.758,51.976l5.042.073L194.6,388.28Z" transform="translate(-87.474 -251.512)" fill="#263238"/>
      <path id="Trazado_720295" data-name="Trazado 720295" d="M39.327,279.282a5.382,5.382,0,0,0-5.752-1c-3.909,1.667-9.63,5.085-8.346,10.485,1.606,6.752,20.091,50.789,26.055,64.934a7.073,7.073,0,0,0,6.57,4.321l77.468-.655a5.727,5.727,0,0,0,5.624-6.467l-2.9-22a15.679,15.679,0,0,0-14.158-13.57l-50.1-4.449Z" transform="translate(-25.046 -208.012)" fill="#455a64"/>
      <path id="Trazado_720296" data-name="Trazado 720296" d="M60.775,368.409a.746.746,0,0,1-.042-.164,2.79,2.79,0,0,0-.1-.467q-.127-.655-.345-1.818c-.285-1.6-.7-3.867-1.212-6.667s-1.091-6.176-1.745-9.9c-.321-1.861-.667-3.818-1.018-5.843-.176-1.018-.358-2.048-.539-3.1a8.315,8.315,0,0,1-.085-3.267,3.776,3.776,0,0,1,.745-1.5,4.339,4.339,0,0,1,1.327-1.042,9.473,9.473,0,0,1,3.03-.867c2.061-.23,4.036-.345,5.927-.485,3.776-.261,7.176-.43,10.036-.545s5.176-.164,6.776-.188h2.461a.7.7,0,0,1-.164,0h-.479l-1.818.073-6.764.291c-2.861.139-6.261.333-10.03.606-1.879.145-3.873.273-5.9.5a9.035,9.035,0,0,0-2.952.836,3.552,3.552,0,0,0-1.9,2.327,7.976,7.976,0,0,0,.091,3.146q.267,1.576.527,3.091.527,3.03,1,5.849c.606,3.727,1.212,7.079,1.679,9.909s.842,5.079,1.1,6.667c.121.77.218,1.382.285,1.818a2.841,2.841,0,0,0,.067.479A.655.655,0,0,1,60.775,368.409Z" transform="translate(-37.07 -229.562)" fill="#263238"/>
      <path id="Trazado_720297" data-name="Trazado 720297" d="M152.383,388.178c0,.085-20,.158-44.685.158s-44.7-.073-44.7-.158,20-.158,44.691-.158S152.383,388.093,152.383,388.178Z" transform="translate(-39.997 -251.41)" fill="#263238"/>
      <path id="Trazado_720298" data-name="Trazado 720298" d="M61.245,312.951c-.067.061-6.182-6.976-13.661-15.709S34.093,281.38,34.16,281.32s6.182,6.976,13.661,15.715S61.336,312.9,61.245,312.951Z" transform="translate(-28.636 -209.377)" fill="#263238"/>
    </g>
  </g>
</svg>
