<svg xmlns="http://www.w3.org/2000/svg" width="610" height="250.477" viewBox="0 0 610 250.477">
  <g id="Grupo_1006532" data-name="Grupo 1006532" transform="translate(-285 -5682.08)">
    <rect id="Rectángulo_346916" data-name="Rectángulo 346916" width="610" height="187" rx="93.5" transform="translate(285 5725.926)" fill="#4db1f0" opacity="0.33"/>
    <g id="Grupo_1005680" data-name="Grupo 1005680" transform="translate(280.8 5548.758)">
      <path id="Trazado_719724" data-name="Trazado 719724" d="M114.695,230.1c-.114-1.512-.294-3.041-.532-4.542a.24.24,0,0,0-.184-.195,3.149,3.149,0,0,0-1-1.263,6.009,6.009,0,0,0-2.8-.965,19.089,19.089,0,0,0-12.543,2.673c-.984.615-2.523,1.832-2.584,3.436a.237.237,0,0,0-.021.127,11.118,11.118,0,0,1,.082,1.371,5.164,5.164,0,0,0,.605,2.871,4.158,4.158,0,0,0,2.3,1.526,13,13,0,0,0,2.993.559q.748.061,1.5.06a19.46,19.46,0,0,0,9.577-2.529,11.407,11.407,0,0,0,1.883-1.3,2.125,2.125,0,0,0,.65-.84A2.323,2.323,0,0,0,114.695,230.1Zm-16.807-3.887a18.636,18.636,0,0,1,9.78-2.774,17.741,17.741,0,0,1,2.446.167,5.6,5.6,0,0,1,2.58.876,2.545,2.545,0,0,1,.993,1.564,140.788,140.788,0,0,0-17.243,1.337A7.325,7.325,0,0,1,97.888,226.216Zm-1.877,1.711h0a140.244,140.244,0,0,1,17.676-1.4,1.623,1.623,0,0,1-.03.2,3.193,3.193,0,0,1-1.177,1.529,15.048,15.048,0,0,1-2.939,2,23.886,23.886,0,0,1-9.7,1.815,6.8,6.8,0,0,1-2.665-.476,2.722,2.722,0,0,1-1.624-1.886A2.421,2.421,0,0,1,96.01,227.927Zm18.161,3a1.7,1.7,0,0,1-.515.644,10.89,10.89,0,0,1-1.806,1.247,18.935,18.935,0,0,1-10.805,2.408,12.527,12.527,0,0,1-2.883-.538,3.715,3.715,0,0,1-2.049-1.336,4.411,4.411,0,0,1-.521-2.416,3.56,3.56,0,0,0,1.388,1.1,7.324,7.324,0,0,0,2.85.518c.193.005.386.007.58.007a24.4,24.4,0,0,0,9.316-1.858,15.8,15.8,0,0,0,3.059-2.075,4.4,4.4,0,0,0,1.142-1.286c.118.933.222,1.869.293,2.8A1.889,1.889,0,0,1,114.172,230.926Z" transform="translate(-6.827 -21.504)"/>
      <g id="Grupo_1005673" data-name="Grupo 1005673" transform="translate(35.409 162.628)">
        <path id="Trazado_719725" data-name="Trazado 719725" d="M51.788,187.753,51.6,172.379a51.761,51.761,0,0,1,.46-9.4,16.121,16.121,0,0,1,2.064-5.841c1.924-3.081,5.191-5.105,8.6-6.373a22.858,22.858,0,0,1,13.437-1.031,16.172,16.172,0,0,1,10.531,8.07A23.918,23.918,0,0,1,88.75,166.3a136.41,136.41,0,0,1,.122,20.734.71.71,0,0,1-.737.841A106.323,106.323,0,0,1,51.788,187.753Z" transform="translate(-47.39 -149.149)" fill="#ee5952"/>
        <path id="Trazado_719726" data-name="Trazado 719726" d="M91.3,158.108a15.506,15.506,0,0,0-7.079-6.8c2.056,3.908,2.9,8.441,3.389,12.872a194.364,194.364,0,0,1,.68,24.625q2.232-.274,4.454-.632a.71.71,0,0,0,.737-.841,136.41,136.41,0,0,0-.122-20.734A23.918,23.918,0,0,0,91.3,158.108Z" transform="translate(-52.001 -149.455)" fill="#ee5952" style="mix-blend-mode: multiply;isolation: isolate"/>
        <path id="Trazado_719727" data-name="Trazado 719727" d="M81.283,167.055H76.51v-4.773H67.4v4.773H62.628v9.109H67.4v4.773H76.51v-4.773h4.773Z" transform="translate(-48.95 -151.005)" fill="#fff"/>
        <path id="Trazado_719728" data-name="Trazado 719728" d="M53.261,192.619l32.2-.481c1.76-.026,3.669-.005,5.062,1.072A3.922,3.922,0,0,1,89.471,200a7.538,7.538,0,0,1-2.3.343c-2.389.1-4.781.1-7.173.1l-26.641.015a10.076,10.076,0,0,1-4.536-.7,3.451,3.451,0,0,1-2.027-3.757,3.8,3.8,0,0,1,1.5-1.915A8.514,8.514,0,0,1,53.261,192.619Z" transform="translate(-46.7 -155.222)" fill="#3f2532"/>
      </g>
      <g id="Grupo_1005674" data-name="Grupo 1005674" transform="translate(350.365 286.813)">
        <path id="Trazado_719729" data-name="Trazado 719729" d="M362.87,78.627a.477.477,0,0,1-.028-.876c5.14-2.415,10.395-4.76,15.62-6.971a.477.477,0,0,1,.372.879c-5.213,2.206-10.458,4.546-15.587,6.956A.475.475,0,0,1,362.87,78.627Z" transform="translate(-267.987 -70.742)"/>
        <path id="Trazado_719730" data-name="Trazado 719730" d="M286.283,97.048l54.432-23.035a4.447,4.447,0,0,1,4.329-.044l9.316,3.523q-.876,6.051-2.28,12.009a2.246,2.246,0,0,1-1.726,2.027q-28.579,11.626-56.414,24.985A94.263,94.263,0,0,1,286.283,97.048Z" transform="translate(-257.211 -71.121)" fill="#c0dbf9"/>
        <path id="Trazado_719731" data-name="Trazado 719731" d="M280.822,104.3l-25.41,11.206a58.068,58.068,0,0,0,6.473,14.763L286.7,118.9A34.552,34.552,0,0,0,280.822,104.3Z" transform="translate(-252.85 -75.482)" fill="#ee5952"/>
        <path id="Trazado_719732" data-name="Trazado 719732" d="M307.028,103.523a.238.238,0,1,0-.442.179,51.5,51.5,0,0,0,3.353,6.787.235.235,0,0,0,.118.1.239.239,0,0,0,.294-.343A51.017,51.017,0,0,1,307.028,103.523Zm8.926-3.365a.239.239,0,1,0-.45.16l2.284,6.426a.239.239,0,0,0,.45-.16Zm8.969-3.711a.239.239,0,0,0-.43.208l2.792,5.783a.241.241,0,0,0,.128.118.235.235,0,0,0,.191-.007.24.24,0,0,0,.112-.319Zm8.6-3.991a.239.239,0,0,0-.406.251,28.6,28.6,0,0,1,2.782,5.949.239.239,0,1,0,.453-.151A29.1,29.1,0,0,0,333.521,92.454Zm12.5,2.611L343.33,89.1a.238.238,0,1,0-.435.2l2.691,5.969a.239.239,0,0,0,.435-.2Z" transform="translate(-260.076 -73.315)"/>
        <path id="Trazado_719733" data-name="Trazado 719733" d="M259.608,126.386a57.959,57.959,0,0,0,2.87,5.243l24.812-11.37a38.717,38.717,0,0,0-1.617-6.331Q272.452,119.752,259.608,126.386Z" transform="translate(-253.442 -76.843)" fill="#ee5952" style="mix-blend-mode: multiply;isolation: isolate"/>
        <path id="Trazado_719734" data-name="Trazado 719734" d="M262.817,129.186q-3.212-7.553-6.515-15.069a19.462,19.462,0,0,0-.982-1.816,1.873,1.873,0,0,0-1.687-1.105,1.561,1.561,0,0,0-1.2,1.509,4.561,4.561,0,0,0,.507,2.009l2.714,6.41,2.317,5.472a22.88,22.88,0,0,0,2.707,5.133,1.934,1.934,0,0,0,1.223.879,1.441,1.441,0,0,0,1.4-1.347A4.186,4.186,0,0,0,262.817,129.186ZM290,120.873q-3.585-10.837-8.169-21.309c-.418-.954-1.2-2.09-2.2-1.8a1.5,1.5,0,0,0-.938,1.558,5.756,5.756,0,0,0,.336,1.717q3.994,9.988,7.988,19.977a4,4,0,0,0,1.1,1.766A1.379,1.379,0,0,0,290,122.7,2.025,2.025,0,0,0,290,120.873Z" transform="translate(-252.428 -74.552)" fill="#3f2532"/>
      </g>
      <g id="Grupo_1005675" data-name="Grupo 1005675" transform="translate(80.751 286.813)">
        <path id="Trazado_719735" data-name="Trazado 719735" d="M87.442,353.419l13.5-22.051c2.131-3.48,4.556-7.206,8.413-8.542a8.554,8.554,0,0,1,7.622,1.015,7.738,7.738,0,0,1,3.228,6.905,13.539,13.539,0,0,1-1.6,4.621c-3.9,7.826-8.8,15.107-13.68,22.363-1.087,1.615-2.175,3.233-3.4,4.746a12.206,12.206,0,0,1-2.775,2.667,8.191,8.191,0,0,1-10.214-1.565A9.033,9.033,0,0,1,87.442,353.419Z" transform="translate(-86.353 -322.359)" fill="#ebf7fa"/>
        <path id="Trazado_719736" data-name="Trazado 719736" d="M114.822,334.952c-3.661,5.674-14.569,23.343-17.449,26.538-2.832,3.144-8.457,2.234-8.811,1.978.094.12.186.241.288.355a8.191,8.191,0,0,0,10.214,1.565,12.206,12.206,0,0,0,2.775-2.667c1.225-1.513,2.313-3.131,3.4-4.747,4.88-7.255,9.777-14.537,13.68-22.362a13.539,13.539,0,0,0,1.6-4.621,7.738,7.738,0,0,0-3.228-6.905A15.263,15.263,0,0,1,114.822,334.952Z" transform="translate(-86.665 -322.603)" fill="#c0dbf9"/>
        <path id="Trazado_719737" data-name="Trazado 719737" d="M110.691,351.95a15.356,15.356,0,0,1-8.574-1.411,13.668,13.668,0,0,1-4.352-2.813A7.07,7.07,0,0,1,95.63,343.1l-.069-.012-8.119,13.259a9.033,9.033,0,0,0,1.1,10.161,8.191,8.191,0,0,0,10.214,1.565,12.206,12.206,0,0,0,2.775-2.667c1.225-1.513,2.313-3.131,3.4-4.747,1.941-2.885,3.884-5.777,5.766-8.7Z" transform="translate(-86.353 -325.287)" fill="#ee5952"/>
        <path id="Trazado_719738" data-name="Trazado 719738" d="M111,353.368a13.023,13.023,0,0,1-5.117-.242c-3.573,5.573-7.062,10.857-8.513,12.467-2.832,3.144-8.457,2.234-8.811,1.978.094.12.186.241.288.355a8.191,8.191,0,0,0,10.214,1.565,12.206,12.206,0,0,0,2.775-2.667c1.225-1.513,2.313-3.131,3.4-4.747,1.941-2.885,3.884-5.777,5.766-8.7Z" transform="translate(-86.665 -326.705)" fill="#ee5952" style="mix-blend-mode: multiply;isolation: isolate"/>
      </g>
      <g id="Grupo_1005676" data-name="Grupo 1005676" transform="translate(147.712 133.322)">
        <path id="Trazado_719739" data-name="Trazado 719739" d="M179.767,185.127,206.5,163.054c2.355-1.945,4.807-4.021,5.892-6.876a9.452,9.452,0,0,0-2.641-10.191,10.243,10.243,0,0,0-10.512-1.581,21.376,21.376,0,0,0-5.581,3.978q-11.6,10.267-23.728,19.906a19.307,19.307,0,0,0-4,3.846,9.787,9.787,0,0,0,1.484,12.5C170.854,187.674,176.634,187.715,179.767,185.127Z" transform="translate(-164.329 -143.617)" fill="#ebf7fa"/>
        <path id="Trazado_719740" data-name="Trazado 719740" d="M206.812,163.785c2.355-1.945,4.807-4.021,5.892-6.876a9.367,9.367,0,0,0-.9-8.121c.005.043.408,4.137-6.051,9.869-6.492,5.763-26.408,21.594-29.4,23.272s-7.237,3.233-9.818,2.129a8.531,8.531,0,0,0,1.192,1.305c3.437,3.042,9.217,3.083,12.35.495Z" transform="translate(-164.641 -144.347)" fill="#c0dbf9"/>
        <path id="Trazado_719741" data-name="Trazado 719741" d="M190.661,166.106a13.464,13.464,0,0,0-9.451-4.472q-5.584,4.669-11.28,9.2a19.307,19.307,0,0,0-4,3.846,9.787,9.787,0,0,0,1.484,12.5c3.437,3.042,9.217,3.083,12.35.495l14.185-11.712A13.471,13.471,0,0,0,190.661,166.106Z" transform="translate(-164.329 -146.162)" fill="#fcab00"/>
        <path id="Trazado_719742" data-name="Trazado 719742" d="M193.565,172.06c-7.455,5.991-15.407,12.145-17.21,13.157-2.99,1.677-7.237,3.233-9.818,2.129h0c.172.231.356.454.549.668l.013.015a8.447,8.447,0,0,0,.63.622c3.437,3.042,9.217,3.083,12.35.495l14.185-11.712A13.361,13.361,0,0,0,193.565,172.06Z" transform="translate(-164.641 -147.635)" fill="#fcab00" style="mix-blend-mode: multiply;isolation: isolate"/>
      </g>
      <g id="Grupo_1005679" data-name="Grupo 1005679" transform="translate(141.243 147.167)">
        <path id="Trazado_719743" data-name="Trazado 719743" d="M323.244,387.96q-5.611,2.018-11.229,4a24.274,24.274,0,0,0,8.877,4.219,31.213,31.213,0,0,0,16.521-.726c7.974-2.443,15.295-7.85,18.683-15.471a34.489,34.489,0,0,0,2.568-13.2c.439-18.13-7.039-35.424-15.681-51.435-.377,1.851-.769,3.708-1.155,5.565q-6.341,30.358-12.689,60.711a9.079,9.079,0,0,1-1.25,3.5C326.823,386.634,324.981,387.339,323.244,387.96ZM261.889,278.3a17.989,17.989,0,0,0,1.79,3.579c.778,1.179,1.717,2.248,2.605,3.346a54.744,54.744,0,0,1,3.751,5.263,116.711,116.711,0,0,1,8.833,18.139q2.757,6.707,5.383,13.472,8.482-2.556,17.065-4.763a4.288,4.288,0,0,1,1.67-2.773,11.043,11.043,0,0,1,4.51-1.661l9.449-1.975a94.408,94.408,0,0,0-23.2-19.914q-3.536-2.205-7.215-4.161C278.811,282.744,270.532,279.356,261.889,278.3ZM158.405,378.8c2.453,11.654,8.252,23.364,18.621,29.211a39.94,39.94,0,0,0,13.859,4.395c12.517,1.857,25.392-.062,37.389-4.089a138.388,138.388,0,0,0,23.789-10.838c3.479-1.961,6.919-4.037,10.331-6.194q-.938-3.185-2.1-6.294a95.98,95.98,0,0,0-12.45-23.183q-1.618-2.226-3.37-4.352c-.277.1-.553.191-.825.291-.793-12.2-4.085-24.19-8.623-35.567a234.609,234.609,0,0,0-10.37-22.114c-2.639-5.03-5.392-10-8.146-14.969a85.149,85.149,0,0,0-31.964,17.494,81.536,81.536,0,0,0-15.48,17.991A79.73,79.73,0,0,0,158.405,378.8Z" transform="translate(-156.795 -176.488)" fill="#fff"/>
        <path id="Trazado_719744" data-name="Trazado 719744" d="M267.736,414.045q8.583-1.152,17.084-2.8,1.461-7.9,3.493-15.686c-1.112.215-2.214.458-3.3.769a18.65,18.65,0,0,0-9.039,5.23q1.159,3.107,2.1,6.294C274.655,410.008,271.215,412.083,267.736,414.045Z" transform="translate(-172.468 -193.053)" fill="#00cdcc"/>
        <path id="Trazado_719745" data-name="Trazado 719745" d="M235.826,302.071a234.609,234.609,0,0,1,10.37,22.114c4.538,11.377,7.831,23.37,8.623,35.567.272-.1.549-.2.825-.291q1.747,2.127,3.37,4.352a64.941,64.941,0,0,0,9.042-3.335c6.992-3.374,13.171-9.206,20.692-10.408q2.342-12.685,4.682-25.364c.659-.2,1.322-.405,1.985-.6q-2.642-6.757-5.383-13.472a116.714,116.714,0,0,0-8.833-18.139c-1.747,4.257-4.281,8.323-8.241,10.58A24.671,24.671,0,0,1,264.2,305.6a58.849,58.849,0,0,1-16.946.416A30.88,30.88,0,0,1,235.826,302.071Z" transform="translate(-167.96 -178.493)" fill="#00cdcc"/>
        <path id="Trazado_719746" data-name="Trazado 719746" d="M361.2,320.464q.415-1.968.811-3.936a1.9,1.9,0,0,0-.119-1.523,1.833,1.833,0,0,0-1.489-.511c-.453-.009-.907,0-1.36.015a48.288,48.288,0,0,0-6.4.812c-1.689.3-3.374.6-5.059.916q-14.123,2.634-28.05,6.213-8.583,2.205-17.065,4.763c-.664.2-1.327.4-1.985.6q-2.34,12.685-4.682,25.364-.729,3.951-1.46,7.9c8.161.467,16.282-1.718,24.457-2.367a1.732,1.732,0,0,1,1,.119c.84.463.415,1.766-.22,2.482-.1.115-.21.229-.319.339.787.362,1.523.9,1.56,1.727a2.264,2.264,0,0,1-.429,1.25,7.721,7.721,0,0,1-.879,1.131,3.047,3.047,0,0,1,1.088,1.78,3.538,3.538,0,0,1-1.2,2.711c-.291.315-.592.62-.907.911a3.838,3.838,0,0,1-.463,3.674,9.355,9.355,0,0,1-3.6,2.749,55.064,55.064,0,0,1-14.865,5.106c-2.887.549-5.822.869-8.7,1.418q-2.026,7.78-3.493,15.686-.894,4.8-1.575,9.64a2.428,2.428,0,0,0,.072,1.37c.5,1.079,2.066.873,3.192.5q20.652-6.944,41.179-14.221,5.62-1.982,11.229-4c1.737-.621,3.579-1.327,4.644-2.83a9.079,9.079,0,0,0,1.25-3.5q6.349-30.358,12.689-60.711C360.427,324.172,360.818,322.316,361.2,320.464Z" transform="translate(-175.009 -181.601)" fill="#3f2532"/>
        <path id="Trazado_719747" data-name="Trazado 719747" d="M340.72,315.984l-9.449,1.975a11.043,11.043,0,0,0-4.51,1.661,4.288,4.288,0,0,0-1.67,2.773q13.915-3.58,28.05-6.213a2.174,2.174,0,0,0-1.092-1.752,5.338,5.338,0,0,0-3.527-.076l-1.017.215Z" transform="translate(-180.57 -181.544)" fill="#c0dbf9"/>
        <path id="Trazado_719748" data-name="Trazado 719748" d="M241.14,180.034a34.634,34.634,0,0,1,18.845-.071,26.175,26.175,0,0,1,15.085,11.382,43.606,43.606,0,0,1,4.214,11.5c1.461,5.7,2.787,11.438,4.114,17.175a46.33,46.33,0,0,1,1.646,11.257,23.6,23.6,0,0,1-10.986,19.266,34.6,34.6,0,0,1-13.157,4.328,39.578,39.578,0,0,0,1.718,6.681c8.642,1.055,16.922,4.443,24.639,8.552q3.671,1.954,7.215,4.161c10.122-8.987,15.911-23.718,11.148-36.33-3.784-10.017-13.257-17.023-17.194-26.982-2.639-6.685-2.549-14.12-4.328-21.088a40.108,40.108,0,0,0-54.212-27.125,5.909,5.909,0,0,1-2.4.64,6.181,6.181,0,0,1-2.51-.907c-7.755-3.971-17.48-3.169-25.049,1.135s-13.047,11.788-15.939,20.005c-2.4,6.824-3.164,14.235-6.418,20.7-2.463,4.887-6.228,8.986-9.1,13.644-7.153,11.62-8.28,26.486-4.028,39.452,3.713,11.343,11.31,21.2,20.835,28.432a85.149,85.149,0,0,1,31.964-17.494l.1-.029a128.084,128.084,0,0,0,1.456-33.777c-4.423,1.055-9.225,1.694-13.39-.129s-7.158-6.943-5.216-11.052a8.8,8.8,0,0,1,3.107-3.417,13.566,13.566,0,0,1,17.365,2.415,19.456,19.456,0,0,1,2.635-13.257c4.266-6.89,12.584-10.695,16.2-17.947A16.97,16.97,0,0,0,240.9,180.1c.076-.019.149-.043.225-.062C241.125,180.04,241.131,180.034,241.14,180.034Z" transform="translate(-157.526 -159.739)" fill="#3f2532"/>
        <path id="Trazado_719749" data-name="Trazado 719749" d="M376.228,298.34l-.157.186c1.083,1.47,2.219,2.906,3.426,4.285,1.274,1,2.782,2,4.29,3.016q-.366-2.391-.726-4.781-2.2-3.27-4.423-6.524A13.217,13.217,0,0,1,376.228,298.34Zm-25.035-34.56c2.573,3.531,4.973,7.149,7.574,10.623.109.149.219.291.329.44.878,1.159,1.775,2.3,2.672,3.45A15.994,15.994,0,0,1,364.7,274.8q-1.453-1.99-2.921-3.966-3.365-4.532-6.8-8.976A33.961,33.961,0,0,0,351.193,263.781Z" transform="translate(-184.258 -174.166)" fill="#00cdcc"/>
        <path id="Trazado_719750" data-name="Trazado 719750" d="M263.813,344.842a64.941,64.941,0,0,1-9.042,3.335,95.981,95.981,0,0,1,12.45,23.183,18.652,18.652,0,0,1,9.039-5.231c1.088-.31,2.19-.553,3.3-.768,2.878-.549,5.813-.869,8.7-1.418a55.063,55.063,0,0,0,14.865-5.106,9.354,9.354,0,0,0,3.6-2.749,3.838,3.838,0,0,0,.463-3.675c.315-.291.616-.6.907-.911a3.538,3.538,0,0,0,1.2-2.711,3.047,3.047,0,0,0-1.088-1.78,7.723,7.723,0,0,0,.879-1.131,2.264,2.264,0,0,0,.429-1.25c-.038-.825-.773-1.365-1.56-1.727.11-.11.215-.224.319-.339.635-.715,1.06-2.019.22-2.482a1.724,1.724,0,0,0-1-.118c-8.174.648-16.3,2.834-24.457,2.367q.73-3.952,1.46-7.9C276.984,335.636,270.8,341.468,263.813,344.842Zm66.839-48.962,1.017-.215a5.338,5.338,0,0,1,3.527.076,2.173,2.173,0,0,1,1.092,1.752c1.685-.32,3.37-.621,5.059-.916a48.288,48.288,0,0,1,6.4-.811l0-.067c.291-1.322.605-3.322.792-4.958l.052.052a2.371,2.371,0,0,0,2.525.119,12.226,12.226,0,0,0,4.419-3.693l.157-.186a13.217,13.217,0,0,0,2.41-3.818,6.466,6.466,0,0,0,.262-.949,4.307,4.307,0,0,0-1.99-4.73l-.239-.033a3.9,3.9,0,0,0-.071-2.9,4,4,0,0,0-3.049-1.948l-.2-.076a6.531,6.531,0,0,0,.477-4.218c-.459-1.446-2.205-2.558-3.536-1.833l-.306-.181c.162-.267.31-.535.459-.806.572-1.065,1.04-2.415.381-3.426a2.447,2.447,0,0,0-2.5-.893,3.944,3.944,0,0,0-1.012.344,4.352,4.352,0,0,0,.052-3.851,2.448,2.448,0,0,0-1.57-1.4c-1.16-.252-2.2.73-2.921,1.675-.382.5-.745,1.016-1.1,1.541q1.467,1.975,2.921,3.966a15.994,15.994,0,0,0-2.935,3.492c-.9-1.145-1.794-2.29-2.672-3.45a18.323,18.323,0,0,1-2.019,2.376c-1.522,1.493-3.426,2.682-4.453,4.553a9.474,9.474,0,0,0-.682,6.027c.329,2.033.978,4,1.245,6.046C333.148,286.364,331.181,292.033,330.652,295.879ZM211.606,237.53c4.166,1.823,8.967,1.184,13.39.129a128.121,128.121,0,0,1-1.456,33.777l-.1.029c2.754,4.968,5.507,9.94,8.146,14.969a30.88,30.88,0,0,0,11.425,3.942,58.848,58.848,0,0,0,16.946-.416,24.671,24.671,0,0,0,8.762-2.524c3.96-2.258,6.495-6.324,8.241-10.58a54.749,54.749,0,0,0-3.751-5.263c-.888-1.1-1.827-2.167-2.605-3.346a17.989,17.989,0,0,1-1.79-3.579,39.578,39.578,0,0,1-1.718-6.681,34.6,34.6,0,0,0,13.157-4.328A23.6,23.6,0,0,0,291.234,234.4a46.33,46.33,0,0,0-1.646-11.257c-1.327-5.736-2.653-11.472-4.114-17.175a43.606,43.606,0,0,0-4.214-11.5,26.172,26.172,0,0,0-15.085-11.382,34.634,34.634,0,0,0-18.845.071c.015.009.024.02.038.029-.019-.009-.038-.015-.057-.024-.076.019-.149.043-.225.062a16.97,16.97,0,0,1-1.389,11.053c-3.617,7.253-11.935,11.057-16.2,17.947a19.456,19.456,0,0,0-2.635,13.257,13.566,13.566,0,0,0-17.365-2.415,8.8,8.8,0,0,0-3.107,3.417C204.448,230.587,207.445,235.708,211.606,237.53Z" transform="translate(-163.716 -162.857)" fill="#fbb4b8"/>
        <path id="Trazado_719751" data-name="Trazado 719751" d="M324.358,389.838q-5.611,2.018-11.229,4a24.274,24.274,0,0,0,8.877,4.219,31.213,31.213,0,0,0,16.521-.726c7.974-2.443,15.295-7.85,18.683-15.471a34.489,34.489,0,0,0,2.568-13.2q.042-1.776-.015-3.546c-3.106,10.489-11.72,28.671-33.534,23.99C325.619,389.385,324.983,389.614,324.358,389.838Zm-159.675,5.517a34.857,34.857,0,0,0,13.457,14.536A39.94,39.94,0,0,0,192,414.286c12.517,1.857,25.392-.062,37.389-4.089a138.383,138.383,0,0,0,23.789-10.838c3.479-1.961,6.919-4.037,10.331-6.194q-.938-3.185-2.1-6.294c-.887-2.391-1.875-4.753-2.949-7.067-5.808,5.774-24.238,22.028-51.625,26.5A52.563,52.563,0,0,1,164.683,395.355Zm38.807-44.343a216.807,216.807,0,0,0,7.607,21.9,61.816,61.816,0,0,0,10.122-3.073q1.475-.58,2.93-1.2C211.311,369.022,203.805,351.747,203.49,351.012Zm20.429-3.282a7.516,7.516,0,0,1,.175-2.8c.848-4.236,2.27-8.43,2.114-12.747a2.709,2.709,0,0,0-.38-1.511,2.981,2.981,0,0,0-1.212-.844,85.987,85.987,0,0,1-9.867-5.509,4.22,4.22,0,0,1-1.733-1.7,4.3,4.3,0,0,1-.2-1.922l1.056-21.964c-1.249,7.181-2.492,14.052-3.31,20.974a5.151,5.151,0,0,0,.168,2.69,5.227,5.227,0,0,0,1.885,1.948l10.027,7.252a3.542,3.542,0,0,1,1.676,4.827q-1.042,3.878-2.082,7.758a10.279,10.279,0,0,0,2.076,11.386l5.493,7.47a14.092,14.092,0,0,0,1.906,2.176l2.027-.939q-4.276-6.889-8.552-13.779A8.163,8.163,0,0,1,223.919,347.729Zm66.669-39.844a2.84,2.84,0,0,1-.168,1.266l-1.663,5.685a3.045,3.045,0,0,0,.493,3.419l2.617,3.671.816-.189c-.731-1.973-1.922-3.842-1.939-5.936a10.972,10.972,0,0,1,.714-3.419l1.286-3.982a2.633,2.633,0,0,0-.837-3.491c-4.855-4.6-9.8-9.113-14.642-13.315l12.6,15.03A2.836,2.836,0,0,1,290.589,307.885Z" transform="translate(-157.91 -178.366)" fill="#c0dbf9" style="mix-blend-mode: multiply;isolation: isolate"/>
        <path id="Trazado_719752" data-name="Trazado 719752" d="M236.922,256.887c2.153,6.266,7.311,11.329,13.348,14.159,6.295,2.959,13.443,3.685,20.381,3.159a19.564,19.564,0,0,1-1.059-2.348,39.579,39.579,0,0,1-1.718-6.681c-.821.129-1.646.234-2.467.334-5.45.644-11.052.845-16.354-.563A21.216,21.216,0,0,1,236.922,256.887Zm-25.57-20.357a1.118,1.118,0,0,0,.76.89,1.659,1.659,0,0,0,1.333-.445,9.22,9.22,0,0,1,2.322-1.542,4.5,4.5,0,0,1,3.185.252,21.867,21.867,0,0,1,2.832,1.623,1.839,1.839,0,0,0,1.057.363,1.477,1.477,0,0,0,.8-.453,8.2,8.2,0,0,0-9.242-4.277,4.512,4.512,0,0,0-2.86,2.389A2.075,2.075,0,0,0,211.353,236.53Z" transform="translate(-164.499 -170.045)" fill="#f8a3a8" style="mix-blend-mode: multiply;isolation: isolate"/>
        <path id="Trazado_719753" data-name="Trazado 719753" d="M280.107,214.6a5.906,5.906,0,0,0,2.546,4.564,2.119,2.119,0,0,0,3.121-.912,2.951,2.951,0,0,0,.218-1.11,4.95,4.95,0,0,0-3.194-4.657,2.194,2.194,0,0,0-1.727-.015A2.282,2.282,0,0,0,280.107,214.6Zm-26.136,3.751a5.907,5.907,0,0,0,2.365,4.66,2.119,2.119,0,0,0,3.155-.788,2.939,2.939,0,0,0,.261-1.1,4.949,4.949,0,0,0-3.008-4.779,2.189,2.189,0,0,0-1.724-.082A2.283,2.283,0,0,0,253.972,218.347Z" transform="translate(-170.523 -167.164)"/>
        <path id="Trazado_719754" data-name="Trazado 719754" d="M272.981,201.252a2.916,2.916,0,0,0,.034,2.136c1.035.179,1.953-.6,2.836-1.172a8.061,8.061,0,0,1,5.958-1.094,24.429,24.429,0,0,0,3.1.731.906.906,0,0,0,.76-.2.79.79,0,0,0,.168-.483,2.478,2.478,0,0,0-1.093-2.07,5.6,5.6,0,0,0-2.266-.86,15.715,15.715,0,0,0-3.655-.269,8.713,8.713,0,0,0-3.45.763A4.636,4.636,0,0,0,272.981,201.252Zm-26.616,7.574c.508.324,1.175.015,1.663-.337,1.03-.743,1.913-1.693,3.012-2.33,2.318-1.341,5.225-1.091,7.813-.4.169.21.861.047,1.117-.4a1.342,1.342,0,0,0-.17-1.435,3.165,3.165,0,0,0-1.229-.888,10.989,10.989,0,0,0-8.5-.273c-2.1.806-4.1,2.55-4.186,4.8A1.391,1.391,0,0,0,246.364,208.826Z" transform="translate(-169.38 -165.139)" fill="#3f2532"/>
        <path id="Trazado_719755" data-name="Trazado 719755" d="M266.231,371.358a.239.239,0,0,0,.358.315,18.384,18.384,0,0,1,8.924-5.158c.961-.274,2-.517,3.283-.763,1.439-.275,2.921-.5,4.354-.71s2.9-.433,4.345-.708a55.157,55.157,0,0,0,14.929-5.127,9.609,9.609,0,0,0,3.691-2.826,4.125,4.125,0,0,0,.544-3.747c.264-.249.527-.514.8-.813a3.66,3.66,0,0,0,1.264-2.9,3.131,3.131,0,0,0-1-1.766,7.855,7.855,0,0,0,.751-.986,2.531,2.531,0,0,0,.467-1.385,2.228,2.228,0,0,0-1.407-1.788c.032-.034.064-.068.1-.1a2.743,2.743,0,0,0,.737-2.047,1.111,1.111,0,0,0-.57-.812,1.925,1.925,0,0,0-1.133-.148c-3.011.239-6.061.692-9.011,1.132-5.052.751-10.276,1.529-15.413,1.235-.477-.021-.943-.06-1.376-.1a.242.242,0,0,0-.26.216.239.239,0,0,0,.216.259c.439.04.911.082,1.4.1,5.182.3,10.431-.485,15.507-1.24,2.941-.437,5.984-.89,8.979-1.128a1.532,1.532,0,0,1,.861.09.634.634,0,0,1,.333.477,2.266,2.266,0,0,1-.614,1.638c-.1.115-.205.224-.31.33a15.709,15.709,0,0,1-4.984,3.1,54.492,54.492,0,0,1-14.236,4.044.239.239,0,0,0,.033.475l.034,0a55.024,55.024,0,0,0,14.36-4.079,16.473,16.473,0,0,0,5-3.08c.832.412,1.255.887,1.28,1.45a1.975,1.975,0,0,1-.392,1.112,7.58,7.58,0,0,1-.851,1.1,14.294,14.294,0,0,1-2.455,2.017,33.162,33.162,0,0,1-13.887,5.344.239.239,0,0,0,.034.475l.033,0a33.651,33.651,0,0,0,14.087-5.422A15.389,15.389,0,0,0,307.4,347.5a2.606,2.606,0,0,1,.85,1.478,3.238,3.238,0,0,1-1.141,2.517c-.308.333-.6.628-.893.9a21.551,21.551,0,0,1-7.864,4.406,33.515,33.515,0,0,1-5.63,1.36.238.238,0,0,0,.036.474l.035,0a33.93,33.93,0,0,0,5.711-1.379,22.309,22.309,0,0,0,7.771-4.278,3.689,3.689,0,0,1-.556,3.134,9.206,9.206,0,0,1-3.516,2.672,54.706,54.706,0,0,1-14.8,5.085c-1.433.271-2.9.491-4.326.7-1.437.215-2.924.436-4.374.713-1.294.25-2.349.5-3.323.774A18.84,18.84,0,0,0,266.231,371.358ZM339.04,269.5c-.382,1.122-.768,2.72.294,3.636a2.118,2.118,0,0,0,1.414.485,4.038,4.038,0,0,0,1.692-.433,11.974,11.974,0,0,0-.868,5.581c.084,1,.441,2.767,1.885,3.319a2.281,2.281,0,0,0,.822.15,2.829,2.829,0,0,0,.844-.142,7.72,7.72,0,0,0-.431,2.429,2.431,2.431,0,0,0,.615,1.885,1.687,1.687,0,0,0,1.187.442,2.708,2.708,0,0,0,.688-.1,5,5,0,0,0,1.358-.6,17.69,17.69,0,0,0,6.227-6.638c.045-.078.088-.164.132-.248l.046-.088a9.9,9.9,0,0,0,.6-1.457.238.238,0,1,0-.455-.143,9.382,9.382,0,0,1-.573,1.383l-.044.085c-.041.08-.082.16-.127.238a17.219,17.219,0,0,1-6.06,6.463,4.55,4.55,0,0,1-1.225.538,1.446,1.446,0,0,1-1.43-.234,2,2,0,0,1-.464-1.532,7.226,7.226,0,0,1,.551-2.679,6.373,6.373,0,0,0,1.408-1,16.572,16.572,0,0,0,1.822-2,21.272,21.272,0,0,0,2.471-4.141c.262-.557.5-1.123.721-1.678.03-.074.06-.15.086-.227a.239.239,0,0,0-.453-.15c-.022.067-.049.134-.076.2-.213.548-.452,1.1-.71,1.653a20.8,20.8,0,0,1-2.416,4.05,16.135,16.135,0,0,1-1.768,1.937,5.737,5.737,0,0,1-1.4.975,2.228,2.228,0,0,1-1.78.166c-1.245-.477-1.519-2.2-1.579-2.914a11.512,11.512,0,0,1,1.018-5.8.248.248,0,0,0,.021-.1,10.15,10.15,0,0,0,1.118-.769,15.292,15.292,0,0,0,1.627-1.487c.495-.514.975-1.065,1.427-1.639a20.412,20.412,0,0,0,1.584-2.313.238.238,0,1,0-.411-.241,19.938,19.938,0,0,1-1.547,2.258c-.443.562-.913,1.1-1.4,1.606a14.886,14.886,0,0,1-1.578,1.442,9.621,9.621,0,0,1-1.236.84c-.043.027-.078.049-.117.07-.444.247-1.965.992-2.912.175-.842-.727-.491-2.129-.154-3.121a12.132,12.132,0,0,1,1.128-2.386,15.764,15.764,0,0,1,2.891-3.441c.356-.323.739-.647,1.142-.962a7.957,7.957,0,0,1,1.416-.927,3.75,3.75,0,0,1,.953-.325.239.239,0,0,0-.088-.469,4.24,4.24,0,0,0-1.073.364,8.345,8.345,0,0,0-1.5.981c-.412.323-.806.654-1.169.985a16.229,16.229,0,0,0-2.978,3.546A12.628,12.628,0,0,0,339.04,269.5ZM200.222,357.711a30.424,30.424,0,0,0,7.731.954,40.886,40.886,0,0,0,8.187-.874,61.583,61.583,0,0,0,10.161-3.085c3.56-1.4,7.085-3.04,10.493-4.629,4.224-1.97,8.592-4.006,13.049-5.581.256-.094.514-.183.77-.271l.054-.019a.238.238,0,0,0-.155-.451l-.054.018c-.26.09-.52.18-.776.274-4.477,1.582-8.855,3.623-13.09,5.6-3.4,1.586-6.919,3.226-10.465,4.617a61.416,61.416,0,0,1-9.888,3.019,218.186,218.186,0,0,1-8.582-25.479.239.239,0,0,0-.461.124,218.606,218.606,0,0,0,8.568,25.452,34.335,34.335,0,0,1-15.421-.127.238.238,0,1,0-.121.461ZM254.15,197.727a.239.239,0,0,0,.239.226h.012a.238.238,0,0,0,.226-.251,19.409,19.409,0,0,0-6.464-13.376,25.187,25.187,0,0,1,10.873,10.532.239.239,0,0,0,.21.126.243.243,0,0,0,.112-.028.239.239,0,0,0,.1-.323,25.621,25.621,0,0,0-12.78-11.506l-.008-.005-.01-.008-.009-.006-.038-.029a.235.235,0,0,0-.142-.035c-.1-.042-.208-.084-.313-.123a.238.238,0,1,0-.165.447l.049.02a.257.257,0,0,0,0,.036,16.646,16.646,0,0,1-1.369,10.9c-1.907,3.823-5.211,6.745-8.406,9.572-2.838,2.511-5.773,5.107-7.785,8.356a19.76,19.76,0,0,0-2.666,13.421.239.239,0,0,0,.235.2.2.2,0,0,0,.039,0,.239.239,0,0,0,.2-.274,19.282,19.282,0,0,1,2.6-13.093c1.974-3.189,4.883-5.762,7.7-8.25,3.23-2.857,6.568-5.811,8.517-9.717a17.133,17.133,0,0,0,1.474-10.884A19.168,19.168,0,0,1,254.15,197.727Zm17.964,27.521a2.164,2.164,0,0,0,.557-1.263,2.267,2.267,0,0,0-.977-1.544,21.743,21.743,0,0,1-4.716-5.936.239.239,0,0,0-.42.228,22.245,22.245,0,0,0,4.819,6.066c.362.321.813.721.817,1.19a1.742,1.742,0,0,1-.461.974l-1.819,2.425a.238.238,0,0,0,.381.286Zm-11.373,10.488a5.188,5.188,0,0,0,3.053,2.406,8.835,8.835,0,0,0,2.73.38c.356,0,.729-.015,1.125-.043a11.386,11.386,0,0,0,5.026-1.371,6.173,6.173,0,0,0,3.074-4.175.239.239,0,0,0-.471-.076,5.694,5.694,0,0,1-2.844,3.839A10.94,10.94,0,0,1,267.614,238a9.662,9.662,0,0,1-3.675-.315,4.721,4.721,0,0,1-2.776-2.173.239.239,0,1,0-.422.222Z" transform="translate(-162.905 -163.012)"/>
        <g id="Grupo_1005677" data-name="Grupo 1005677" transform="translate(65.02 51.499)" style="mix-blend-mode: multiply;isolation: isolate">
          <circle id="Elipse_8548" data-name="Elipse 8548" cx="9.192" cy="9.192" r="9.192" transform="translate(0 21.202) rotate(-75.63)" fill="#f8a3a8"/>
          <path id="Trazado_719756" data-name="Trazado 719756" d="M298.988,238.094a9.191,9.191,0,1,1,0-18.383c.143,0,.282.015.422.021q1.04,4.377,2.046,8.761a59.964,59.964,0,0,1,1.556,8.665A9.14,9.14,0,0,1,298.988,238.094Z" transform="translate(-240.604 -219.711)" fill="#f8a3a8"/>
        </g>
        <g id="Grupo_1005678" data-name="Grupo 1005678" transform="translate(71.205 57.384)">
          <path id="Trazado_719757" data-name="Trazado 719757" d="M246.159,239.646a.239.239,0,0,1-.165-.065,33.82,33.82,0,0,0-6.162-4.635.238.238,0,0,1,.241-.411,34.314,34.314,0,0,1,6.25,4.7.238.238,0,0,1-.164.411Z" transform="translate(-239.714 -227.685)" fill="#ee5952"/>
          <path id="Trazado_719758" data-name="Trazado 719758" d="M243.4,232.871a.24.24,0,0,1,.319-.109,30.292,30.292,0,0,1,7.222,4.967.239.239,0,1,1-.324.35,29.8,29.8,0,0,0-7.109-4.889A.239.239,0,0,1,243.4,232.871Z" transform="translate(-240.231 -227.436)" fill="#ee5952"/>
          <path id="Trazado_719759" data-name="Trazado 719759" d="M299.274,233.319a.238.238,0,0,1-.157-.058,28.6,28.6,0,0,0-5.409-3.713.239.239,0,1,1,.223-.422,29.1,29.1,0,0,1,5.5,3.775.238.238,0,0,1-.156.418Z" transform="translate(-247.324 -226.922)" fill="#ee5952"/>
          <path id="Trazado_719760" data-name="Trazado 719760" d="M296.083,226.7a.24.24,0,0,1,.321-.106,28.419,28.419,0,0,1,6.258,4.27c.061.27.119.539.179.809a27.844,27.844,0,0,0-6.652-4.651A.24.24,0,0,1,296.083,226.7Z" transform="translate(-247.674 -226.564)" fill="#ee5952"/>
        </g>
        <path id="Trazado_719761" data-name="Trazado 719761" d="M216.392,321.8a85.7,85.7,0,0,0,8.511,26.464c1.387,2.64,3.036,5.285,5.7,6.757a9.968,9.968,0,0,0,4.834,1.171,13.465,13.465,0,0,0,5.173-1.078.716.716,0,0,0-.554-1.321,10.217,10.217,0,0,1-8.76-.026c-2.332-1.29-3.841-3.728-5.125-6.17a84.283,84.283,0,0,1-8.363-26.024.716.716,0,0,0-1.414.225Zm29.385,29.557a.715.715,0,0,0,.971.286,10.673,10.673,0,0,0,5.148-8.027,19.187,19.187,0,0,0-1.368-9.381c-3.05-8.185-9-14.744-14.969-20.613a.716.716,0,0,0-1,1.021c5.854,5.754,11.678,12.17,14.63,20.092a17.82,17.82,0,0,1,1.292,8.684,9.37,9.37,0,0,1-4.416,6.967A.716.716,0,0,0,245.777,351.358Zm-19.429-76.634q.124-1.228.224-2.459c-6.476,4.011-9.655,11.23-9.2,21.007a52.06,52.06,0,0,0,2.952,14.639.954.954,0,0,0,.891.613.936.936,0,0,0,.341-.064.955.955,0,0,0,.55-1.232C222.01,306.987,213.548,284.31,226.348,274.724Zm42.6-2.146q.215,1.02.475,2.027c14.528,3.186,26.113,31.3,28.233,36.758a6.049,6.049,0,0,0-2.3,1.875,6.344,6.344,0,0,0,.046,7.335l11.1-3.475a6.344,6.344,0,0,0-4.146-6.052,6.035,6.035,0,0,0-2.866-.244C297.384,305.269,285.191,275.132,268.95,272.578Z" transform="translate(-165.213 -175.636)" fill="#ee5952"/>
        <path id="Trazado_719762" data-name="Trazado 719762" d="M297.306,321.128a3.772,3.772,0,0,0,.146,4.428l6.51-1.774-.009-.279a3.665,3.665,0,0,0-6.647-2.374Zm-81.41,6.75,2.173-.3a.762.762,0,0,0,.343-.1.783.783,0,0,0,.222-.663,23.112,23.112,0,0,1,.3-4.632,5.868,5.868,0,0,1,8.78-4.352,22.27,22.27,0,0,1,5.556,3.941.818.818,0,0,0,.4.229c.263.035.487-.18.661-.38.739-.848,2.268-1.71,2.268-2.3a21,21,0,0,0-13.879-5.93,6.5,6.5,0,0,0-2.194.219,5.984,5.984,0,0,0-2.832,2.282C215.191,319.268,215.087,327.991,215.9,327.878Zm27.99,28.754a.562.562,0,0,0,.04.234A5.158,5.158,0,0,0,245,358.711a.643.643,0,0,0,.476.272c.217-.013.362-.218.5-.382.3-.342.709-.57,1-.915a.283.283,0,0,0,.09-.229.331.331,0,0,0-.1-.145,7.606,7.606,0,0,1-.55-.734,2.228,2.228,0,0,1-.2-.247.92.92,0,0,0-.215-.331c-.175-.126-.416-.033-.619.042a3.291,3.291,0,0,1-.785.188,1.671,1.671,0,0,0-.439.081A.42.42,0,0,0,243.886,356.631Zm-4.149,2.75a.28.28,0,0,0-.093.228.33.33,0,0,0,.1.145,7.734,7.734,0,0,1,.542.742,2.137,2.137,0,0,1,.2.25.913.913,0,0,0,.21.333c.174.129.416.039.62-.033a3.339,3.339,0,0,1,.787-.179,1.649,1.649,0,0,0,.441-.075.424.424,0,0,0,.283-.319.582.582,0,0,0-.038-.234,5.191,5.191,0,0,0-1.052-1.86.645.645,0,0,0-.472-.277c-.217.01-.364.213-.509.375C240.45,358.816,240.035,359.039,239.737,359.381Z" transform="translate(-165.081 -181.444)"/>
      </g>
    </g>
  </g>
</svg>
